<svg version="1.2" baseProfile="tiny" id="Layer_1" xmlns="http://www.w3.org/2000/svg" xmlns:xlink="http://www.w3.org/1999/xlink" x="0px" y="0px" viewBox="0 0 172.238 180.994" xml:space="preserve">                <path id="gear" fill="#0099B0" d="M152.336,57.604l-16.439-3.057c-0.4-0.075-0.838-0.451-0.973-0.837l-5.039-11.756                    c-0.188-0.363-0.152-0.933,0.08-1.271l9.578-13.96c0.229-0.336,0.184-0.847-0.105-1.136l-11.963-11.963                    c-0.289-0.289-0.799-0.336-1.135-0.105l-14.205,9.748c-0.336,0.231-0.912,0.272-1.277,0.092l-11.396-4.665                    c-0.387-0.128-0.764-0.561-0.84-0.962L95.457,0.729C95.383,0.328,94.988,0,94.58,0H77.66c-0.407,0-0.802,0.328-0.876,0.729                    L73.62,17.732c-0.076,0.401-0.452,0.834-0.84,0.962l-11.397,4.665c-0.366,0.18-0.942,0.139-1.277-0.092l-14.204-9.748                    c-0.337-0.231-0.848-0.184-1.136,0.105L32.802,25.587c-0.288,0.289-0.336,0.8-0.105,1.136l9.579,13.96                    c0.23,0.338,0.266,0.908,0.079,1.271l-5.04,11.756c-0.134,0.386-0.571,0.762-0.973,0.837l-16.438,3.057                    c-0.402,0.076-0.729,0.47-0.729,0.878l0.001,16.919c0,0.408,0.328,0.805,0.729,0.878l16.035,2.984                    c0.401,0.073,0.83,0.454,0.952,0.843l5.006,12.505c0.179,0.367,0.137,0.941-0.095,1.277l-9.108,13.273                    c-0.23,0.336-0.183,0.848,0.105,1.137l11.965,11.963c0.288,0.287,0.799,0.334,1.136,0.105l13.038-8.949                    c0.336-0.23,0.899-0.248,1.25-0.043l5.75,3.07c0.364,0.186,0.789,0.029,0.945-0.348L78.74,85.449c0.157-0.377,0-0.858-0.348-1.071                    l-1.439-0.881c-0.266-0.162-0.627-0.441-0.91-0.697c-5.191-3.324-8.635-9.139-8.635-15.761c0-10.334,8.378-18.711,18.711-18.711                    c10.333,0,18.71,8.377,18.71,18.711c0,6.622-3.443,12.437-8.635,15.761c-0.281,0.256-0.643,0.535-0.908,0.697l-1.439,0.881                    c-0.346,0.213-0.504,0.694-0.348,1.071l11.855,28.648c0.156,0.377,0.58,0.533,0.945,0.348l5.75-3.07                    c0.352-0.205,0.914-0.188,1.25,0.043l13.039,8.949c0.336,0.229,0.848,0.182,1.135-0.105l11.965-11.963                    c0.289-0.289,0.336-0.801,0.105-1.137l-9.109-13.273c-0.23-0.336-0.273-0.91-0.094-1.277l5.006-12.505                    c0.123-0.389,0.549-0.77,0.951-0.843l16.035-2.984c0.4-0.073,0.729-0.47,0.729-0.878l0.002-16.919                    C153.064,58.074,152.736,57.68,152.336,57.604"></path>                            <path d="M54.854 146.430Q55.844 146.430 56.489 146.265Q57.134 146.100 57.524 145.815Q57.914 145.530 58.064 145.140Q58.214 144.750 58.214 144.270Q58.214 143.250 57.254 142.575Q56.294 141.900 53.954 141.120Q52.934 140.760 51.914 140.295Q50.894 139.830 50.084 139.125Q49.274 138.420 48.764 137.415Q48.254 136.410 48.254 134.970Q48.254 133.530 48.794 132.375Q49.334 131.220 50.324 130.410Q51.314 129.600 52.724 129.165Q54.134 128.730 55.904 128.730Q58.004 128.730 59.534 129.180Q61.064 129.630 62.054 130.170L60.704 133.860Q59.834 133.410 58.769 133.065Q57.704 132.720 56.204 132.720Q54.524 132.720 53.789 133.185Q53.054 133.650 53.054 134.610Q53.054 135.180 53.324 135.570Q53.594 135.960 54.089 136.275Q54.584 136.590 55.229 136.845Q55.874 137.100 56.654 137.370Q58.274 137.970 59.474 138.555Q60.674 139.140 61.469 139.920Q62.264 140.700 62.654 141.750Q63.044 142.800 63.044 144.300Q63.044 147.210 61.004 148.815Q58.964 150.420 54.854 150.420Q53.474 150.420 52.364 150.255Q51.254 150.090 50.399 149.850Q49.544 149.610 48.929 149.340Q48.314 149.070 47.894 148.830L49.214 145.110Q50.144 145.620 51.509 146.025Q52.874 146.430 54.854 146.430ZM72.884 128.970Q77.534 128.970 80.024 130.605Q82.514 132.240 82.514 135.960Q82.514 139.710 79.994 141.375Q77.474 143.040 72.794 143.040L71.324 143.040L71.324 150L66.644 150L66.644 129.510Q68.174 129.210 69.884 129.090Q71.594 128.970 72.884 128.970M73.184 132.960Q72.674 132.960 72.179 132.990Q71.684 133.020 71.324 133.050L71.324 139.050L72.794 139.050Q75.224 139.050 76.454 138.390Q77.684 137.730 77.684 135.930Q77.684 135.060 77.369 134.490Q77.054 133.920 76.469 133.575Q75.884 133.230 75.044 133.095Q74.204 132.960 73.184 132.960ZM92.894 150.270Q91.184 150.270 89.489 150.165Q87.794 150.060 85.964 149.670L85.964 129.510Q87.404 129.240 89.114 129.105Q90.824 128.970 92.294 128.970Q94.274 128.970 95.939 129.255Q97.604 129.540 98.804 130.230Q100.004 130.920 100.679 132.045Q101.354 133.170 101.354 134.820Q101.354 137.310 98.954 138.750Q100.934 139.500 101.654 140.790Q102.374 142.080 102.374 143.700Q102.374 146.970 99.989 148.620Q97.604 150.270 92.894 150.270M90.524 140.940L90.524 146.310Q91.034 146.370 91.634 146.400Q92.234 146.430 92.954 146.430Q95.054 146.430 96.344 145.830Q97.634 145.230 97.634 143.610Q97.634 142.170 96.554 141.555Q95.474 140.940 93.464 140.940L90.524 140.940M90.524 137.370L92.804 137.370Q94.964 137.370 95.894 136.815Q96.824 136.260 96.824 135.030Q96.824 133.770 95.864 133.260Q94.904 132.750 93.044 132.750Q92.444 132.750 91.754 132.765Q91.064 132.780 90.524 132.840L90.524 137.370ZM115.604 150.420Q110.534 150.420 107.879 147.600Q105.224 144.780 105.224 139.590Q105.224 137.010 106.034 134.985Q106.844 132.960 108.254 131.565Q109.664 130.170 111.614 129.450Q113.564 128.730 115.844 128.730Q117.164 128.730 118.244 128.925Q119.324 129.120 120.134 129.375Q120.944 129.630 121.484 129.900Q122.024 130.170 122.264 130.320L120.914 134.100Q119.954 133.590 118.679 133.230Q117.404 132.870 115.784 132.870Q114.704 132.870 113.669 133.230Q112.634 133.590 111.839 134.385Q111.044 135.180 110.564 136.440Q110.084 137.700 110.084 139.500Q110.084 140.940 110.399 142.185Q110.714 143.430 111.419 144.330Q112.124 145.230 113.264 145.755Q114.404 146.280 116.024 146.280Q117.044 146.280 117.854 146.160Q118.664 146.040 119.294 145.875Q119.924 145.710 120.404 145.500Q120.884 145.290 121.274 145.110L122.564 148.860Q121.574 149.460 119.774 149.940Q117.974 150.420 115.604 150.420Z" id="text" fill="#0099B0"></path></svg>