G04 #@! TF.FileFunction,Soldermask,Top*
%FSLAX46Y46*%
G04 Gerber Fmt 4.6, Leading zero omitted, Abs format (unit mm)*
G04 Created by KiCad (PCBNEW 4.0.4-stable) date 12/08/16 20:58:41*
%MOMM*%
%LPD*%
G01*
G04 APERTURE LIST*
%ADD10C,0.100000*%
%ADD11R,1.400000X3.900000*%
%ADD12R,3.900000X2.000000*%
%ADD13R,1.300000X2.900000*%
%ADD14R,1.700000X1.100000*%
%ADD15R,1.100000X1.700000*%
%ADD16R,1.800000X1.400000*%
%ADD17R,1.000000X0.950000*%
%ADD18R,1.000000X2.600000*%
%ADD19R,1.700000X1.300000*%
%ADD20R,1.300000X1.700000*%
%ADD21R,1.870000X1.050000*%
G04 APERTURE END LIST*
D10*
D11*
X86840000Y-115000000D03*
X89380000Y-115000000D03*
X91920000Y-115000000D03*
X94460000Y-115000000D03*
X97000000Y-115000000D03*
X99540000Y-115000000D03*
X102080000Y-115000000D03*
X104620000Y-115000000D03*
X107160000Y-115000000D03*
X107160000Y-115000000D03*
X104620000Y-115000000D03*
X102080000Y-115000000D03*
X99540000Y-115000000D03*
X97000000Y-115000000D03*
X94460000Y-115000000D03*
X91920000Y-115000000D03*
X89380000Y-115000000D03*
X86840000Y-115000000D03*
D12*
X113500000Y-112000000D03*
X118900000Y-112000000D03*
X78300000Y-112200000D03*
X72900000Y-112200000D03*
D13*
X78983268Y-106031844D03*
X76083268Y-106031844D03*
X78983268Y-97141844D03*
X76083268Y-97141844D03*
X79010434Y-93275944D03*
X76110434Y-93275944D03*
X79010434Y-84385944D03*
X76110434Y-84385944D03*
X113358000Y-84328000D03*
X116258000Y-84328000D03*
X113358000Y-93218000D03*
X116258000Y-93218000D03*
X113358000Y-97028000D03*
X116258000Y-97028000D03*
X113358000Y-105918000D03*
X116258000Y-105918000D03*
D14*
X95093654Y-84074874D03*
X95093654Y-82174874D03*
D15*
X92995654Y-85918874D03*
X91095654Y-85918874D03*
D14*
X83355647Y-83970559D03*
X83355647Y-85870559D03*
D15*
X85453647Y-82192559D03*
X87353647Y-82192559D03*
D14*
X94723444Y-108278058D03*
X94723444Y-106378058D03*
D15*
X92691444Y-110122058D03*
X90791444Y-110122058D03*
D14*
X83363467Y-108803357D03*
X83363467Y-110703357D03*
D15*
X85461467Y-106959357D03*
X87361467Y-106959357D03*
D16*
X93145654Y-84074874D03*
X93145654Y-82174874D03*
X90945654Y-83124874D03*
X85303647Y-84036559D03*
X85303647Y-85936559D03*
X87503647Y-84986559D03*
X92859444Y-108278058D03*
X92859444Y-106378058D03*
X90659444Y-107328058D03*
X85311467Y-108803357D03*
X85311467Y-110703357D03*
X87511467Y-109753357D03*
D17*
X118900000Y-104800000D03*
X118900000Y-105600000D03*
X118872000Y-98190000D03*
X118872000Y-97390000D03*
X118900000Y-92100000D03*
X118900000Y-92900000D03*
X118872000Y-85490000D03*
X118872000Y-84690000D03*
X117600000Y-105600000D03*
X117600000Y-104800000D03*
X117602000Y-97390000D03*
X117602000Y-98190000D03*
X117600000Y-92900000D03*
X117600000Y-92100000D03*
X117602000Y-84690000D03*
X117602000Y-85490000D03*
X73500000Y-85500000D03*
X73500000Y-84700000D03*
X73496434Y-92113944D03*
X73496434Y-92913944D03*
X73500000Y-98300000D03*
X73500000Y-97500000D03*
X73469268Y-104869844D03*
X73469268Y-105669844D03*
X74700000Y-84700000D03*
X74700000Y-85500000D03*
X74766434Y-92913944D03*
X74766434Y-92113944D03*
X74700000Y-97500000D03*
X74700000Y-98300000D03*
X74739268Y-105669844D03*
X74739268Y-104869844D03*
D18*
X89858000Y-90678000D03*
X89858000Y-99878000D03*
X91128000Y-90678000D03*
X91128000Y-99878000D03*
X92398000Y-90678000D03*
X92398000Y-99878000D03*
X93668000Y-90678000D03*
X93668000Y-99878000D03*
X94938000Y-90678000D03*
X94938000Y-99878000D03*
X96208000Y-90678000D03*
X96208000Y-99878000D03*
X97478000Y-90678000D03*
X97478000Y-99878000D03*
X98748000Y-90678000D03*
X98748000Y-99878000D03*
X100018000Y-90678000D03*
X100018000Y-99878000D03*
X101288000Y-90678000D03*
X101288000Y-99878000D03*
X102558000Y-90678000D03*
X102558000Y-99878000D03*
X103828000Y-90678000D03*
X103828000Y-99878000D03*
D19*
X120650000Y-102886000D03*
X120650000Y-104786000D03*
X120650000Y-101330000D03*
X120650000Y-99430000D03*
X120650000Y-90186000D03*
X120650000Y-92086000D03*
X120650000Y-88630000D03*
X120650000Y-86730000D03*
X71718434Y-87417944D03*
X71718434Y-85517944D03*
X71718434Y-88973944D03*
X71718434Y-90873944D03*
D20*
X89646000Y-102616000D03*
X87746000Y-102616000D03*
X91202000Y-102616000D03*
X93102000Y-102616000D03*
D19*
X71691268Y-100173844D03*
X71691268Y-98273844D03*
X71691268Y-101729844D03*
X71691268Y-103629844D03*
D21*
X113088000Y-99568000D03*
X113088000Y-100838000D03*
X113088000Y-102108000D03*
X113088000Y-103378000D03*
X118618000Y-103378000D03*
X118618000Y-102108000D03*
X118618000Y-100838000D03*
X118618000Y-99568000D03*
X113088000Y-86868000D03*
X113088000Y-88138000D03*
X113088000Y-89408000D03*
X113088000Y-90678000D03*
X118618000Y-90678000D03*
X118618000Y-89408000D03*
X118618000Y-88138000D03*
X118618000Y-86868000D03*
X79280434Y-90735944D03*
X79280434Y-89465944D03*
X79280434Y-88195944D03*
X79280434Y-86925944D03*
X73750434Y-86925944D03*
X73750434Y-88195944D03*
X73750434Y-89465944D03*
X73750434Y-90735944D03*
X79253268Y-103491844D03*
X79253268Y-102221844D03*
X79253268Y-100951844D03*
X79253268Y-99681844D03*
X73723268Y-99681844D03*
X73723268Y-100951844D03*
X73723268Y-102221844D03*
X73723268Y-103491844D03*
M02*
