G04 #@! TF.FileFunction,Copper,L1,Top,Signal*
%FSLAX46Y46*%
G04 Gerber Fmt 4.6, Leading zero omitted, Abs format (unit mm)*
G04 Created by KiCad (PCBNEW 4.0.4-stable) date 12/08/16 20:58:41*
%MOMM*%
%LPD*%
G01*
G04 APERTURE LIST*
%ADD10C,0.100000*%
%ADD11R,1.000000X3.500000*%
%ADD12R,3.500000X1.600000*%
%ADD13R,0.900000X2.500000*%
%ADD14R,1.300000X0.700000*%
%ADD15R,0.700000X1.300000*%
%ADD16R,1.400000X1.000000*%
%ADD17R,0.600000X0.550000*%
%ADD18R,0.600000X2.200000*%
%ADD19R,1.300000X0.900000*%
%ADD20R,0.900000X1.300000*%
%ADD21R,1.470000X0.650000*%
%ADD22C,0.690000*%
%ADD23C,0.300000*%
%ADD24C,0.200000*%
G04 APERTURE END LIST*
D10*
D11*
X86840000Y-115000000D03*
X89380000Y-115000000D03*
X91920000Y-115000000D03*
X94460000Y-115000000D03*
X97000000Y-115000000D03*
X99540000Y-115000000D03*
X102080000Y-115000000D03*
X104620000Y-115000000D03*
X107160000Y-115000000D03*
D12*
X113500000Y-112000000D03*
X118900000Y-112000000D03*
X78300000Y-112200000D03*
X72900000Y-112200000D03*
D13*
X78983268Y-106031844D03*
X76083268Y-106031844D03*
X78983268Y-97141844D03*
X76083268Y-97141844D03*
X79010434Y-93275944D03*
X76110434Y-93275944D03*
X79010434Y-84385944D03*
X76110434Y-84385944D03*
X113358000Y-84328000D03*
X116258000Y-84328000D03*
X113358000Y-93218000D03*
X116258000Y-93218000D03*
X113358000Y-97028000D03*
X116258000Y-97028000D03*
X113358000Y-105918000D03*
X116258000Y-105918000D03*
D14*
X95093654Y-84074874D03*
X95093654Y-82174874D03*
D15*
X92995654Y-85918874D03*
X91095654Y-85918874D03*
D14*
X83355647Y-83970559D03*
X83355647Y-85870559D03*
D15*
X85453647Y-82192559D03*
X87353647Y-82192559D03*
D14*
X94723444Y-108278058D03*
X94723444Y-106378058D03*
D15*
X92691444Y-110122058D03*
X90791444Y-110122058D03*
D14*
X83363467Y-108803357D03*
X83363467Y-110703357D03*
D15*
X85461467Y-106959357D03*
X87361467Y-106959357D03*
D16*
X93145654Y-84074874D03*
X93145654Y-82174874D03*
X90945654Y-83124874D03*
X85303647Y-84036559D03*
X85303647Y-85936559D03*
X87503647Y-84986559D03*
X92859444Y-108278058D03*
X92859444Y-106378058D03*
X90659444Y-107328058D03*
X85311467Y-108803357D03*
X85311467Y-110703357D03*
X87511467Y-109753357D03*
D17*
X118900000Y-104800000D03*
X118900000Y-105600000D03*
X118872000Y-98190000D03*
X118872000Y-97390000D03*
X118900000Y-92100000D03*
X118900000Y-92900000D03*
X118872000Y-85490000D03*
X118872000Y-84690000D03*
X117600000Y-105600000D03*
X117600000Y-104800000D03*
X117602000Y-97390000D03*
X117602000Y-98190000D03*
X117600000Y-92900000D03*
X117600000Y-92100000D03*
X117602000Y-84690000D03*
X117602000Y-85490000D03*
X73500000Y-85500000D03*
X73500000Y-84700000D03*
X73496434Y-92113944D03*
X73496434Y-92913944D03*
X73500000Y-98300000D03*
X73500000Y-97500000D03*
X73469268Y-104869844D03*
X73469268Y-105669844D03*
X74700000Y-84700000D03*
X74700000Y-85500000D03*
X74766434Y-92913944D03*
X74766434Y-92113944D03*
X74700000Y-97500000D03*
X74700000Y-98300000D03*
X74739268Y-105669844D03*
X74739268Y-104869844D03*
D18*
X89858000Y-90678000D03*
X89858000Y-99878000D03*
X91128000Y-90678000D03*
X91128000Y-99878000D03*
X92398000Y-90678000D03*
X92398000Y-99878000D03*
X93668000Y-90678000D03*
X93668000Y-99878000D03*
X94938000Y-90678000D03*
X94938000Y-99878000D03*
X96208000Y-90678000D03*
X96208000Y-99878000D03*
X97478000Y-90678000D03*
X97478000Y-99878000D03*
X98748000Y-90678000D03*
X98748000Y-99878000D03*
X100018000Y-90678000D03*
X100018000Y-99878000D03*
X101288000Y-90678000D03*
X101288000Y-99878000D03*
X102558000Y-90678000D03*
X102558000Y-99878000D03*
X103828000Y-90678000D03*
X103828000Y-99878000D03*
D19*
X120650000Y-102886000D03*
X120650000Y-104786000D03*
X120650000Y-101330000D03*
X120650000Y-99430000D03*
X120650000Y-90186000D03*
X120650000Y-92086000D03*
X120650000Y-88630000D03*
X120650000Y-86730000D03*
X71718434Y-87417944D03*
X71718434Y-85517944D03*
X71718434Y-88973944D03*
X71718434Y-90873944D03*
D20*
X89646000Y-102616000D03*
X87746000Y-102616000D03*
X91202000Y-102616000D03*
X93102000Y-102616000D03*
D19*
X71691268Y-100173844D03*
X71691268Y-98273844D03*
X71691268Y-101729844D03*
X71691268Y-103629844D03*
D21*
X113088000Y-99568000D03*
X113088000Y-100838000D03*
X113088000Y-102108000D03*
X113088000Y-103378000D03*
X118618000Y-103378000D03*
X118618000Y-102108000D03*
X118618000Y-100838000D03*
X118618000Y-99568000D03*
X113088000Y-86868000D03*
X113088000Y-88138000D03*
X113088000Y-89408000D03*
X113088000Y-90678000D03*
X118618000Y-90678000D03*
X118618000Y-89408000D03*
X118618000Y-88138000D03*
X118618000Y-86868000D03*
X79280434Y-90735944D03*
X79280434Y-89465944D03*
X79280434Y-88195944D03*
X79280434Y-86925944D03*
X73750434Y-86925944D03*
X73750434Y-88195944D03*
X73750434Y-89465944D03*
X73750434Y-90735944D03*
X79253268Y-103491844D03*
X79253268Y-102221844D03*
X79253268Y-100951844D03*
X79253268Y-99681844D03*
X73723268Y-99681844D03*
X73723268Y-100951844D03*
X73723268Y-102221844D03*
X73723268Y-103491844D03*
D22*
X76100000Y-112200000D03*
X76100000Y-113000000D03*
X76100000Y-111400000D03*
X93800000Y-111200000D03*
X85300000Y-105600000D03*
X91200000Y-98000000D03*
X93000000Y-87500000D03*
X82100000Y-82200000D03*
X77900000Y-90700000D03*
X74700000Y-82600000D03*
X74766434Y-95300000D03*
X74700000Y-107800000D03*
X72600000Y-88195944D03*
X75300000Y-90700000D03*
X80691844Y-103491844D03*
X75200000Y-103500000D03*
X72636424Y-100900000D03*
X97000000Y-112000000D03*
X115700000Y-112000000D03*
X115700000Y-112700000D03*
X115700000Y-111200000D03*
X111700000Y-86900000D03*
X117200000Y-86900000D03*
X117600000Y-82400000D03*
X119800000Y-89408000D03*
X118300000Y-95100000D03*
X114600000Y-99600000D03*
X117200000Y-99400000D03*
X119800000Y-102108000D03*
X117600000Y-108200000D03*
X94700000Y-107400000D03*
X81800000Y-108100000D03*
X96700000Y-84800000D03*
X81500000Y-86000000D03*
X92900000Y-112200000D03*
X88700000Y-105600000D03*
X88700000Y-100800000D03*
X90600000Y-105700000D03*
X92100000Y-101400000D03*
X116800000Y-112800000D03*
X116800000Y-111200000D03*
X116800000Y-112000000D03*
X75000000Y-113000000D03*
X75000000Y-111400000D03*
X75000000Y-112200000D03*
X111700000Y-90100000D03*
X119900000Y-85500000D03*
X120000000Y-93200000D03*
X114500000Y-102100000D03*
X119900000Y-98200000D03*
X119836000Y-105600000D03*
X87600000Y-101000000D03*
X93700000Y-98000000D03*
X93700000Y-92500000D03*
X77900000Y-88200000D03*
X72400000Y-84200000D03*
X72300000Y-92600000D03*
X71700000Y-96900000D03*
X72100000Y-105200000D03*
X77800000Y-100900000D03*
X95000000Y-112000000D03*
X83800000Y-91200000D03*
X83800000Y-103000000D03*
X83800000Y-105500000D03*
X85388941Y-88911059D03*
X88100000Y-83700000D03*
X86700000Y-83700000D03*
X86400000Y-89900000D03*
X84500000Y-91800000D03*
X86311468Y-102911468D03*
X86311468Y-105600000D03*
X96668361Y-106456809D03*
X95816130Y-103385256D03*
X99265969Y-105546923D03*
X98884213Y-103495954D03*
X101567913Y-105582652D03*
X101389950Y-104210472D03*
X99955864Y-106109210D03*
X102300000Y-111600000D03*
X99800000Y-102900000D03*
X99500000Y-95600000D03*
X95686000Y-92500000D03*
X100677923Y-105588873D03*
X98770332Y-92414373D03*
X100300000Y-94800000D03*
X100500000Y-104200000D03*
X103600000Y-112100000D03*
X98379952Y-105631158D03*
X97994216Y-103501216D03*
X98066414Y-93778596D03*
X98100000Y-95500000D03*
X100900000Y-112100000D03*
X97490012Y-105619856D03*
X96704205Y-103443935D03*
X99500000Y-112100000D03*
X96900000Y-95800000D03*
X96938795Y-94189290D03*
X102306000Y-93000000D03*
X91915679Y-112199509D03*
X96200000Y-105600000D03*
X94900000Y-103400000D03*
X92400000Y-95300000D03*
X92400000Y-92500000D03*
X90000000Y-112100000D03*
X86256091Y-112043909D03*
D23*
X78300000Y-112200000D02*
X76100000Y-112200000D01*
X76900000Y-112200000D02*
X76100000Y-113000000D01*
X78300000Y-112200000D02*
X76900000Y-112200000D01*
X76900000Y-112200000D02*
X76100000Y-111400000D01*
X92691444Y-110122058D02*
X92722058Y-110122058D01*
X92722058Y-110122058D02*
X93800000Y-111200000D01*
X85461467Y-106959357D02*
X85461467Y-105761467D01*
X85461467Y-105761467D02*
X85300000Y-105600000D01*
X91128000Y-99878000D02*
X91128000Y-102542000D01*
X91128000Y-102542000D02*
X91202000Y-102616000D01*
X89646000Y-102616000D02*
X91202000Y-102616000D01*
X91128000Y-99878000D02*
X91128000Y-98072000D01*
X91128000Y-98072000D02*
X91200000Y-98000000D01*
X92995654Y-85918874D02*
X92995654Y-87495654D01*
X92995654Y-87495654D02*
X93000000Y-87500000D01*
X85453647Y-82192559D02*
X82107441Y-82192559D01*
X82107441Y-82192559D02*
X82100000Y-82200000D01*
X79280434Y-90735944D02*
X77935944Y-90735944D01*
X77935944Y-90735944D02*
X77900000Y-90700000D01*
X74700000Y-84700000D02*
X74700000Y-82600000D01*
X74766434Y-95300000D02*
X74766434Y-93933566D01*
X74766434Y-96858566D02*
X74766434Y-95300000D01*
X74700000Y-97500000D02*
X74700000Y-96925000D01*
X74700000Y-96925000D02*
X74766434Y-96858566D01*
X74739268Y-105669844D02*
X74739268Y-107760732D01*
X74739268Y-107760732D02*
X74700000Y-107800000D01*
X74766434Y-92913944D02*
X74766434Y-93933566D01*
X72600000Y-88195944D02*
X71722490Y-88195944D01*
X73750434Y-88195944D02*
X72600000Y-88195944D01*
X71718434Y-87417944D02*
X71718434Y-88200000D01*
X71718434Y-88200000D02*
X71718434Y-88973944D01*
X71722490Y-88195944D02*
X71718434Y-88200000D01*
X73750434Y-90735944D02*
X75264056Y-90735944D01*
X75264056Y-90735944D02*
X75300000Y-90700000D01*
X79253268Y-103491844D02*
X80691844Y-103491844D01*
X73723268Y-103491844D02*
X75191844Y-103491844D01*
X75191844Y-103491844D02*
X75200000Y-103500000D01*
X73723268Y-100951844D02*
X72688268Y-100951844D01*
X72688268Y-100951844D02*
X72636424Y-100900000D01*
X71691268Y-100173844D02*
X71691268Y-100900000D01*
X72636424Y-100900000D02*
X71691268Y-100900000D01*
X71691268Y-100900000D02*
X71691268Y-101729844D01*
X97000000Y-115000000D02*
X97000000Y-112000000D01*
X113500000Y-112000000D02*
X115700000Y-112000000D01*
X113500000Y-112000000D02*
X115000000Y-112000000D01*
X115000000Y-112000000D02*
X115700000Y-112700000D01*
X113500000Y-112000000D02*
X114900000Y-112000000D01*
X114900000Y-112000000D02*
X115700000Y-111200000D01*
X113088000Y-86868000D02*
X111732000Y-86868000D01*
X111732000Y-86868000D02*
X111700000Y-86900000D01*
X118618000Y-86868000D02*
X117232000Y-86868000D01*
X117232000Y-86868000D02*
X117200000Y-86900000D01*
X117602000Y-84690000D02*
X117602000Y-82402000D01*
X117602000Y-82402000D02*
X117600000Y-82400000D01*
X118618000Y-89408000D02*
X119800000Y-89408000D01*
X120650000Y-89400000D02*
X119808000Y-89400000D01*
X119808000Y-89400000D02*
X119800000Y-89408000D01*
X120650000Y-90186000D02*
X120650000Y-89400000D01*
X120650000Y-89400000D02*
X120650000Y-88630000D01*
X117602000Y-97390000D02*
X117602000Y-95798000D01*
X117602000Y-95798000D02*
X118300000Y-95100000D01*
X117600000Y-92900000D02*
X117600000Y-94400000D01*
X117600000Y-94400000D02*
X118300000Y-95100000D01*
X113088000Y-99568000D02*
X114568000Y-99568000D01*
X114568000Y-99568000D02*
X114600000Y-99600000D01*
X118618000Y-99568000D02*
X117368000Y-99568000D01*
X117368000Y-99568000D02*
X117200000Y-99400000D01*
X118618000Y-102108000D02*
X119800000Y-102108000D01*
X119808000Y-102100000D02*
X119800000Y-102108000D01*
X120650000Y-102100000D02*
X119808000Y-102100000D01*
X120650000Y-101330000D02*
X120650000Y-102100000D01*
X120650000Y-102100000D02*
X120650000Y-102886000D01*
X117600000Y-105600000D02*
X117600000Y-108200000D01*
X94723444Y-108278058D02*
X94723444Y-107423444D01*
X94723444Y-107423444D02*
X94700000Y-107400000D01*
X83363467Y-108803357D02*
X82503357Y-108803357D01*
X82503357Y-108803357D02*
X81800000Y-108100000D01*
X92859444Y-108278058D02*
X94723444Y-108278058D01*
X83363467Y-108803357D02*
X85311467Y-108803357D01*
X95093654Y-84074874D02*
X95974874Y-84074874D01*
X95974874Y-84074874D02*
X96700000Y-84800000D01*
X93145654Y-84074874D02*
X95093654Y-84074874D01*
X83355647Y-83970559D02*
X83355647Y-84144353D01*
X83355647Y-84144353D02*
X81500000Y-86000000D01*
X83355647Y-83970559D02*
X85237647Y-83970559D01*
X85237647Y-83970559D02*
X85303647Y-84036559D01*
X91920000Y-115000000D02*
X91920000Y-113750000D01*
X92900000Y-112770000D02*
X92900000Y-112200000D01*
X91920000Y-113750000D02*
X92900000Y-112770000D01*
D24*
X75221844Y-102221844D02*
X76083268Y-103083268D01*
X76083268Y-103083268D02*
X76083268Y-106031844D01*
X73723268Y-102221844D02*
X75221844Y-102221844D01*
X74739268Y-104869844D02*
X75239268Y-104869844D01*
X75239268Y-104869844D02*
X76083268Y-105713844D01*
X76083268Y-105713844D02*
X76083268Y-106031844D01*
X73469268Y-104869844D02*
X74739268Y-104869844D01*
X74739268Y-98303844D02*
X75239268Y-98303844D01*
X75239268Y-98303844D02*
X76083268Y-97459844D01*
X76083268Y-97459844D02*
X76083268Y-97141844D01*
X73469268Y-98303844D02*
X74739268Y-98303844D01*
X73723268Y-99681844D02*
X73723268Y-98557844D01*
X73723268Y-98557844D02*
X73469268Y-98303844D01*
X76110434Y-91825944D02*
X76110434Y-93275944D01*
X76110434Y-90555830D02*
X76110434Y-91825944D01*
X75020548Y-89465944D02*
X76110434Y-90555830D01*
X73750434Y-89465944D02*
X75020548Y-89465944D01*
X74766434Y-92113944D02*
X73496434Y-92113944D01*
X76110434Y-93275944D02*
X76110434Y-92475944D01*
X76110434Y-92475944D02*
X75748434Y-92113944D01*
X75748434Y-92113944D02*
X75266434Y-92113944D01*
X75266434Y-92113944D02*
X74766434Y-92113944D01*
X74766434Y-85547944D02*
X75266434Y-85547944D01*
X75266434Y-85547944D02*
X76110434Y-84703944D01*
X76110434Y-84703944D02*
X76110434Y-84385944D01*
X73496434Y-85547944D02*
X74766434Y-85547944D01*
X73750434Y-86925944D02*
X73750434Y-85801944D01*
X73750434Y-85801944D02*
X73496434Y-85547944D01*
X116258000Y-85778000D02*
X116258000Y-84328000D01*
X117483396Y-88138000D02*
X116258000Y-86912604D01*
X116258000Y-86912604D02*
X116258000Y-85778000D01*
X118618000Y-88138000D02*
X117483396Y-88138000D01*
X117602000Y-85490000D02*
X117102000Y-85490000D01*
X117102000Y-85490000D02*
X116258000Y-84646000D01*
X116258000Y-84646000D02*
X116258000Y-84328000D01*
X118872000Y-85490000D02*
X117602000Y-85490000D01*
X117600000Y-92100000D02*
X117376000Y-92100000D01*
X117376000Y-92100000D02*
X116258000Y-93218000D01*
X118900000Y-92100000D02*
X117600000Y-92100000D01*
X118618000Y-90678000D02*
X118618000Y-91818000D01*
X118618000Y-91818000D02*
X118900000Y-92100000D01*
X118618000Y-100838000D02*
X117683000Y-100838000D01*
X117683000Y-100838000D02*
X116258000Y-99413000D01*
X116258000Y-99413000D02*
X116258000Y-98478000D01*
X116258000Y-98478000D02*
X116258000Y-97028000D01*
X117602000Y-98190000D02*
X117102000Y-98190000D01*
X117102000Y-98190000D02*
X116258000Y-97346000D01*
X116258000Y-97346000D02*
X116258000Y-97028000D01*
X118872000Y-98190000D02*
X117602000Y-98190000D01*
X117600000Y-104800000D02*
X117376000Y-104800000D01*
X117376000Y-104800000D02*
X116258000Y-105918000D01*
X118900000Y-104800000D02*
X117600000Y-104800000D01*
X118900000Y-104800000D02*
X118900000Y-103660000D01*
X118900000Y-103660000D02*
X118618000Y-103378000D01*
X87361467Y-106959357D02*
X87361467Y-109603357D01*
X87361467Y-109603357D02*
X87511467Y-109753357D01*
X88700000Y-105600000D02*
X88700000Y-105620824D01*
X88700000Y-105620824D02*
X87361467Y-106959357D01*
X88700000Y-100536000D02*
X88700000Y-100800000D01*
X89858000Y-99878000D02*
X89358000Y-99878000D01*
X89358000Y-99878000D02*
X88700000Y-100536000D01*
X90659444Y-107328058D02*
X90659444Y-109990058D01*
X90659444Y-109990058D02*
X90791444Y-110122058D01*
X90600000Y-105700000D02*
X90600000Y-107268614D01*
X90600000Y-107268614D02*
X90659444Y-107328058D01*
X92398000Y-99878000D02*
X92398000Y-101102000D01*
X92398000Y-101102000D02*
X92100000Y-101400000D01*
X87353647Y-82192559D02*
X87353647Y-84836559D01*
X87353647Y-84836559D02*
X87503647Y-84986559D01*
X89858000Y-90678000D02*
X89858000Y-87140912D01*
X89858000Y-87140912D02*
X87703647Y-84986559D01*
X87703647Y-84986559D02*
X87503647Y-84986559D01*
X91095654Y-85918874D02*
X91095654Y-83274874D01*
X91095654Y-83274874D02*
X90945654Y-83124874D01*
X91128000Y-90678000D02*
X91128000Y-85951220D01*
X91128000Y-85951220D02*
X91095654Y-85918874D01*
X82010147Y-103654965D02*
X79633268Y-106031844D01*
X84651671Y-103699967D02*
X84606669Y-103654965D01*
X93600033Y-103699967D02*
X84651671Y-103699967D01*
X84606669Y-103654965D02*
X82010147Y-103654965D01*
X94938000Y-99878000D02*
X94938000Y-102362000D01*
X94938000Y-102362000D02*
X93600033Y-103699967D01*
X79633268Y-106031844D02*
X78983268Y-106031844D01*
X78100011Y-107300011D02*
X78100011Y-102254615D01*
X78900000Y-108100000D02*
X78100011Y-107300011D01*
X77154998Y-100590398D02*
X78100011Y-99645385D01*
X78100011Y-102254615D02*
X77154998Y-101309602D01*
X97349215Y-103191615D02*
X97349215Y-103950785D01*
X97211055Y-104088945D02*
X94823581Y-104088945D01*
X84485982Y-104099978D02*
X84440980Y-104054976D01*
X97478000Y-99878000D02*
X97478000Y-103062830D01*
X78100011Y-98825101D02*
X78983268Y-97941844D01*
X83159020Y-104054976D02*
X79113996Y-108100000D01*
X97478000Y-103062830D02*
X97349215Y-103191615D01*
X79113996Y-108100000D02*
X78900000Y-108100000D01*
X78983268Y-97941844D02*
X78983268Y-97141844D01*
X94823581Y-104088945D02*
X94812548Y-104099978D01*
X97349215Y-103950785D02*
X97211055Y-104088945D01*
X77154998Y-101309602D02*
X77154998Y-100590398D01*
X94812548Y-104099978D02*
X84485982Y-104099978D01*
X78100011Y-99645385D02*
X78100011Y-98825101D01*
X84440980Y-104054976D02*
X83159020Y-104054976D01*
X78745722Y-108600000D02*
X77700000Y-107554278D01*
X100018000Y-102163396D02*
X100445002Y-102590398D01*
X83324709Y-104454987D02*
X79179696Y-108600000D01*
X94978237Y-104499989D02*
X84320293Y-104499989D01*
X94989270Y-104488956D02*
X94978237Y-104499989D01*
X77700000Y-99479696D02*
X77700000Y-96036378D01*
X79179696Y-108600000D02*
X78745722Y-108600000D01*
X100018000Y-99878000D02*
X100018000Y-102163396D01*
X99156442Y-104488956D02*
X94989270Y-104488956D01*
X84320293Y-104499989D02*
X84275291Y-104454987D01*
X84275291Y-104454987D02*
X83324709Y-104454987D01*
X76754987Y-100424709D02*
X77700000Y-99479696D01*
X77700000Y-96036378D02*
X79010434Y-94725944D01*
X100445002Y-102590398D02*
X100445002Y-103200396D01*
X100445002Y-103200396D02*
X99156442Y-104488956D01*
X77700000Y-102420304D02*
X76754987Y-101475291D01*
X76754987Y-101475291D02*
X76754987Y-100424709D01*
X79010434Y-94725944D02*
X79010434Y-93275944D01*
X77700000Y-107554278D02*
X77700000Y-102420304D01*
X95143926Y-104900000D02*
X84154604Y-104900000D01*
X95154959Y-104888967D02*
X95143926Y-104900000D01*
X77200000Y-102486004D02*
X76354976Y-101640980D01*
X102558000Y-104442000D02*
X102111033Y-104888967D01*
X77200000Y-99413996D02*
X77200000Y-86996378D01*
X78580033Y-109000011D02*
X77200000Y-107619978D01*
X83490398Y-104854998D02*
X79345385Y-109000011D01*
X77200000Y-107619978D02*
X77200000Y-102486004D01*
X79010434Y-85185944D02*
X79010434Y-84385944D01*
X84154604Y-104900000D02*
X84109602Y-104854998D01*
X102111033Y-104888967D02*
X95154959Y-104888967D01*
X102558000Y-99878000D02*
X102558000Y-104442000D01*
X79345385Y-109000011D02*
X78580033Y-109000011D01*
X76354976Y-101640980D02*
X76354976Y-100259020D01*
X76354976Y-100259020D02*
X77200000Y-99413996D01*
X84109602Y-104854998D02*
X83490398Y-104854998D01*
X77200000Y-86996378D02*
X79010434Y-85185944D01*
X102558000Y-90678000D02*
X102558000Y-89378000D01*
X102558000Y-89378000D02*
X107608000Y-84328000D01*
X107608000Y-84328000D02*
X113358000Y-84328000D01*
X106000000Y-82600000D02*
X100018000Y-88582000D01*
X100018000Y-88582000D02*
X100018000Y-90678000D01*
X113870002Y-82600000D02*
X106000000Y-82600000D01*
X114300000Y-92926000D02*
X114300000Y-83029998D01*
X114300000Y-83029998D02*
X113870002Y-82600000D01*
X113358000Y-93218000D02*
X114008000Y-93218000D01*
X114008000Y-93218000D02*
X114300000Y-92926000D01*
X103900000Y-82200000D02*
X97478000Y-88622000D01*
X97478000Y-88622000D02*
X97478000Y-90678000D01*
X114100000Y-82200000D02*
X103900000Y-82200000D01*
X114700000Y-82800000D02*
X114100000Y-82200000D01*
X114700000Y-96336000D02*
X114700000Y-82800000D01*
X113358000Y-97028000D02*
X114008000Y-97028000D01*
X114008000Y-97028000D02*
X114700000Y-96336000D01*
X94938000Y-89878000D02*
X94938000Y-90678000D01*
X114100000Y-81600000D02*
X103216000Y-81600000D01*
X115100000Y-82600000D02*
X114100000Y-81600000D01*
X115245002Y-103230998D02*
X115245002Y-99290398D01*
X115100000Y-99145396D02*
X115100000Y-82600000D01*
X115245002Y-99290398D02*
X115100000Y-99145396D01*
X113358000Y-105118000D02*
X115245002Y-103230998D01*
X113358000Y-105918000D02*
X113358000Y-105118000D01*
X103216000Y-81600000D02*
X94938000Y-89878000D01*
D23*
X117600000Y-112000000D02*
X116800000Y-112800000D01*
X118900000Y-112000000D02*
X117600000Y-112000000D01*
X117600000Y-112000000D02*
X116800000Y-111200000D01*
X118900000Y-112000000D02*
X116800000Y-112000000D01*
X74200000Y-112200000D02*
X75000000Y-113000000D01*
X72900000Y-112200000D02*
X74200000Y-112200000D01*
X74200000Y-112200000D02*
X75000000Y-111400000D01*
X72900000Y-112200000D02*
X75000000Y-112200000D01*
X112392000Y-89408000D02*
X111700000Y-90100000D01*
X113088000Y-89408000D02*
X112392000Y-89408000D01*
X118872000Y-84690000D02*
X119577903Y-84690000D01*
X119577903Y-84690000D02*
X119900000Y-85012097D01*
X119900000Y-85012097D02*
X119900000Y-85500000D01*
X120650000Y-86730000D02*
X120650000Y-86250000D01*
X120650000Y-86250000D02*
X119900000Y-85500000D01*
X119000000Y-92900000D02*
X119500000Y-92900000D01*
X119500000Y-92900000D02*
X119700000Y-92900000D01*
X118900000Y-92900000D02*
X119500000Y-92900000D01*
X119700000Y-92900000D02*
X120000000Y-93200000D01*
X120650000Y-92086000D02*
X120650000Y-92550000D01*
X120650000Y-92550000D02*
X120000000Y-93200000D01*
X113088000Y-102108000D02*
X114492000Y-102108000D01*
X114492000Y-102108000D02*
X114500000Y-102100000D01*
X118872000Y-97390000D02*
X119577903Y-97390000D01*
X119577903Y-97390000D02*
X119900000Y-97712097D01*
X119900000Y-97712097D02*
X119900000Y-98200000D01*
X120650000Y-99430000D02*
X120650000Y-98950000D01*
X120650000Y-98950000D02*
X119900000Y-98200000D01*
X120650000Y-104786000D02*
X119836000Y-105600000D01*
X119836000Y-105600000D02*
X118900000Y-105600000D01*
X87746000Y-102616000D02*
X87746000Y-101146000D01*
X87746000Y-101146000D02*
X87600000Y-101000000D01*
X93102000Y-102398000D02*
X93668000Y-101832000D01*
X93668000Y-101832000D02*
X93668000Y-99878000D01*
X93102000Y-102616000D02*
X93102000Y-102398000D01*
X93668000Y-99878000D02*
X93668000Y-98032000D01*
X93668000Y-98032000D02*
X93700000Y-98000000D01*
X93668000Y-90678000D02*
X93668000Y-92468000D01*
X93668000Y-92468000D02*
X93700000Y-92500000D01*
X79280434Y-88195944D02*
X77904056Y-88195944D01*
X77904056Y-88195944D02*
X77900000Y-88200000D01*
X73500000Y-84700000D02*
X72536378Y-84700000D01*
X72536378Y-84700000D02*
X71718434Y-85517944D01*
X73500000Y-97500000D02*
X72465112Y-97500000D01*
X72465112Y-97500000D02*
X71691268Y-98273844D01*
X71718434Y-85517944D02*
X71718434Y-84881566D01*
X71718434Y-84881566D02*
X72400000Y-84200000D01*
X73496434Y-92913944D02*
X72613944Y-92913944D01*
X72613944Y-92913944D02*
X72300000Y-92600000D01*
X71718434Y-90873944D02*
X71718434Y-92018434D01*
X71718434Y-92018434D02*
X72300000Y-92600000D01*
X71700000Y-97515112D02*
X71700000Y-96900000D01*
X71691268Y-98273844D02*
X71691268Y-97523844D01*
X71691268Y-97523844D02*
X71700000Y-97515112D01*
X73469268Y-105669844D02*
X72569844Y-105669844D01*
X72569844Y-105669844D02*
X72100000Y-105200000D01*
X71691268Y-104791268D02*
X72100000Y-105200000D01*
X71691268Y-103629844D02*
X71691268Y-104791268D01*
X79253268Y-100951844D02*
X77851844Y-100951844D01*
X77851844Y-100951844D02*
X77800000Y-100900000D01*
X95000000Y-112410000D02*
X95000000Y-112000000D01*
X94460000Y-115000000D02*
X94460000Y-112950000D01*
X94460000Y-112950000D02*
X95000000Y-112410000D01*
D24*
X83455001Y-105844999D02*
X83800000Y-105500000D01*
X83100397Y-105844999D02*
X83455001Y-105844999D01*
X81154998Y-110014998D02*
X81154998Y-107790398D01*
X86140000Y-115000000D02*
X81154998Y-110014998D01*
X86840000Y-115000000D02*
X86140000Y-115000000D01*
X81154998Y-107790398D02*
X83100397Y-105844999D01*
X83800000Y-103000000D02*
X83800000Y-91200000D01*
X85303647Y-88825765D02*
X85388941Y-88911059D01*
X85303647Y-85936559D02*
X85303647Y-88825765D01*
X85303647Y-85936559D02*
X83421647Y-85936559D01*
X83421647Y-85936559D02*
X83355647Y-85870559D01*
X88100000Y-83700000D02*
X89625126Y-82174874D01*
X89625126Y-82174874D02*
X93145654Y-82174874D01*
X86700000Y-84100000D02*
X86700000Y-83700000D01*
X86400000Y-89900000D02*
X86400000Y-84400000D01*
X86400000Y-84400000D02*
X86700000Y-84100000D01*
X84500000Y-100612097D02*
X84500000Y-91800000D01*
X86311468Y-102911468D02*
X86311468Y-102423565D01*
X86311468Y-102423565D02*
X84500000Y-100612097D01*
X86311468Y-110293360D02*
X86311468Y-105600000D01*
X88600000Y-112270000D02*
X88288108Y-112270000D01*
X88288108Y-112270000D02*
X86311468Y-110293360D01*
X93145654Y-82174874D02*
X95093654Y-82174874D01*
X92770780Y-81800000D02*
X93145654Y-82174874D01*
X89380000Y-115000000D02*
X89380000Y-113050000D01*
X89380000Y-113050000D02*
X88600000Y-112270000D01*
X99540000Y-113750000D02*
X98840000Y-113050000D01*
X96208000Y-99878000D02*
X96208000Y-102993386D01*
X99540000Y-115000000D02*
X99540000Y-113750000D01*
X96208000Y-102993386D02*
X95816130Y-103385256D01*
X96668361Y-110178361D02*
X96668361Y-106456809D01*
X98840000Y-113050000D02*
X98840000Y-112350000D01*
X98840000Y-112350000D02*
X96668361Y-110178361D01*
X96208000Y-98578000D02*
X96208000Y-99878000D01*
X102726699Y-93645001D02*
X99934695Y-93645001D01*
X98745396Y-94834300D02*
X96765700Y-94834300D01*
X108233700Y-88138000D02*
X102726699Y-93645001D01*
X96200000Y-95400000D02*
X96200000Y-98570000D01*
X113088000Y-88138000D02*
X108233700Y-88138000D01*
X99934695Y-93645001D02*
X98745396Y-94834300D01*
X96765700Y-94834300D02*
X96200000Y-95400000D01*
X96200000Y-98570000D02*
X96208000Y-98578000D01*
X96208000Y-99878000D02*
X96208000Y-99078000D01*
X98748000Y-98578000D02*
X98748000Y-99878000D01*
X98748000Y-95397396D02*
X98748000Y-98578000D01*
X100100384Y-94045012D02*
X98748000Y-95397396D01*
X102954988Y-94045012D02*
X100100384Y-94045012D01*
X106322000Y-90678000D02*
X102954988Y-94045012D01*
X111848396Y-91203000D02*
X111323396Y-90678000D01*
X112678000Y-90678000D02*
X112153000Y-91203000D01*
X112153000Y-91203000D02*
X111848396Y-91203000D01*
X113088000Y-90678000D02*
X112678000Y-90678000D01*
X111323396Y-90678000D02*
X106322000Y-90678000D01*
X102080000Y-112325398D02*
X99265969Y-109511367D01*
X99265969Y-109511367D02*
X99265969Y-105546923D01*
X102080000Y-115000000D02*
X102080000Y-112325398D01*
X98748000Y-103359741D02*
X98884213Y-103495954D01*
X98748000Y-99878000D02*
X98748000Y-103359741D01*
X104620000Y-115000000D02*
X104620000Y-112165398D01*
X101567913Y-109113311D02*
X101567913Y-105582652D01*
X104620000Y-112165398D02*
X101567913Y-109113311D01*
X101288000Y-99878000D02*
X101288000Y-104108522D01*
X101288000Y-104108522D02*
X101389950Y-104210472D01*
X101288000Y-96312000D02*
X101288000Y-99878000D01*
X113088000Y-100838000D02*
X112678000Y-100838000D01*
X111700000Y-99860000D02*
X111700000Y-92700000D01*
X106500000Y-91100000D02*
X101288000Y-96312000D01*
X110100000Y-91100000D02*
X106500000Y-91100000D01*
X111700000Y-92700000D02*
X110100000Y-91100000D01*
X112678000Y-100838000D02*
X111700000Y-99860000D01*
X103828000Y-110418000D02*
X103828000Y-99878000D01*
X107160000Y-113750000D02*
X103828000Y-110418000D01*
X107160000Y-115000000D02*
X107160000Y-113750000D01*
X106700000Y-91600000D02*
X103828000Y-94472000D01*
X103828000Y-94472000D02*
X103828000Y-99878000D01*
X110000000Y-91600000D02*
X106700000Y-91600000D01*
X111300000Y-92900000D02*
X110000000Y-91600000D01*
X111300000Y-102000000D02*
X111300000Y-92900000D01*
X113088000Y-103378000D02*
X112678000Y-103378000D01*
X112678000Y-103378000D02*
X111300000Y-102000000D01*
X102300000Y-111600000D02*
X99955864Y-109255864D01*
X99955864Y-109255864D02*
X99955864Y-106109210D01*
X99417999Y-96169904D02*
X99417999Y-102517999D01*
X99500000Y-95600000D02*
X99500000Y-96087903D01*
X99500000Y-96087903D02*
X99417999Y-96169904D01*
X99417999Y-102517999D02*
X99800000Y-102900000D01*
X95040637Y-93145363D02*
X88711063Y-93145363D01*
X82491644Y-86925944D02*
X79280434Y-86925944D01*
X88711063Y-93145363D02*
X82491644Y-86925944D01*
X95686000Y-92500000D02*
X95040637Y-93145363D01*
X96208000Y-91978000D02*
X95686000Y-92500000D01*
X96208000Y-90678000D02*
X96208000Y-91978000D01*
X103255001Y-111755001D02*
X103255001Y-111600397D01*
X100677923Y-109023319D02*
X100677923Y-105588873D01*
X103255001Y-111600397D02*
X100677923Y-109023319D01*
X103600000Y-112100000D02*
X103255001Y-111755001D01*
X100687999Y-95187999D02*
X100300000Y-94800000D01*
X100687999Y-102267695D02*
X100687999Y-95187999D01*
X100845013Y-103854987D02*
X100845013Y-102424709D01*
X100500000Y-104200000D02*
X100845013Y-103854987D01*
X100845013Y-102424709D02*
X100687999Y-102267695D01*
X88545374Y-93545374D02*
X95579718Y-93545374D01*
X98748000Y-92392041D02*
X98770332Y-92414373D01*
X84465944Y-89465944D02*
X88545374Y-93545374D01*
X96710719Y-92414373D02*
X98770332Y-92414373D01*
X79280434Y-89465944D02*
X84465944Y-89465944D01*
X98748000Y-90678000D02*
X98748000Y-92392041D01*
X95579718Y-93545374D02*
X96710719Y-92414373D01*
X98748000Y-90678000D02*
X98748000Y-91478000D01*
X98800000Y-90626000D02*
X98748000Y-90678000D01*
X98379952Y-109579952D02*
X98379952Y-105631158D01*
X100900000Y-112100000D02*
X98379952Y-109579952D01*
X98100000Y-103395432D02*
X97994216Y-103501216D01*
X98100000Y-95500000D02*
X98100000Y-103395432D01*
X101288000Y-91478000D02*
X100266000Y-92500000D01*
X82434311Y-90099989D02*
X84465689Y-90099989D01*
X100266000Y-92500000D02*
X99654602Y-92500000D01*
X97721415Y-93433597D02*
X98066414Y-93778596D01*
X79253268Y-99681844D02*
X79253268Y-99156844D01*
X80399989Y-92134311D02*
X82434311Y-90099989D01*
X101288000Y-90678000D02*
X101288000Y-91478000D01*
X95745407Y-93945385D02*
X96257195Y-93433597D01*
X80399989Y-98010123D02*
X80399989Y-92134311D01*
X79253268Y-99156844D02*
X80399989Y-98010123D01*
X84465689Y-90099989D02*
X88311085Y-93945385D01*
X88311085Y-93945385D02*
X95745407Y-93945385D01*
X98411413Y-93433597D02*
X98066414Y-93778596D01*
X98721005Y-93433597D02*
X98411413Y-93433597D01*
X96257195Y-93433597D02*
X97721415Y-93433597D01*
X99654602Y-92500000D02*
X98721005Y-93433597D01*
X96877999Y-102782238D02*
X96704205Y-102956032D01*
X96900000Y-95800000D02*
X96900000Y-96287903D01*
X96877999Y-96309904D02*
X96877999Y-102782238D01*
X96704205Y-102956032D02*
X96704205Y-103443935D01*
X96900000Y-96287903D02*
X96877999Y-96309904D01*
X97490012Y-110090012D02*
X97490012Y-105619856D01*
X99500000Y-112100000D02*
X97490012Y-110090012D01*
X98376015Y-94423597D02*
X97661005Y-94423597D01*
X99799612Y-93000000D02*
X98376015Y-94423597D01*
X102306000Y-93000000D02*
X99799612Y-93000000D01*
X97426698Y-94189290D02*
X96938795Y-94189290D01*
X97661005Y-94423597D02*
X97426698Y-94189290D01*
X96105893Y-94534289D02*
X96450892Y-94189290D01*
X84154604Y-90500000D02*
X88188893Y-94534289D01*
X80800000Y-101085112D02*
X80800000Y-92300000D01*
X88188893Y-94534289D02*
X96105893Y-94534289D01*
X80800000Y-92300000D02*
X82600000Y-90500000D01*
X82600000Y-90500000D02*
X84154604Y-90500000D01*
X96450892Y-94189290D02*
X96938795Y-94189290D01*
X79253268Y-102221844D02*
X79663268Y-102221844D01*
X79663268Y-102221844D02*
X80800000Y-101085112D01*
X103828000Y-90678000D02*
X103828000Y-91478000D01*
X103828000Y-91478000D02*
X102306000Y-93000000D01*
X92570186Y-111545002D02*
X92260678Y-111854510D01*
X93190398Y-111545002D02*
X92570186Y-111545002D01*
X93490398Y-111845002D02*
X93190398Y-111545002D01*
X94109602Y-111845002D02*
X93490398Y-111845002D01*
X95855001Y-110099603D02*
X94109602Y-111845002D01*
X96200000Y-105600000D02*
X95855001Y-105944999D01*
X92260678Y-111854510D02*
X91915679Y-112199509D01*
X95855001Y-105944999D02*
X95855001Y-110099603D01*
X95538001Y-102361999D02*
X94900000Y-103000000D01*
X94900000Y-103000000D02*
X94900000Y-103400000D01*
X94344999Y-95644999D02*
X95538001Y-96838001D01*
X95538001Y-96838001D02*
X95538001Y-102361999D01*
X92400000Y-95300000D02*
X92744999Y-95644999D01*
X92744999Y-95644999D02*
X94344999Y-95644999D01*
X92400000Y-91980000D02*
X92400000Y-92500000D01*
X92398000Y-90678000D02*
X92398000Y-91978000D01*
X92398000Y-91978000D02*
X92400000Y-91980000D01*
X92859444Y-106378058D02*
X94723444Y-106378058D01*
X91800000Y-110800000D02*
X91800000Y-107237502D01*
X91800000Y-107237502D02*
X92659444Y-106378058D01*
X92659444Y-106378058D02*
X92859444Y-106378058D01*
X90844999Y-111755001D02*
X91800000Y-110800000D01*
X90000000Y-112100000D02*
X90344999Y-111755001D01*
X90344999Y-111755001D02*
X90844999Y-111755001D01*
X86256091Y-111447981D02*
X86256091Y-112043909D01*
X85311467Y-110703357D02*
X85511467Y-110703357D01*
X85511467Y-110703357D02*
X86256091Y-111447981D01*
X85311467Y-110703357D02*
X83363467Y-110703357D01*
M02*
