G04 #@! TF.FileFunction,Copper,L4,Bot,Mixed*
%FSLAX46Y46*%
G04 Gerber Fmt 4.6, Leading zero omitted, Abs format (unit mm)*
G04 Created by KiCad (PCBNEW 4.0.4-stable) date 12/08/16 20:58:41*
%MOMM*%
%LPD*%
G01*
G04 APERTURE LIST*
%ADD10C,0.100000*%
%ADD11R,1.000000X3.500000*%
%ADD12C,0.690000*%
%ADD13C,0.200000*%
%ADD14C,0.300000*%
%ADD15C,0.254000*%
G04 APERTURE END LIST*
D10*
D11*
X107160000Y-115000000D03*
X104620000Y-115000000D03*
X102080000Y-115000000D03*
X99540000Y-115000000D03*
X97000000Y-115000000D03*
X94460000Y-115000000D03*
X91920000Y-115000000D03*
X89380000Y-115000000D03*
X86840000Y-115000000D03*
D12*
X76100000Y-112200000D03*
X76100000Y-113000000D03*
X76100000Y-111400000D03*
X93800000Y-111200000D03*
X85300000Y-105600000D03*
X91200000Y-98000000D03*
X93000000Y-87500000D03*
X82100000Y-82200000D03*
X77900000Y-90700000D03*
X74700000Y-82600000D03*
X74766434Y-95300000D03*
X74700000Y-107800000D03*
X72600000Y-88195944D03*
X75300000Y-90700000D03*
X80691844Y-103491844D03*
X75200000Y-103500000D03*
X72636424Y-100900000D03*
X97000000Y-112000000D03*
X115700000Y-112000000D03*
X115700000Y-112700000D03*
X115700000Y-111200000D03*
X111700000Y-86900000D03*
X117200000Y-86900000D03*
X117600000Y-82400000D03*
X119800000Y-89408000D03*
X118300000Y-95100000D03*
X114600000Y-99600000D03*
X117200000Y-99400000D03*
X119800000Y-102108000D03*
X117600000Y-108200000D03*
X94700000Y-107400000D03*
X81800000Y-108100000D03*
X96700000Y-84800000D03*
X81500000Y-86000000D03*
X92900000Y-112200000D03*
X88700000Y-105600000D03*
X88700000Y-100800000D03*
X90600000Y-105700000D03*
X92100000Y-101400000D03*
X116800000Y-112800000D03*
X116800000Y-111200000D03*
X116800000Y-112000000D03*
X75000000Y-113000000D03*
X75000000Y-111400000D03*
X75000000Y-112200000D03*
X111700000Y-90100000D03*
X119900000Y-85500000D03*
X120000000Y-93200000D03*
X114500000Y-102100000D03*
X119900000Y-98200000D03*
X119836000Y-105600000D03*
X87600000Y-101000000D03*
X93700000Y-98000000D03*
X93700000Y-92500000D03*
X77900000Y-88200000D03*
X72400000Y-84200000D03*
X72300000Y-92600000D03*
X71700000Y-96900000D03*
X72100000Y-105200000D03*
X77800000Y-100900000D03*
X95000000Y-112000000D03*
X83800000Y-91200000D03*
X83800000Y-103000000D03*
X83800000Y-105500000D03*
X85388941Y-88911059D03*
X88100000Y-83700000D03*
X86700000Y-83700000D03*
X86400000Y-89900000D03*
X84500000Y-91800000D03*
X86311468Y-102911468D03*
X86311468Y-105600000D03*
X96668361Y-106456809D03*
X95816130Y-103385256D03*
X99265969Y-105546923D03*
X98884213Y-103495954D03*
X101567913Y-105582652D03*
X101389950Y-104210472D03*
X99955864Y-106109210D03*
X102300000Y-111600000D03*
X99800000Y-102900000D03*
X99500000Y-95600000D03*
X95686000Y-92500000D03*
X100677923Y-105588873D03*
X98770332Y-92414373D03*
X100300000Y-94800000D03*
X100500000Y-104200000D03*
X103600000Y-112100000D03*
X98379952Y-105631158D03*
X97994216Y-103501216D03*
X98066414Y-93778596D03*
X98100000Y-95500000D03*
X100900000Y-112100000D03*
X97490012Y-105619856D03*
X96704205Y-103443935D03*
X99500000Y-112100000D03*
X96900000Y-95800000D03*
X96938795Y-94189290D03*
X102306000Y-93000000D03*
X91915679Y-112199509D03*
X96200000Y-105600000D03*
X94900000Y-103400000D03*
X92400000Y-95300000D03*
X92400000Y-92500000D03*
X90000000Y-112100000D03*
X86256091Y-112043909D03*
D13*
X88700000Y-100800000D02*
X88700000Y-105600000D01*
X90600000Y-103387903D02*
X90600000Y-105700000D01*
X92100000Y-101400000D02*
X92100000Y-101887903D01*
X92100000Y-101887903D02*
X90600000Y-103387903D01*
D14*
X94460000Y-115000000D02*
X94460000Y-112540000D01*
X94460000Y-112540000D02*
X95000000Y-112000000D01*
D13*
X83800000Y-91200000D02*
X83800000Y-90500000D01*
X83800000Y-90500000D02*
X85388941Y-88911059D01*
X83800000Y-105500000D02*
X83800000Y-103000000D01*
X86700000Y-83700000D02*
X88100000Y-83700000D01*
X84500000Y-91800000D02*
X86400000Y-89900000D01*
X86311468Y-105600000D02*
X86311468Y-102911468D01*
X96845002Y-106280168D02*
X96668361Y-106456809D01*
X96845002Y-105290398D02*
X96845002Y-106280168D01*
X95816130Y-103385256D02*
X95816130Y-104261526D01*
X95816130Y-104261526D02*
X96845002Y-105290398D01*
X98884213Y-105165167D02*
X99265969Y-105546923D01*
X98884213Y-103495954D02*
X98884213Y-105165167D01*
X101389950Y-104210472D02*
X101389950Y-105404689D01*
X101389950Y-105404689D02*
X101567913Y-105582652D01*
X99955864Y-105282214D02*
X99955864Y-106109210D01*
X99800000Y-102900000D02*
X99800000Y-105126350D01*
X99800000Y-105126350D02*
X99955864Y-105282214D01*
X102300000Y-111600000D02*
X102644999Y-111255001D01*
X102644999Y-111255001D02*
X105755001Y-111255001D01*
X105755001Y-111255001D02*
X107200000Y-112700000D01*
X99500000Y-94300000D02*
X99500000Y-95600000D01*
X98200000Y-93000000D02*
X99500000Y-94300000D01*
X96673903Y-93000000D02*
X98200000Y-93000000D01*
X95686000Y-92500000D02*
X96173903Y-92500000D01*
X96173903Y-92500000D02*
X96673903Y-93000000D01*
X107200000Y-113710000D02*
X107200000Y-112700000D01*
X107160000Y-115000000D02*
X107160000Y-113750000D01*
X107160000Y-113750000D02*
X107200000Y-113710000D01*
X100500000Y-104200000D02*
X100500000Y-105410950D01*
X100500000Y-105410950D02*
X100677923Y-105588873D01*
X100300000Y-93944041D02*
X98770332Y-92414373D01*
X100300000Y-94800000D02*
X100300000Y-93944041D01*
X104620000Y-113100000D02*
X104600000Y-113100000D01*
X104600000Y-113100000D02*
X103600000Y-112100000D01*
X104620000Y-115000000D02*
X104620000Y-113100000D01*
X98339215Y-103846215D02*
X98339215Y-105590421D01*
X97994216Y-103501216D02*
X98339215Y-103846215D01*
X98339215Y-105590421D02*
X98379952Y-105631158D01*
X98100000Y-93812182D02*
X98066414Y-93778596D01*
X98100000Y-95500000D02*
X98100000Y-93812182D01*
X102080000Y-115000000D02*
X102080000Y-113750000D01*
X102080000Y-113750000D02*
X100900000Y-112570000D01*
X100900000Y-112570000D02*
X100900000Y-112100000D01*
X97490012Y-104229742D02*
X97490012Y-105619856D01*
X96704205Y-103443935D02*
X97490012Y-104229742D01*
X99540000Y-115000000D02*
X99540000Y-112140000D01*
X99540000Y-112140000D02*
X99500000Y-112100000D01*
X96938795Y-94189290D02*
X96938795Y-95761205D01*
X96938795Y-95761205D02*
X96900000Y-95800000D01*
X91920000Y-115000000D02*
X91920000Y-112203830D01*
X91920000Y-112203830D02*
X91915679Y-112199509D01*
X94900000Y-103400000D02*
X94900000Y-104300000D01*
X94900000Y-104300000D02*
X96200000Y-105600000D01*
X92400000Y-92500000D02*
X92400000Y-95300000D01*
X90000000Y-112430000D02*
X90000000Y-112100000D01*
X89380000Y-115000000D02*
X89380000Y-113050000D01*
X89380000Y-113050000D02*
X90000000Y-112430000D01*
X86840000Y-112627818D02*
X86256091Y-112043909D01*
X86840000Y-115000000D02*
X86840000Y-112627818D01*
D15*
G36*
X81361186Y-81705407D02*
X81228152Y-82025788D01*
X81227849Y-82372690D01*
X81360324Y-82693303D01*
X81605407Y-82938814D01*
X81925788Y-83071848D01*
X82272690Y-83072151D01*
X82593303Y-82939676D01*
X82838814Y-82694593D01*
X82971848Y-82374212D01*
X82972151Y-82027310D01*
X82839676Y-81706697D01*
X82735162Y-81602000D01*
X121398000Y-81602000D01*
X121398000Y-116298000D01*
X108197324Y-116298000D01*
X108197324Y-113250000D01*
X108160577Y-113054706D01*
X108045158Y-112875340D01*
X107869049Y-112755010D01*
X107827000Y-112746495D01*
X107827000Y-112700000D01*
X107779272Y-112460057D01*
X107643356Y-112256644D01*
X106759402Y-111372690D01*
X115927849Y-111372690D01*
X116021840Y-111600164D01*
X115928152Y-111825788D01*
X115927849Y-112172690D01*
X116021840Y-112400164D01*
X115928152Y-112625788D01*
X115927849Y-112972690D01*
X116060324Y-113293303D01*
X116305407Y-113538814D01*
X116625788Y-113671848D01*
X116972690Y-113672151D01*
X117293303Y-113539676D01*
X117538814Y-113294593D01*
X117671848Y-112974212D01*
X117672151Y-112627310D01*
X117578160Y-112399836D01*
X117671848Y-112174212D01*
X117672151Y-111827310D01*
X117578160Y-111599836D01*
X117671848Y-111374212D01*
X117672151Y-111027310D01*
X117539676Y-110706697D01*
X117294593Y-110461186D01*
X116974212Y-110328152D01*
X116627310Y-110327849D01*
X116306697Y-110460324D01*
X116061186Y-110705407D01*
X115928152Y-111025788D01*
X115927849Y-111372690D01*
X106759402Y-111372690D01*
X106198357Y-110811645D01*
X105994944Y-110675729D01*
X105755001Y-110628001D01*
X102644999Y-110628001D01*
X102405056Y-110675729D01*
X102326792Y-110728023D01*
X102127310Y-110727849D01*
X101806697Y-110860324D01*
X101561186Y-111105407D01*
X101437238Y-111403906D01*
X101394593Y-111361186D01*
X101074212Y-111228152D01*
X100727310Y-111227849D01*
X100406697Y-111360324D01*
X100199854Y-111566806D01*
X99994593Y-111361186D01*
X99674212Y-111228152D01*
X99327310Y-111227849D01*
X99006697Y-111360324D01*
X98761186Y-111605407D01*
X98628152Y-111925788D01*
X98627849Y-112272690D01*
X98760324Y-112593303D01*
X98904871Y-112738102D01*
X98844706Y-112749423D01*
X98665340Y-112864842D01*
X98545010Y-113040951D01*
X98502676Y-113250000D01*
X98502676Y-116298000D01*
X98037324Y-116298000D01*
X98037324Y-113250000D01*
X98000577Y-113054706D01*
X97885158Y-112875340D01*
X97709049Y-112755010D01*
X97516918Y-112716102D01*
X97738814Y-112494593D01*
X97871848Y-112174212D01*
X97872151Y-111827310D01*
X97739676Y-111506697D01*
X97494593Y-111261186D01*
X97174212Y-111128152D01*
X96827310Y-111127849D01*
X96506697Y-111260324D01*
X96261186Y-111505407D01*
X96128152Y-111825788D01*
X96127849Y-112172690D01*
X96260324Y-112493303D01*
X96482586Y-112715953D01*
X96304706Y-112749423D01*
X96125340Y-112864842D01*
X96005010Y-113040951D01*
X95962676Y-113250000D01*
X95962676Y-116298000D01*
X95497324Y-116298000D01*
X95497324Y-113250000D01*
X95460577Y-113054706D01*
X95345158Y-112875340D01*
X95277256Y-112828945D01*
X95493303Y-112739676D01*
X95738814Y-112494593D01*
X95871848Y-112174212D01*
X95872151Y-111827310D01*
X95739676Y-111506697D01*
X95494593Y-111261186D01*
X95174212Y-111128152D01*
X94827310Y-111127849D01*
X94672007Y-111192019D01*
X94672151Y-111027310D01*
X94539676Y-110706697D01*
X94294593Y-110461186D01*
X93974212Y-110328152D01*
X93627310Y-110327849D01*
X93306697Y-110460324D01*
X93061186Y-110705407D01*
X92928152Y-111025788D01*
X92927849Y-111372690D01*
X93060324Y-111693303D01*
X93305407Y-111938814D01*
X93625788Y-112071848D01*
X93972690Y-112072151D01*
X93974543Y-112071385D01*
X93834534Y-112280923D01*
X93783000Y-112540000D01*
X93783000Y-112745981D01*
X93764706Y-112749423D01*
X93585340Y-112864842D01*
X93465010Y-113040951D01*
X93422676Y-113250000D01*
X93422676Y-116298000D01*
X92957324Y-116298000D01*
X92957324Y-113250000D01*
X92920577Y-113054706D01*
X92805158Y-112875340D01*
X92629049Y-112755010D01*
X92599478Y-112749022D01*
X92654493Y-112694102D01*
X92787527Y-112373721D01*
X92787830Y-112026819D01*
X92655355Y-111706206D01*
X92410272Y-111460695D01*
X92089891Y-111327661D01*
X91742989Y-111327358D01*
X91422376Y-111459833D01*
X91176865Y-111704916D01*
X91043831Y-112025297D01*
X91043528Y-112372199D01*
X91176003Y-112692812D01*
X91231280Y-112748186D01*
X91224706Y-112749423D01*
X91045340Y-112864842D01*
X90925010Y-113040951D01*
X90882676Y-113250000D01*
X90882676Y-116298000D01*
X90417324Y-116298000D01*
X90417324Y-113250000D01*
X90380577Y-113054706D01*
X90334152Y-112982560D01*
X90443356Y-112873356D01*
X90455394Y-112855340D01*
X90493303Y-112839676D01*
X90738814Y-112594593D01*
X90871848Y-112274212D01*
X90872151Y-111927310D01*
X90739676Y-111606697D01*
X90494593Y-111361186D01*
X90174212Y-111228152D01*
X89827310Y-111227849D01*
X89506697Y-111360324D01*
X89261186Y-111605407D01*
X89128152Y-111925788D01*
X89127849Y-112272690D01*
X89169586Y-112373702D01*
X88936644Y-112606644D01*
X88863753Y-112715733D01*
X88684706Y-112749423D01*
X88505340Y-112864842D01*
X88385010Y-113040951D01*
X88342676Y-113250000D01*
X88342676Y-116298000D01*
X87877324Y-116298000D01*
X87877324Y-113250000D01*
X87840577Y-113054706D01*
X87725158Y-112875340D01*
X87549049Y-112755010D01*
X87467000Y-112738394D01*
X87467000Y-112627818D01*
X87419272Y-112387875D01*
X87283356Y-112184462D01*
X87128104Y-112029210D01*
X87128242Y-111871219D01*
X86995767Y-111550606D01*
X86750684Y-111305095D01*
X86430303Y-111172061D01*
X86083401Y-111171758D01*
X85762788Y-111304233D01*
X85517277Y-111549316D01*
X85384243Y-111869697D01*
X85383940Y-112216599D01*
X85516415Y-112537212D01*
X85761498Y-112782723D01*
X85963997Y-112866808D01*
X85845010Y-113040951D01*
X85802676Y-113250000D01*
X85802676Y-116298000D01*
X70602000Y-116298000D01*
X70602000Y-111572690D01*
X74127849Y-111572690D01*
X74221840Y-111800164D01*
X74128152Y-112025788D01*
X74127849Y-112372690D01*
X74221840Y-112600164D01*
X74128152Y-112825788D01*
X74127849Y-113172690D01*
X74260324Y-113493303D01*
X74505407Y-113738814D01*
X74825788Y-113871848D01*
X75172690Y-113872151D01*
X75493303Y-113739676D01*
X75549884Y-113683194D01*
X75605407Y-113738814D01*
X75925788Y-113871848D01*
X76272690Y-113872151D01*
X76593303Y-113739676D01*
X76838814Y-113494593D01*
X76971848Y-113174212D01*
X76972151Y-112827310D01*
X76878160Y-112599836D01*
X76971848Y-112374212D01*
X76972151Y-112027310D01*
X76878160Y-111799836D01*
X76971848Y-111574212D01*
X76972151Y-111227310D01*
X76839676Y-110906697D01*
X76594593Y-110661186D01*
X76274212Y-110528152D01*
X75927310Y-110527849D01*
X75606697Y-110660324D01*
X75550116Y-110716806D01*
X75494593Y-110661186D01*
X75174212Y-110528152D01*
X74827310Y-110527849D01*
X74506697Y-110660324D01*
X74261186Y-110905407D01*
X74128152Y-111225788D01*
X74127849Y-111572690D01*
X70602000Y-111572690D01*
X70602000Y-107972690D01*
X73827849Y-107972690D01*
X73960324Y-108293303D01*
X74205407Y-108538814D01*
X74525788Y-108671848D01*
X74872690Y-108672151D01*
X75193303Y-108539676D01*
X75438814Y-108294593D01*
X75571848Y-107974212D01*
X75572151Y-107627310D01*
X75439676Y-107306697D01*
X75194593Y-107061186D01*
X74874212Y-106928152D01*
X74527310Y-106927849D01*
X74206697Y-107060324D01*
X73961186Y-107305407D01*
X73828152Y-107625788D01*
X73827849Y-107972690D01*
X70602000Y-107972690D01*
X70602000Y-105372690D01*
X71227849Y-105372690D01*
X71360324Y-105693303D01*
X71605407Y-105938814D01*
X71925788Y-106071848D01*
X72272690Y-106072151D01*
X72593303Y-105939676D01*
X72838814Y-105694593D01*
X72971848Y-105374212D01*
X72972151Y-105027310D01*
X72839676Y-104706697D01*
X72594593Y-104461186D01*
X72274212Y-104328152D01*
X71927310Y-104327849D01*
X71606697Y-104460324D01*
X71361186Y-104705407D01*
X71228152Y-105025788D01*
X71227849Y-105372690D01*
X70602000Y-105372690D01*
X70602000Y-103672690D01*
X74327849Y-103672690D01*
X74460324Y-103993303D01*
X74705407Y-104238814D01*
X75025788Y-104371848D01*
X75372690Y-104372151D01*
X75693303Y-104239676D01*
X75938814Y-103994593D01*
X76071848Y-103674212D01*
X76071856Y-103664534D01*
X79819693Y-103664534D01*
X79952168Y-103985147D01*
X80197251Y-104230658D01*
X80517632Y-104363692D01*
X80864534Y-104363995D01*
X81185147Y-104231520D01*
X81430658Y-103986437D01*
X81563692Y-103666056D01*
X81563995Y-103319154D01*
X81503478Y-103172690D01*
X82927849Y-103172690D01*
X83060324Y-103493303D01*
X83173000Y-103606176D01*
X83173000Y-104893788D01*
X83061186Y-105005407D01*
X82928152Y-105325788D01*
X82927849Y-105672690D01*
X83060324Y-105993303D01*
X83305407Y-106238814D01*
X83625788Y-106371848D01*
X83972690Y-106372151D01*
X84293303Y-106239676D01*
X84525167Y-106008216D01*
X84560324Y-106093303D01*
X84805407Y-106338814D01*
X85125788Y-106471848D01*
X85472690Y-106472151D01*
X85793303Y-106339676D01*
X85805541Y-106327460D01*
X85816875Y-106338814D01*
X86137256Y-106471848D01*
X86484158Y-106472151D01*
X86804771Y-106339676D01*
X87050282Y-106094593D01*
X87183316Y-105774212D01*
X87183619Y-105427310D01*
X87051144Y-105106697D01*
X86938468Y-104993824D01*
X86938468Y-103517680D01*
X87050282Y-103406061D01*
X87183316Y-103085680D01*
X87183619Y-102738778D01*
X87051144Y-102418165D01*
X86806061Y-102172654D01*
X86485680Y-102039620D01*
X86138778Y-102039317D01*
X85818165Y-102171792D01*
X85572654Y-102416875D01*
X85439620Y-102737256D01*
X85439317Y-103084158D01*
X85571792Y-103404771D01*
X85684468Y-103517644D01*
X85684468Y-104815458D01*
X85474212Y-104728152D01*
X85127310Y-104727849D01*
X84806697Y-104860324D01*
X84574833Y-105091784D01*
X84539676Y-105006697D01*
X84427000Y-104893824D01*
X84427000Y-103606212D01*
X84538814Y-103494593D01*
X84671848Y-103174212D01*
X84672151Y-102827310D01*
X84539676Y-102506697D01*
X84294593Y-102261186D01*
X83974212Y-102128152D01*
X83627310Y-102127849D01*
X83306697Y-102260324D01*
X83061186Y-102505407D01*
X82928152Y-102825788D01*
X82927849Y-103172690D01*
X81503478Y-103172690D01*
X81431520Y-102998541D01*
X81186437Y-102753030D01*
X80866056Y-102619996D01*
X80519154Y-102619693D01*
X80198541Y-102752168D01*
X79953030Y-102997251D01*
X79819996Y-103317632D01*
X79819693Y-103664534D01*
X76071856Y-103664534D01*
X76072151Y-103327310D01*
X75939676Y-103006697D01*
X75694593Y-102761186D01*
X75374212Y-102628152D01*
X75027310Y-102627849D01*
X74706697Y-102760324D01*
X74461186Y-103005407D01*
X74328152Y-103325788D01*
X74327849Y-103672690D01*
X70602000Y-103672690D01*
X70602000Y-101072690D01*
X71764273Y-101072690D01*
X71896748Y-101393303D01*
X72141831Y-101638814D01*
X72462212Y-101771848D01*
X72809114Y-101772151D01*
X73129727Y-101639676D01*
X73375238Y-101394593D01*
X73508272Y-101074212D01*
X73508273Y-101072690D01*
X76927849Y-101072690D01*
X77060324Y-101393303D01*
X77305407Y-101638814D01*
X77625788Y-101771848D01*
X77972690Y-101772151D01*
X78293303Y-101639676D01*
X78538814Y-101394593D01*
X78630956Y-101172690D01*
X86727849Y-101172690D01*
X86860324Y-101493303D01*
X87105407Y-101738814D01*
X87425788Y-101871848D01*
X87772690Y-101872151D01*
X88073000Y-101748065D01*
X88073000Y-104993788D01*
X87961186Y-105105407D01*
X87828152Y-105425788D01*
X87827849Y-105772690D01*
X87960324Y-106093303D01*
X88205407Y-106338814D01*
X88525788Y-106471848D01*
X88872690Y-106472151D01*
X89193303Y-106339676D01*
X89438814Y-106094593D01*
X89530956Y-105872690D01*
X89727849Y-105872690D01*
X89860324Y-106193303D01*
X90105407Y-106438814D01*
X90425788Y-106571848D01*
X90772690Y-106572151D01*
X91093303Y-106439676D01*
X91338814Y-106194593D01*
X91471848Y-105874212D01*
X91472151Y-105527310D01*
X91339676Y-105206697D01*
X91227000Y-105093824D01*
X91227000Y-103647615D01*
X91301925Y-103572690D01*
X94027849Y-103572690D01*
X94160324Y-103893303D01*
X94273000Y-104006176D01*
X94273000Y-104300000D01*
X94320728Y-104539943D01*
X94435109Y-104711126D01*
X94456644Y-104743356D01*
X95327987Y-105614699D01*
X95327849Y-105772690D01*
X95460324Y-106093303D01*
X95705407Y-106338814D01*
X95796431Y-106376610D01*
X95796210Y-106629499D01*
X95928685Y-106950112D01*
X96173768Y-107195623D01*
X96494149Y-107328657D01*
X96841051Y-107328960D01*
X97161664Y-107196485D01*
X97407175Y-106951402D01*
X97540209Y-106631021D01*
X97540331Y-106491900D01*
X97662702Y-106492007D01*
X97921614Y-106385026D01*
X98205740Y-106503006D01*
X98552642Y-106503309D01*
X98873255Y-106370834D01*
X98903530Y-106340612D01*
X99091757Y-106418771D01*
X99140285Y-106418813D01*
X99216188Y-106602513D01*
X99461271Y-106848024D01*
X99781652Y-106981058D01*
X100128554Y-106981361D01*
X100449167Y-106848886D01*
X100694678Y-106603803D01*
X100754000Y-106460940D01*
X100850613Y-106461024D01*
X101130702Y-106345293D01*
X101393701Y-106454500D01*
X101740603Y-106454803D01*
X102061216Y-106322328D01*
X102306727Y-106077245D01*
X102433189Y-105772690D01*
X118963849Y-105772690D01*
X119096324Y-106093303D01*
X119341407Y-106338814D01*
X119661788Y-106471848D01*
X120008690Y-106472151D01*
X120329303Y-106339676D01*
X120574814Y-106094593D01*
X120707848Y-105774212D01*
X120708151Y-105427310D01*
X120575676Y-105106697D01*
X120330593Y-104861186D01*
X120010212Y-104728152D01*
X119663310Y-104727849D01*
X119342697Y-104860324D01*
X119097186Y-105105407D01*
X118964152Y-105425788D01*
X118963849Y-105772690D01*
X102433189Y-105772690D01*
X102439761Y-105756864D01*
X102440064Y-105409962D01*
X102307589Y-105089349D01*
X102062506Y-104843838D01*
X102016950Y-104824921D01*
X102016950Y-104816684D01*
X102128764Y-104705065D01*
X102261798Y-104384684D01*
X102262101Y-104037782D01*
X102129626Y-103717169D01*
X101884543Y-103471658D01*
X101564162Y-103338624D01*
X101217260Y-103338321D01*
X100957341Y-103445718D01*
X100674212Y-103328152D01*
X100566442Y-103328058D01*
X100671848Y-103074212D01*
X100672151Y-102727310D01*
X100539676Y-102406697D01*
X100405903Y-102272690D01*
X113627849Y-102272690D01*
X113760324Y-102593303D01*
X114005407Y-102838814D01*
X114325788Y-102971848D01*
X114672690Y-102972151D01*
X114993303Y-102839676D01*
X115238814Y-102594593D01*
X115371848Y-102274212D01*
X115372151Y-101927310D01*
X115239676Y-101606697D01*
X114994593Y-101361186D01*
X114674212Y-101228152D01*
X114327310Y-101227849D01*
X114006697Y-101360324D01*
X113761186Y-101605407D01*
X113628152Y-101925788D01*
X113627849Y-102272690D01*
X100405903Y-102272690D01*
X100294593Y-102161186D01*
X99974212Y-102028152D01*
X99627310Y-102027849D01*
X99306697Y-102160324D01*
X99061186Y-102405407D01*
X98970406Y-102624029D01*
X98711523Y-102623803D01*
X98432588Y-102739057D01*
X98168428Y-102629368D01*
X97821526Y-102629065D01*
X97500913Y-102761540D01*
X97377801Y-102884437D01*
X97198798Y-102705121D01*
X96878417Y-102572087D01*
X96531515Y-102571784D01*
X96322435Y-102658174D01*
X96310723Y-102646442D01*
X95990342Y-102513408D01*
X95643440Y-102513105D01*
X95339960Y-102638501D01*
X95074212Y-102528152D01*
X94727310Y-102527849D01*
X94406697Y-102660324D01*
X94161186Y-102905407D01*
X94028152Y-103225788D01*
X94027849Y-103572690D01*
X91301925Y-103572690D01*
X92543356Y-102331259D01*
X92574621Y-102284468D01*
X92679272Y-102127846D01*
X92697636Y-102035525D01*
X92838814Y-101894593D01*
X92971848Y-101574212D01*
X92972151Y-101227310D01*
X92839676Y-100906697D01*
X92594593Y-100661186D01*
X92274212Y-100528152D01*
X91927310Y-100527849D01*
X91606697Y-100660324D01*
X91361186Y-100905407D01*
X91228152Y-101225788D01*
X91227849Y-101572690D01*
X91315754Y-101785437D01*
X90156644Y-102944547D01*
X90020728Y-103147960D01*
X89973000Y-103387903D01*
X89973000Y-105093788D01*
X89861186Y-105205407D01*
X89728152Y-105525788D01*
X89727849Y-105872690D01*
X89530956Y-105872690D01*
X89571848Y-105774212D01*
X89572151Y-105427310D01*
X89439676Y-105106697D01*
X89327000Y-104993824D01*
X89327000Y-101406212D01*
X89438814Y-101294593D01*
X89571848Y-100974212D01*
X89572151Y-100627310D01*
X89439676Y-100306697D01*
X89194593Y-100061186D01*
X88874212Y-99928152D01*
X88527310Y-99927849D01*
X88206697Y-100060324D01*
X88031661Y-100235054D01*
X87774212Y-100128152D01*
X87427310Y-100127849D01*
X87106697Y-100260324D01*
X86861186Y-100505407D01*
X86728152Y-100825788D01*
X86727849Y-101172690D01*
X78630956Y-101172690D01*
X78671848Y-101074212D01*
X78672151Y-100727310D01*
X78539676Y-100406697D01*
X78294593Y-100161186D01*
X77974212Y-100028152D01*
X77627310Y-100027849D01*
X77306697Y-100160324D01*
X77061186Y-100405407D01*
X76928152Y-100725788D01*
X76927849Y-101072690D01*
X73508273Y-101072690D01*
X73508575Y-100727310D01*
X73376100Y-100406697D01*
X73131017Y-100161186D01*
X72810636Y-100028152D01*
X72463734Y-100027849D01*
X72143121Y-100160324D01*
X71897610Y-100405407D01*
X71764576Y-100725788D01*
X71764273Y-101072690D01*
X70602000Y-101072690D01*
X70602000Y-98172690D01*
X90327849Y-98172690D01*
X90460324Y-98493303D01*
X90705407Y-98738814D01*
X91025788Y-98871848D01*
X91372690Y-98872151D01*
X91693303Y-98739676D01*
X91938814Y-98494593D01*
X92071848Y-98174212D01*
X92071849Y-98172690D01*
X92827849Y-98172690D01*
X92960324Y-98493303D01*
X93205407Y-98738814D01*
X93525788Y-98871848D01*
X93872690Y-98872151D01*
X94193303Y-98739676D01*
X94438814Y-98494593D01*
X94489432Y-98372690D01*
X119027849Y-98372690D01*
X119160324Y-98693303D01*
X119405407Y-98938814D01*
X119725788Y-99071848D01*
X120072690Y-99072151D01*
X120393303Y-98939676D01*
X120638814Y-98694593D01*
X120771848Y-98374212D01*
X120772151Y-98027310D01*
X120639676Y-97706697D01*
X120394593Y-97461186D01*
X120074212Y-97328152D01*
X119727310Y-97327849D01*
X119406697Y-97460324D01*
X119161186Y-97705407D01*
X119028152Y-98025788D01*
X119027849Y-98372690D01*
X94489432Y-98372690D01*
X94571848Y-98174212D01*
X94572151Y-97827310D01*
X94439676Y-97506697D01*
X94194593Y-97261186D01*
X93874212Y-97128152D01*
X93527310Y-97127849D01*
X93206697Y-97260324D01*
X92961186Y-97505407D01*
X92828152Y-97825788D01*
X92827849Y-98172690D01*
X92071849Y-98172690D01*
X92072151Y-97827310D01*
X91939676Y-97506697D01*
X91694593Y-97261186D01*
X91374212Y-97128152D01*
X91027310Y-97127849D01*
X90706697Y-97260324D01*
X90461186Y-97505407D01*
X90328152Y-97825788D01*
X90327849Y-98172690D01*
X70602000Y-98172690D01*
X70602000Y-97072690D01*
X70827849Y-97072690D01*
X70960324Y-97393303D01*
X71205407Y-97638814D01*
X71525788Y-97771848D01*
X71872690Y-97772151D01*
X72193303Y-97639676D01*
X72438814Y-97394593D01*
X72571848Y-97074212D01*
X72572151Y-96727310D01*
X72439676Y-96406697D01*
X72194593Y-96161186D01*
X71874212Y-96028152D01*
X71527310Y-96027849D01*
X71206697Y-96160324D01*
X70961186Y-96405407D01*
X70828152Y-96725788D01*
X70827849Y-97072690D01*
X70602000Y-97072690D01*
X70602000Y-95472690D01*
X73894283Y-95472690D01*
X74026758Y-95793303D01*
X74271841Y-96038814D01*
X74592222Y-96171848D01*
X74939124Y-96172151D01*
X75259737Y-96039676D01*
X75505248Y-95794593D01*
X75638282Y-95474212D01*
X75638585Y-95127310D01*
X75506110Y-94806697D01*
X75261027Y-94561186D01*
X74940646Y-94428152D01*
X74593744Y-94427849D01*
X74273131Y-94560324D01*
X74027620Y-94805407D01*
X73894586Y-95125788D01*
X73894283Y-95472690D01*
X70602000Y-95472690D01*
X70602000Y-92772690D01*
X71427849Y-92772690D01*
X71560324Y-93093303D01*
X71805407Y-93338814D01*
X72125788Y-93471848D01*
X72472690Y-93472151D01*
X72793303Y-93339676D01*
X73038814Y-93094593D01*
X73171848Y-92774212D01*
X73171936Y-92672690D01*
X91527849Y-92672690D01*
X91660324Y-92993303D01*
X91773000Y-93106176D01*
X91773000Y-94693788D01*
X91661186Y-94805407D01*
X91528152Y-95125788D01*
X91527849Y-95472690D01*
X91660324Y-95793303D01*
X91905407Y-96038814D01*
X92225788Y-96171848D01*
X92572690Y-96172151D01*
X92893303Y-96039676D01*
X93138814Y-95794593D01*
X93271848Y-95474212D01*
X93272151Y-95127310D01*
X93139676Y-94806697D01*
X93027000Y-94693824D01*
X93027000Y-93106212D01*
X93050058Y-93083194D01*
X93205407Y-93238814D01*
X93525788Y-93371848D01*
X93872690Y-93372151D01*
X94193303Y-93239676D01*
X94438814Y-92994593D01*
X94571848Y-92674212D01*
X94571849Y-92672690D01*
X94813849Y-92672690D01*
X94946324Y-92993303D01*
X95191407Y-93238814D01*
X95511788Y-93371848D01*
X95858690Y-93372151D01*
X96071437Y-93284246D01*
X96230547Y-93443356D01*
X96363062Y-93531900D01*
X96199981Y-93694697D01*
X96066947Y-94015078D01*
X96066644Y-94361980D01*
X96199119Y-94682593D01*
X96311795Y-94795466D01*
X96311795Y-95155061D01*
X96161186Y-95305407D01*
X96028152Y-95625788D01*
X96027849Y-95972690D01*
X96160324Y-96293303D01*
X96405407Y-96538814D01*
X96725788Y-96671848D01*
X97072690Y-96672151D01*
X97393303Y-96539676D01*
X97638814Y-96294593D01*
X97653656Y-96258849D01*
X97925788Y-96371848D01*
X98272690Y-96372151D01*
X98593303Y-96239676D01*
X98754369Y-96078891D01*
X98760324Y-96093303D01*
X99005407Y-96338814D01*
X99325788Y-96471848D01*
X99672690Y-96472151D01*
X99993303Y-96339676D01*
X100238814Y-96094593D01*
X100371848Y-95774212D01*
X100371937Y-95672063D01*
X100472690Y-95672151D01*
X100793303Y-95539676D01*
X101038814Y-95294593D01*
X101171848Y-94974212D01*
X101172151Y-94627310D01*
X101039676Y-94306697D01*
X100927000Y-94193824D01*
X100927000Y-93944041D01*
X100879272Y-93704098D01*
X100743356Y-93500685D01*
X100415361Y-93172690D01*
X101433849Y-93172690D01*
X101566324Y-93493303D01*
X101811407Y-93738814D01*
X102131788Y-93871848D01*
X102478690Y-93872151D01*
X102799303Y-93739676D01*
X103044814Y-93494593D01*
X103095432Y-93372690D01*
X119127849Y-93372690D01*
X119260324Y-93693303D01*
X119505407Y-93938814D01*
X119825788Y-94071848D01*
X120172690Y-94072151D01*
X120493303Y-93939676D01*
X120738814Y-93694593D01*
X120871848Y-93374212D01*
X120872151Y-93027310D01*
X120739676Y-92706697D01*
X120494593Y-92461186D01*
X120174212Y-92328152D01*
X119827310Y-92327849D01*
X119506697Y-92460324D01*
X119261186Y-92705407D01*
X119128152Y-93025788D01*
X119127849Y-93372690D01*
X103095432Y-93372690D01*
X103177848Y-93174212D01*
X103178151Y-92827310D01*
X103045676Y-92506697D01*
X102800593Y-92261186D01*
X102480212Y-92128152D01*
X102133310Y-92127849D01*
X101812697Y-92260324D01*
X101567186Y-92505407D01*
X101434152Y-92825788D01*
X101433849Y-93172690D01*
X100415361Y-93172690D01*
X99642345Y-92399674D01*
X99642483Y-92241683D01*
X99510008Y-91921070D01*
X99264925Y-91675559D01*
X98944544Y-91542525D01*
X98597642Y-91542222D01*
X98277029Y-91674697D01*
X98031518Y-91919780D01*
X97898484Y-92240161D01*
X97898368Y-92373000D01*
X96933615Y-92373000D01*
X96617259Y-92056644D01*
X96540577Y-92005407D01*
X96413846Y-91920728D01*
X96321525Y-91902364D01*
X96180593Y-91761186D01*
X95860212Y-91628152D01*
X95513310Y-91627849D01*
X95192697Y-91760324D01*
X94947186Y-92005407D01*
X94814152Y-92325788D01*
X94813849Y-92672690D01*
X94571849Y-92672690D01*
X94572151Y-92327310D01*
X94439676Y-92006697D01*
X94194593Y-91761186D01*
X93874212Y-91628152D01*
X93527310Y-91627849D01*
X93206697Y-91760324D01*
X93049942Y-91916806D01*
X92894593Y-91761186D01*
X92574212Y-91628152D01*
X92227310Y-91627849D01*
X91906697Y-91760324D01*
X91661186Y-92005407D01*
X91528152Y-92325788D01*
X91527849Y-92672690D01*
X73171936Y-92672690D01*
X73172151Y-92427310D01*
X73039676Y-92106697D01*
X72794593Y-91861186D01*
X72474212Y-91728152D01*
X72127310Y-91727849D01*
X71806697Y-91860324D01*
X71561186Y-92105407D01*
X71428152Y-92425788D01*
X71427849Y-92772690D01*
X70602000Y-92772690D01*
X70602000Y-90872690D01*
X74427849Y-90872690D01*
X74560324Y-91193303D01*
X74805407Y-91438814D01*
X75125788Y-91571848D01*
X75472690Y-91572151D01*
X75793303Y-91439676D01*
X76038814Y-91194593D01*
X76171848Y-90874212D01*
X76171849Y-90872690D01*
X77027849Y-90872690D01*
X77160324Y-91193303D01*
X77405407Y-91438814D01*
X77725788Y-91571848D01*
X78072690Y-91572151D01*
X78393303Y-91439676D01*
X78460405Y-91372690D01*
X82927849Y-91372690D01*
X83060324Y-91693303D01*
X83305407Y-91938814D01*
X83625788Y-92071848D01*
X83668836Y-92071886D01*
X83760324Y-92293303D01*
X84005407Y-92538814D01*
X84325788Y-92671848D01*
X84672690Y-92672151D01*
X84993303Y-92539676D01*
X85238814Y-92294593D01*
X85371848Y-91974212D01*
X85371987Y-91814725D01*
X86414699Y-90772013D01*
X86572690Y-90772151D01*
X86893303Y-90639676D01*
X87138814Y-90394593D01*
X87189432Y-90272690D01*
X110827849Y-90272690D01*
X110960324Y-90593303D01*
X111205407Y-90838814D01*
X111525788Y-90971848D01*
X111872690Y-90972151D01*
X112193303Y-90839676D01*
X112438814Y-90594593D01*
X112571848Y-90274212D01*
X112572151Y-89927310D01*
X112439676Y-89606697D01*
X112194593Y-89361186D01*
X111874212Y-89228152D01*
X111527310Y-89227849D01*
X111206697Y-89360324D01*
X110961186Y-89605407D01*
X110828152Y-89925788D01*
X110827849Y-90272690D01*
X87189432Y-90272690D01*
X87271848Y-90074212D01*
X87272151Y-89727310D01*
X87139676Y-89406697D01*
X86894593Y-89161186D01*
X86574212Y-89028152D01*
X86260839Y-89027878D01*
X86261092Y-88738369D01*
X86128617Y-88417756D01*
X85883534Y-88172245D01*
X85563153Y-88039211D01*
X85216251Y-88038908D01*
X84895638Y-88171383D01*
X84650127Y-88416466D01*
X84517093Y-88736847D01*
X84516954Y-88896334D01*
X83356644Y-90056644D01*
X83220728Y-90260057D01*
X83173000Y-90500000D01*
X83173000Y-90593788D01*
X83061186Y-90705407D01*
X82928152Y-91025788D01*
X82927849Y-91372690D01*
X78460405Y-91372690D01*
X78638814Y-91194593D01*
X78771848Y-90874212D01*
X78772151Y-90527310D01*
X78639676Y-90206697D01*
X78394593Y-89961186D01*
X78074212Y-89828152D01*
X77727310Y-89827849D01*
X77406697Y-89960324D01*
X77161186Y-90205407D01*
X77028152Y-90525788D01*
X77027849Y-90872690D01*
X76171849Y-90872690D01*
X76172151Y-90527310D01*
X76039676Y-90206697D01*
X75794593Y-89961186D01*
X75474212Y-89828152D01*
X75127310Y-89827849D01*
X74806697Y-89960324D01*
X74561186Y-90205407D01*
X74428152Y-90525788D01*
X74427849Y-90872690D01*
X70602000Y-90872690D01*
X70602000Y-88368634D01*
X71727849Y-88368634D01*
X71860324Y-88689247D01*
X72105407Y-88934758D01*
X72425788Y-89067792D01*
X72772690Y-89068095D01*
X73093303Y-88935620D01*
X73338814Y-88690537D01*
X73470795Y-88372690D01*
X77027849Y-88372690D01*
X77160324Y-88693303D01*
X77405407Y-88938814D01*
X77725788Y-89071848D01*
X78072690Y-89072151D01*
X78393303Y-88939676D01*
X78638814Y-88694593D01*
X78771848Y-88374212D01*
X78772151Y-88027310D01*
X78639676Y-87706697D01*
X78605729Y-87672690D01*
X92127849Y-87672690D01*
X92260324Y-87993303D01*
X92505407Y-88238814D01*
X92825788Y-88371848D01*
X93172690Y-88372151D01*
X93493303Y-88239676D01*
X93738814Y-87994593D01*
X93871848Y-87674212D01*
X93872151Y-87327310D01*
X93739676Y-87006697D01*
X93494593Y-86761186D01*
X93174212Y-86628152D01*
X92827310Y-86627849D01*
X92506697Y-86760324D01*
X92261186Y-87005407D01*
X92128152Y-87325788D01*
X92127849Y-87672690D01*
X78605729Y-87672690D01*
X78394593Y-87461186D01*
X78074212Y-87328152D01*
X77727310Y-87327849D01*
X77406697Y-87460324D01*
X77161186Y-87705407D01*
X77028152Y-88025788D01*
X77027849Y-88372690D01*
X73470795Y-88372690D01*
X73471848Y-88370156D01*
X73472151Y-88023254D01*
X73339676Y-87702641D01*
X73094593Y-87457130D01*
X72774212Y-87324096D01*
X72427310Y-87323793D01*
X72106697Y-87456268D01*
X71861186Y-87701351D01*
X71728152Y-88021732D01*
X71727849Y-88368634D01*
X70602000Y-88368634D01*
X70602000Y-85672690D01*
X119027849Y-85672690D01*
X119160324Y-85993303D01*
X119405407Y-86238814D01*
X119725788Y-86371848D01*
X120072690Y-86372151D01*
X120393303Y-86239676D01*
X120638814Y-85994593D01*
X120771848Y-85674212D01*
X120772151Y-85327310D01*
X120639676Y-85006697D01*
X120394593Y-84761186D01*
X120074212Y-84628152D01*
X119727310Y-84627849D01*
X119406697Y-84760324D01*
X119161186Y-85005407D01*
X119028152Y-85325788D01*
X119027849Y-85672690D01*
X70602000Y-85672690D01*
X70602000Y-84372690D01*
X71527849Y-84372690D01*
X71660324Y-84693303D01*
X71905407Y-84938814D01*
X72225788Y-85071848D01*
X72572690Y-85072151D01*
X72893303Y-84939676D01*
X73138814Y-84694593D01*
X73271848Y-84374212D01*
X73272151Y-84027310D01*
X73208264Y-83872690D01*
X85827849Y-83872690D01*
X85960324Y-84193303D01*
X86205407Y-84438814D01*
X86525788Y-84571848D01*
X86872690Y-84572151D01*
X87193303Y-84439676D01*
X87306176Y-84327000D01*
X87493788Y-84327000D01*
X87605407Y-84438814D01*
X87925788Y-84571848D01*
X88272690Y-84572151D01*
X88593303Y-84439676D01*
X88838814Y-84194593D01*
X88971848Y-83874212D01*
X88972151Y-83527310D01*
X88839676Y-83206697D01*
X88594593Y-82961186D01*
X88274212Y-82828152D01*
X87927310Y-82827849D01*
X87606697Y-82960324D01*
X87493824Y-83073000D01*
X87306212Y-83073000D01*
X87194593Y-82961186D01*
X86874212Y-82828152D01*
X86527310Y-82827849D01*
X86206697Y-82960324D01*
X85961186Y-83205407D01*
X85828152Y-83525788D01*
X85827849Y-83872690D01*
X73208264Y-83872690D01*
X73139676Y-83706697D01*
X72894593Y-83461186D01*
X72574212Y-83328152D01*
X72227310Y-83327849D01*
X71906697Y-83460324D01*
X71661186Y-83705407D01*
X71528152Y-84025788D01*
X71527849Y-84372690D01*
X70602000Y-84372690D01*
X70602000Y-82772690D01*
X73827849Y-82772690D01*
X73960324Y-83093303D01*
X74205407Y-83338814D01*
X74525788Y-83471848D01*
X74872690Y-83472151D01*
X75193303Y-83339676D01*
X75438814Y-83094593D01*
X75571848Y-82774212D01*
X75572151Y-82427310D01*
X75439676Y-82106697D01*
X75194593Y-81861186D01*
X74874212Y-81728152D01*
X74527310Y-81727849D01*
X74206697Y-81860324D01*
X73961186Y-82105407D01*
X73828152Y-82425788D01*
X73827849Y-82772690D01*
X70602000Y-82772690D01*
X70602000Y-81602000D01*
X81464774Y-81602000D01*
X81361186Y-81705407D01*
X81361186Y-81705407D01*
G37*
X81361186Y-81705407D02*
X81228152Y-82025788D01*
X81227849Y-82372690D01*
X81360324Y-82693303D01*
X81605407Y-82938814D01*
X81925788Y-83071848D01*
X82272690Y-83072151D01*
X82593303Y-82939676D01*
X82838814Y-82694593D01*
X82971848Y-82374212D01*
X82972151Y-82027310D01*
X82839676Y-81706697D01*
X82735162Y-81602000D01*
X121398000Y-81602000D01*
X121398000Y-116298000D01*
X108197324Y-116298000D01*
X108197324Y-113250000D01*
X108160577Y-113054706D01*
X108045158Y-112875340D01*
X107869049Y-112755010D01*
X107827000Y-112746495D01*
X107827000Y-112700000D01*
X107779272Y-112460057D01*
X107643356Y-112256644D01*
X106759402Y-111372690D01*
X115927849Y-111372690D01*
X116021840Y-111600164D01*
X115928152Y-111825788D01*
X115927849Y-112172690D01*
X116021840Y-112400164D01*
X115928152Y-112625788D01*
X115927849Y-112972690D01*
X116060324Y-113293303D01*
X116305407Y-113538814D01*
X116625788Y-113671848D01*
X116972690Y-113672151D01*
X117293303Y-113539676D01*
X117538814Y-113294593D01*
X117671848Y-112974212D01*
X117672151Y-112627310D01*
X117578160Y-112399836D01*
X117671848Y-112174212D01*
X117672151Y-111827310D01*
X117578160Y-111599836D01*
X117671848Y-111374212D01*
X117672151Y-111027310D01*
X117539676Y-110706697D01*
X117294593Y-110461186D01*
X116974212Y-110328152D01*
X116627310Y-110327849D01*
X116306697Y-110460324D01*
X116061186Y-110705407D01*
X115928152Y-111025788D01*
X115927849Y-111372690D01*
X106759402Y-111372690D01*
X106198357Y-110811645D01*
X105994944Y-110675729D01*
X105755001Y-110628001D01*
X102644999Y-110628001D01*
X102405056Y-110675729D01*
X102326792Y-110728023D01*
X102127310Y-110727849D01*
X101806697Y-110860324D01*
X101561186Y-111105407D01*
X101437238Y-111403906D01*
X101394593Y-111361186D01*
X101074212Y-111228152D01*
X100727310Y-111227849D01*
X100406697Y-111360324D01*
X100199854Y-111566806D01*
X99994593Y-111361186D01*
X99674212Y-111228152D01*
X99327310Y-111227849D01*
X99006697Y-111360324D01*
X98761186Y-111605407D01*
X98628152Y-111925788D01*
X98627849Y-112272690D01*
X98760324Y-112593303D01*
X98904871Y-112738102D01*
X98844706Y-112749423D01*
X98665340Y-112864842D01*
X98545010Y-113040951D01*
X98502676Y-113250000D01*
X98502676Y-116298000D01*
X98037324Y-116298000D01*
X98037324Y-113250000D01*
X98000577Y-113054706D01*
X97885158Y-112875340D01*
X97709049Y-112755010D01*
X97516918Y-112716102D01*
X97738814Y-112494593D01*
X97871848Y-112174212D01*
X97872151Y-111827310D01*
X97739676Y-111506697D01*
X97494593Y-111261186D01*
X97174212Y-111128152D01*
X96827310Y-111127849D01*
X96506697Y-111260324D01*
X96261186Y-111505407D01*
X96128152Y-111825788D01*
X96127849Y-112172690D01*
X96260324Y-112493303D01*
X96482586Y-112715953D01*
X96304706Y-112749423D01*
X96125340Y-112864842D01*
X96005010Y-113040951D01*
X95962676Y-113250000D01*
X95962676Y-116298000D01*
X95497324Y-116298000D01*
X95497324Y-113250000D01*
X95460577Y-113054706D01*
X95345158Y-112875340D01*
X95277256Y-112828945D01*
X95493303Y-112739676D01*
X95738814Y-112494593D01*
X95871848Y-112174212D01*
X95872151Y-111827310D01*
X95739676Y-111506697D01*
X95494593Y-111261186D01*
X95174212Y-111128152D01*
X94827310Y-111127849D01*
X94672007Y-111192019D01*
X94672151Y-111027310D01*
X94539676Y-110706697D01*
X94294593Y-110461186D01*
X93974212Y-110328152D01*
X93627310Y-110327849D01*
X93306697Y-110460324D01*
X93061186Y-110705407D01*
X92928152Y-111025788D01*
X92927849Y-111372690D01*
X93060324Y-111693303D01*
X93305407Y-111938814D01*
X93625788Y-112071848D01*
X93972690Y-112072151D01*
X93974543Y-112071385D01*
X93834534Y-112280923D01*
X93783000Y-112540000D01*
X93783000Y-112745981D01*
X93764706Y-112749423D01*
X93585340Y-112864842D01*
X93465010Y-113040951D01*
X93422676Y-113250000D01*
X93422676Y-116298000D01*
X92957324Y-116298000D01*
X92957324Y-113250000D01*
X92920577Y-113054706D01*
X92805158Y-112875340D01*
X92629049Y-112755010D01*
X92599478Y-112749022D01*
X92654493Y-112694102D01*
X92787527Y-112373721D01*
X92787830Y-112026819D01*
X92655355Y-111706206D01*
X92410272Y-111460695D01*
X92089891Y-111327661D01*
X91742989Y-111327358D01*
X91422376Y-111459833D01*
X91176865Y-111704916D01*
X91043831Y-112025297D01*
X91043528Y-112372199D01*
X91176003Y-112692812D01*
X91231280Y-112748186D01*
X91224706Y-112749423D01*
X91045340Y-112864842D01*
X90925010Y-113040951D01*
X90882676Y-113250000D01*
X90882676Y-116298000D01*
X90417324Y-116298000D01*
X90417324Y-113250000D01*
X90380577Y-113054706D01*
X90334152Y-112982560D01*
X90443356Y-112873356D01*
X90455394Y-112855340D01*
X90493303Y-112839676D01*
X90738814Y-112594593D01*
X90871848Y-112274212D01*
X90872151Y-111927310D01*
X90739676Y-111606697D01*
X90494593Y-111361186D01*
X90174212Y-111228152D01*
X89827310Y-111227849D01*
X89506697Y-111360324D01*
X89261186Y-111605407D01*
X89128152Y-111925788D01*
X89127849Y-112272690D01*
X89169586Y-112373702D01*
X88936644Y-112606644D01*
X88863753Y-112715733D01*
X88684706Y-112749423D01*
X88505340Y-112864842D01*
X88385010Y-113040951D01*
X88342676Y-113250000D01*
X88342676Y-116298000D01*
X87877324Y-116298000D01*
X87877324Y-113250000D01*
X87840577Y-113054706D01*
X87725158Y-112875340D01*
X87549049Y-112755010D01*
X87467000Y-112738394D01*
X87467000Y-112627818D01*
X87419272Y-112387875D01*
X87283356Y-112184462D01*
X87128104Y-112029210D01*
X87128242Y-111871219D01*
X86995767Y-111550606D01*
X86750684Y-111305095D01*
X86430303Y-111172061D01*
X86083401Y-111171758D01*
X85762788Y-111304233D01*
X85517277Y-111549316D01*
X85384243Y-111869697D01*
X85383940Y-112216599D01*
X85516415Y-112537212D01*
X85761498Y-112782723D01*
X85963997Y-112866808D01*
X85845010Y-113040951D01*
X85802676Y-113250000D01*
X85802676Y-116298000D01*
X70602000Y-116298000D01*
X70602000Y-111572690D01*
X74127849Y-111572690D01*
X74221840Y-111800164D01*
X74128152Y-112025788D01*
X74127849Y-112372690D01*
X74221840Y-112600164D01*
X74128152Y-112825788D01*
X74127849Y-113172690D01*
X74260324Y-113493303D01*
X74505407Y-113738814D01*
X74825788Y-113871848D01*
X75172690Y-113872151D01*
X75493303Y-113739676D01*
X75549884Y-113683194D01*
X75605407Y-113738814D01*
X75925788Y-113871848D01*
X76272690Y-113872151D01*
X76593303Y-113739676D01*
X76838814Y-113494593D01*
X76971848Y-113174212D01*
X76972151Y-112827310D01*
X76878160Y-112599836D01*
X76971848Y-112374212D01*
X76972151Y-112027310D01*
X76878160Y-111799836D01*
X76971848Y-111574212D01*
X76972151Y-111227310D01*
X76839676Y-110906697D01*
X76594593Y-110661186D01*
X76274212Y-110528152D01*
X75927310Y-110527849D01*
X75606697Y-110660324D01*
X75550116Y-110716806D01*
X75494593Y-110661186D01*
X75174212Y-110528152D01*
X74827310Y-110527849D01*
X74506697Y-110660324D01*
X74261186Y-110905407D01*
X74128152Y-111225788D01*
X74127849Y-111572690D01*
X70602000Y-111572690D01*
X70602000Y-107972690D01*
X73827849Y-107972690D01*
X73960324Y-108293303D01*
X74205407Y-108538814D01*
X74525788Y-108671848D01*
X74872690Y-108672151D01*
X75193303Y-108539676D01*
X75438814Y-108294593D01*
X75571848Y-107974212D01*
X75572151Y-107627310D01*
X75439676Y-107306697D01*
X75194593Y-107061186D01*
X74874212Y-106928152D01*
X74527310Y-106927849D01*
X74206697Y-107060324D01*
X73961186Y-107305407D01*
X73828152Y-107625788D01*
X73827849Y-107972690D01*
X70602000Y-107972690D01*
X70602000Y-105372690D01*
X71227849Y-105372690D01*
X71360324Y-105693303D01*
X71605407Y-105938814D01*
X71925788Y-106071848D01*
X72272690Y-106072151D01*
X72593303Y-105939676D01*
X72838814Y-105694593D01*
X72971848Y-105374212D01*
X72972151Y-105027310D01*
X72839676Y-104706697D01*
X72594593Y-104461186D01*
X72274212Y-104328152D01*
X71927310Y-104327849D01*
X71606697Y-104460324D01*
X71361186Y-104705407D01*
X71228152Y-105025788D01*
X71227849Y-105372690D01*
X70602000Y-105372690D01*
X70602000Y-103672690D01*
X74327849Y-103672690D01*
X74460324Y-103993303D01*
X74705407Y-104238814D01*
X75025788Y-104371848D01*
X75372690Y-104372151D01*
X75693303Y-104239676D01*
X75938814Y-103994593D01*
X76071848Y-103674212D01*
X76071856Y-103664534D01*
X79819693Y-103664534D01*
X79952168Y-103985147D01*
X80197251Y-104230658D01*
X80517632Y-104363692D01*
X80864534Y-104363995D01*
X81185147Y-104231520D01*
X81430658Y-103986437D01*
X81563692Y-103666056D01*
X81563995Y-103319154D01*
X81503478Y-103172690D01*
X82927849Y-103172690D01*
X83060324Y-103493303D01*
X83173000Y-103606176D01*
X83173000Y-104893788D01*
X83061186Y-105005407D01*
X82928152Y-105325788D01*
X82927849Y-105672690D01*
X83060324Y-105993303D01*
X83305407Y-106238814D01*
X83625788Y-106371848D01*
X83972690Y-106372151D01*
X84293303Y-106239676D01*
X84525167Y-106008216D01*
X84560324Y-106093303D01*
X84805407Y-106338814D01*
X85125788Y-106471848D01*
X85472690Y-106472151D01*
X85793303Y-106339676D01*
X85805541Y-106327460D01*
X85816875Y-106338814D01*
X86137256Y-106471848D01*
X86484158Y-106472151D01*
X86804771Y-106339676D01*
X87050282Y-106094593D01*
X87183316Y-105774212D01*
X87183619Y-105427310D01*
X87051144Y-105106697D01*
X86938468Y-104993824D01*
X86938468Y-103517680D01*
X87050282Y-103406061D01*
X87183316Y-103085680D01*
X87183619Y-102738778D01*
X87051144Y-102418165D01*
X86806061Y-102172654D01*
X86485680Y-102039620D01*
X86138778Y-102039317D01*
X85818165Y-102171792D01*
X85572654Y-102416875D01*
X85439620Y-102737256D01*
X85439317Y-103084158D01*
X85571792Y-103404771D01*
X85684468Y-103517644D01*
X85684468Y-104815458D01*
X85474212Y-104728152D01*
X85127310Y-104727849D01*
X84806697Y-104860324D01*
X84574833Y-105091784D01*
X84539676Y-105006697D01*
X84427000Y-104893824D01*
X84427000Y-103606212D01*
X84538814Y-103494593D01*
X84671848Y-103174212D01*
X84672151Y-102827310D01*
X84539676Y-102506697D01*
X84294593Y-102261186D01*
X83974212Y-102128152D01*
X83627310Y-102127849D01*
X83306697Y-102260324D01*
X83061186Y-102505407D01*
X82928152Y-102825788D01*
X82927849Y-103172690D01*
X81503478Y-103172690D01*
X81431520Y-102998541D01*
X81186437Y-102753030D01*
X80866056Y-102619996D01*
X80519154Y-102619693D01*
X80198541Y-102752168D01*
X79953030Y-102997251D01*
X79819996Y-103317632D01*
X79819693Y-103664534D01*
X76071856Y-103664534D01*
X76072151Y-103327310D01*
X75939676Y-103006697D01*
X75694593Y-102761186D01*
X75374212Y-102628152D01*
X75027310Y-102627849D01*
X74706697Y-102760324D01*
X74461186Y-103005407D01*
X74328152Y-103325788D01*
X74327849Y-103672690D01*
X70602000Y-103672690D01*
X70602000Y-101072690D01*
X71764273Y-101072690D01*
X71896748Y-101393303D01*
X72141831Y-101638814D01*
X72462212Y-101771848D01*
X72809114Y-101772151D01*
X73129727Y-101639676D01*
X73375238Y-101394593D01*
X73508272Y-101074212D01*
X73508273Y-101072690D01*
X76927849Y-101072690D01*
X77060324Y-101393303D01*
X77305407Y-101638814D01*
X77625788Y-101771848D01*
X77972690Y-101772151D01*
X78293303Y-101639676D01*
X78538814Y-101394593D01*
X78630956Y-101172690D01*
X86727849Y-101172690D01*
X86860324Y-101493303D01*
X87105407Y-101738814D01*
X87425788Y-101871848D01*
X87772690Y-101872151D01*
X88073000Y-101748065D01*
X88073000Y-104993788D01*
X87961186Y-105105407D01*
X87828152Y-105425788D01*
X87827849Y-105772690D01*
X87960324Y-106093303D01*
X88205407Y-106338814D01*
X88525788Y-106471848D01*
X88872690Y-106472151D01*
X89193303Y-106339676D01*
X89438814Y-106094593D01*
X89530956Y-105872690D01*
X89727849Y-105872690D01*
X89860324Y-106193303D01*
X90105407Y-106438814D01*
X90425788Y-106571848D01*
X90772690Y-106572151D01*
X91093303Y-106439676D01*
X91338814Y-106194593D01*
X91471848Y-105874212D01*
X91472151Y-105527310D01*
X91339676Y-105206697D01*
X91227000Y-105093824D01*
X91227000Y-103647615D01*
X91301925Y-103572690D01*
X94027849Y-103572690D01*
X94160324Y-103893303D01*
X94273000Y-104006176D01*
X94273000Y-104300000D01*
X94320728Y-104539943D01*
X94435109Y-104711126D01*
X94456644Y-104743356D01*
X95327987Y-105614699D01*
X95327849Y-105772690D01*
X95460324Y-106093303D01*
X95705407Y-106338814D01*
X95796431Y-106376610D01*
X95796210Y-106629499D01*
X95928685Y-106950112D01*
X96173768Y-107195623D01*
X96494149Y-107328657D01*
X96841051Y-107328960D01*
X97161664Y-107196485D01*
X97407175Y-106951402D01*
X97540209Y-106631021D01*
X97540331Y-106491900D01*
X97662702Y-106492007D01*
X97921614Y-106385026D01*
X98205740Y-106503006D01*
X98552642Y-106503309D01*
X98873255Y-106370834D01*
X98903530Y-106340612D01*
X99091757Y-106418771D01*
X99140285Y-106418813D01*
X99216188Y-106602513D01*
X99461271Y-106848024D01*
X99781652Y-106981058D01*
X100128554Y-106981361D01*
X100449167Y-106848886D01*
X100694678Y-106603803D01*
X100754000Y-106460940D01*
X100850613Y-106461024D01*
X101130702Y-106345293D01*
X101393701Y-106454500D01*
X101740603Y-106454803D01*
X102061216Y-106322328D01*
X102306727Y-106077245D01*
X102433189Y-105772690D01*
X118963849Y-105772690D01*
X119096324Y-106093303D01*
X119341407Y-106338814D01*
X119661788Y-106471848D01*
X120008690Y-106472151D01*
X120329303Y-106339676D01*
X120574814Y-106094593D01*
X120707848Y-105774212D01*
X120708151Y-105427310D01*
X120575676Y-105106697D01*
X120330593Y-104861186D01*
X120010212Y-104728152D01*
X119663310Y-104727849D01*
X119342697Y-104860324D01*
X119097186Y-105105407D01*
X118964152Y-105425788D01*
X118963849Y-105772690D01*
X102433189Y-105772690D01*
X102439761Y-105756864D01*
X102440064Y-105409962D01*
X102307589Y-105089349D01*
X102062506Y-104843838D01*
X102016950Y-104824921D01*
X102016950Y-104816684D01*
X102128764Y-104705065D01*
X102261798Y-104384684D01*
X102262101Y-104037782D01*
X102129626Y-103717169D01*
X101884543Y-103471658D01*
X101564162Y-103338624D01*
X101217260Y-103338321D01*
X100957341Y-103445718D01*
X100674212Y-103328152D01*
X100566442Y-103328058D01*
X100671848Y-103074212D01*
X100672151Y-102727310D01*
X100539676Y-102406697D01*
X100405903Y-102272690D01*
X113627849Y-102272690D01*
X113760324Y-102593303D01*
X114005407Y-102838814D01*
X114325788Y-102971848D01*
X114672690Y-102972151D01*
X114993303Y-102839676D01*
X115238814Y-102594593D01*
X115371848Y-102274212D01*
X115372151Y-101927310D01*
X115239676Y-101606697D01*
X114994593Y-101361186D01*
X114674212Y-101228152D01*
X114327310Y-101227849D01*
X114006697Y-101360324D01*
X113761186Y-101605407D01*
X113628152Y-101925788D01*
X113627849Y-102272690D01*
X100405903Y-102272690D01*
X100294593Y-102161186D01*
X99974212Y-102028152D01*
X99627310Y-102027849D01*
X99306697Y-102160324D01*
X99061186Y-102405407D01*
X98970406Y-102624029D01*
X98711523Y-102623803D01*
X98432588Y-102739057D01*
X98168428Y-102629368D01*
X97821526Y-102629065D01*
X97500913Y-102761540D01*
X97377801Y-102884437D01*
X97198798Y-102705121D01*
X96878417Y-102572087D01*
X96531515Y-102571784D01*
X96322435Y-102658174D01*
X96310723Y-102646442D01*
X95990342Y-102513408D01*
X95643440Y-102513105D01*
X95339960Y-102638501D01*
X95074212Y-102528152D01*
X94727310Y-102527849D01*
X94406697Y-102660324D01*
X94161186Y-102905407D01*
X94028152Y-103225788D01*
X94027849Y-103572690D01*
X91301925Y-103572690D01*
X92543356Y-102331259D01*
X92574621Y-102284468D01*
X92679272Y-102127846D01*
X92697636Y-102035525D01*
X92838814Y-101894593D01*
X92971848Y-101574212D01*
X92972151Y-101227310D01*
X92839676Y-100906697D01*
X92594593Y-100661186D01*
X92274212Y-100528152D01*
X91927310Y-100527849D01*
X91606697Y-100660324D01*
X91361186Y-100905407D01*
X91228152Y-101225788D01*
X91227849Y-101572690D01*
X91315754Y-101785437D01*
X90156644Y-102944547D01*
X90020728Y-103147960D01*
X89973000Y-103387903D01*
X89973000Y-105093788D01*
X89861186Y-105205407D01*
X89728152Y-105525788D01*
X89727849Y-105872690D01*
X89530956Y-105872690D01*
X89571848Y-105774212D01*
X89572151Y-105427310D01*
X89439676Y-105106697D01*
X89327000Y-104993824D01*
X89327000Y-101406212D01*
X89438814Y-101294593D01*
X89571848Y-100974212D01*
X89572151Y-100627310D01*
X89439676Y-100306697D01*
X89194593Y-100061186D01*
X88874212Y-99928152D01*
X88527310Y-99927849D01*
X88206697Y-100060324D01*
X88031661Y-100235054D01*
X87774212Y-100128152D01*
X87427310Y-100127849D01*
X87106697Y-100260324D01*
X86861186Y-100505407D01*
X86728152Y-100825788D01*
X86727849Y-101172690D01*
X78630956Y-101172690D01*
X78671848Y-101074212D01*
X78672151Y-100727310D01*
X78539676Y-100406697D01*
X78294593Y-100161186D01*
X77974212Y-100028152D01*
X77627310Y-100027849D01*
X77306697Y-100160324D01*
X77061186Y-100405407D01*
X76928152Y-100725788D01*
X76927849Y-101072690D01*
X73508273Y-101072690D01*
X73508575Y-100727310D01*
X73376100Y-100406697D01*
X73131017Y-100161186D01*
X72810636Y-100028152D01*
X72463734Y-100027849D01*
X72143121Y-100160324D01*
X71897610Y-100405407D01*
X71764576Y-100725788D01*
X71764273Y-101072690D01*
X70602000Y-101072690D01*
X70602000Y-98172690D01*
X90327849Y-98172690D01*
X90460324Y-98493303D01*
X90705407Y-98738814D01*
X91025788Y-98871848D01*
X91372690Y-98872151D01*
X91693303Y-98739676D01*
X91938814Y-98494593D01*
X92071848Y-98174212D01*
X92071849Y-98172690D01*
X92827849Y-98172690D01*
X92960324Y-98493303D01*
X93205407Y-98738814D01*
X93525788Y-98871848D01*
X93872690Y-98872151D01*
X94193303Y-98739676D01*
X94438814Y-98494593D01*
X94489432Y-98372690D01*
X119027849Y-98372690D01*
X119160324Y-98693303D01*
X119405407Y-98938814D01*
X119725788Y-99071848D01*
X120072690Y-99072151D01*
X120393303Y-98939676D01*
X120638814Y-98694593D01*
X120771848Y-98374212D01*
X120772151Y-98027310D01*
X120639676Y-97706697D01*
X120394593Y-97461186D01*
X120074212Y-97328152D01*
X119727310Y-97327849D01*
X119406697Y-97460324D01*
X119161186Y-97705407D01*
X119028152Y-98025788D01*
X119027849Y-98372690D01*
X94489432Y-98372690D01*
X94571848Y-98174212D01*
X94572151Y-97827310D01*
X94439676Y-97506697D01*
X94194593Y-97261186D01*
X93874212Y-97128152D01*
X93527310Y-97127849D01*
X93206697Y-97260324D01*
X92961186Y-97505407D01*
X92828152Y-97825788D01*
X92827849Y-98172690D01*
X92071849Y-98172690D01*
X92072151Y-97827310D01*
X91939676Y-97506697D01*
X91694593Y-97261186D01*
X91374212Y-97128152D01*
X91027310Y-97127849D01*
X90706697Y-97260324D01*
X90461186Y-97505407D01*
X90328152Y-97825788D01*
X90327849Y-98172690D01*
X70602000Y-98172690D01*
X70602000Y-97072690D01*
X70827849Y-97072690D01*
X70960324Y-97393303D01*
X71205407Y-97638814D01*
X71525788Y-97771848D01*
X71872690Y-97772151D01*
X72193303Y-97639676D01*
X72438814Y-97394593D01*
X72571848Y-97074212D01*
X72572151Y-96727310D01*
X72439676Y-96406697D01*
X72194593Y-96161186D01*
X71874212Y-96028152D01*
X71527310Y-96027849D01*
X71206697Y-96160324D01*
X70961186Y-96405407D01*
X70828152Y-96725788D01*
X70827849Y-97072690D01*
X70602000Y-97072690D01*
X70602000Y-95472690D01*
X73894283Y-95472690D01*
X74026758Y-95793303D01*
X74271841Y-96038814D01*
X74592222Y-96171848D01*
X74939124Y-96172151D01*
X75259737Y-96039676D01*
X75505248Y-95794593D01*
X75638282Y-95474212D01*
X75638585Y-95127310D01*
X75506110Y-94806697D01*
X75261027Y-94561186D01*
X74940646Y-94428152D01*
X74593744Y-94427849D01*
X74273131Y-94560324D01*
X74027620Y-94805407D01*
X73894586Y-95125788D01*
X73894283Y-95472690D01*
X70602000Y-95472690D01*
X70602000Y-92772690D01*
X71427849Y-92772690D01*
X71560324Y-93093303D01*
X71805407Y-93338814D01*
X72125788Y-93471848D01*
X72472690Y-93472151D01*
X72793303Y-93339676D01*
X73038814Y-93094593D01*
X73171848Y-92774212D01*
X73171936Y-92672690D01*
X91527849Y-92672690D01*
X91660324Y-92993303D01*
X91773000Y-93106176D01*
X91773000Y-94693788D01*
X91661186Y-94805407D01*
X91528152Y-95125788D01*
X91527849Y-95472690D01*
X91660324Y-95793303D01*
X91905407Y-96038814D01*
X92225788Y-96171848D01*
X92572690Y-96172151D01*
X92893303Y-96039676D01*
X93138814Y-95794593D01*
X93271848Y-95474212D01*
X93272151Y-95127310D01*
X93139676Y-94806697D01*
X93027000Y-94693824D01*
X93027000Y-93106212D01*
X93050058Y-93083194D01*
X93205407Y-93238814D01*
X93525788Y-93371848D01*
X93872690Y-93372151D01*
X94193303Y-93239676D01*
X94438814Y-92994593D01*
X94571848Y-92674212D01*
X94571849Y-92672690D01*
X94813849Y-92672690D01*
X94946324Y-92993303D01*
X95191407Y-93238814D01*
X95511788Y-93371848D01*
X95858690Y-93372151D01*
X96071437Y-93284246D01*
X96230547Y-93443356D01*
X96363062Y-93531900D01*
X96199981Y-93694697D01*
X96066947Y-94015078D01*
X96066644Y-94361980D01*
X96199119Y-94682593D01*
X96311795Y-94795466D01*
X96311795Y-95155061D01*
X96161186Y-95305407D01*
X96028152Y-95625788D01*
X96027849Y-95972690D01*
X96160324Y-96293303D01*
X96405407Y-96538814D01*
X96725788Y-96671848D01*
X97072690Y-96672151D01*
X97393303Y-96539676D01*
X97638814Y-96294593D01*
X97653656Y-96258849D01*
X97925788Y-96371848D01*
X98272690Y-96372151D01*
X98593303Y-96239676D01*
X98754369Y-96078891D01*
X98760324Y-96093303D01*
X99005407Y-96338814D01*
X99325788Y-96471848D01*
X99672690Y-96472151D01*
X99993303Y-96339676D01*
X100238814Y-96094593D01*
X100371848Y-95774212D01*
X100371937Y-95672063D01*
X100472690Y-95672151D01*
X100793303Y-95539676D01*
X101038814Y-95294593D01*
X101171848Y-94974212D01*
X101172151Y-94627310D01*
X101039676Y-94306697D01*
X100927000Y-94193824D01*
X100927000Y-93944041D01*
X100879272Y-93704098D01*
X100743356Y-93500685D01*
X100415361Y-93172690D01*
X101433849Y-93172690D01*
X101566324Y-93493303D01*
X101811407Y-93738814D01*
X102131788Y-93871848D01*
X102478690Y-93872151D01*
X102799303Y-93739676D01*
X103044814Y-93494593D01*
X103095432Y-93372690D01*
X119127849Y-93372690D01*
X119260324Y-93693303D01*
X119505407Y-93938814D01*
X119825788Y-94071848D01*
X120172690Y-94072151D01*
X120493303Y-93939676D01*
X120738814Y-93694593D01*
X120871848Y-93374212D01*
X120872151Y-93027310D01*
X120739676Y-92706697D01*
X120494593Y-92461186D01*
X120174212Y-92328152D01*
X119827310Y-92327849D01*
X119506697Y-92460324D01*
X119261186Y-92705407D01*
X119128152Y-93025788D01*
X119127849Y-93372690D01*
X103095432Y-93372690D01*
X103177848Y-93174212D01*
X103178151Y-92827310D01*
X103045676Y-92506697D01*
X102800593Y-92261186D01*
X102480212Y-92128152D01*
X102133310Y-92127849D01*
X101812697Y-92260324D01*
X101567186Y-92505407D01*
X101434152Y-92825788D01*
X101433849Y-93172690D01*
X100415361Y-93172690D01*
X99642345Y-92399674D01*
X99642483Y-92241683D01*
X99510008Y-91921070D01*
X99264925Y-91675559D01*
X98944544Y-91542525D01*
X98597642Y-91542222D01*
X98277029Y-91674697D01*
X98031518Y-91919780D01*
X97898484Y-92240161D01*
X97898368Y-92373000D01*
X96933615Y-92373000D01*
X96617259Y-92056644D01*
X96540577Y-92005407D01*
X96413846Y-91920728D01*
X96321525Y-91902364D01*
X96180593Y-91761186D01*
X95860212Y-91628152D01*
X95513310Y-91627849D01*
X95192697Y-91760324D01*
X94947186Y-92005407D01*
X94814152Y-92325788D01*
X94813849Y-92672690D01*
X94571849Y-92672690D01*
X94572151Y-92327310D01*
X94439676Y-92006697D01*
X94194593Y-91761186D01*
X93874212Y-91628152D01*
X93527310Y-91627849D01*
X93206697Y-91760324D01*
X93049942Y-91916806D01*
X92894593Y-91761186D01*
X92574212Y-91628152D01*
X92227310Y-91627849D01*
X91906697Y-91760324D01*
X91661186Y-92005407D01*
X91528152Y-92325788D01*
X91527849Y-92672690D01*
X73171936Y-92672690D01*
X73172151Y-92427310D01*
X73039676Y-92106697D01*
X72794593Y-91861186D01*
X72474212Y-91728152D01*
X72127310Y-91727849D01*
X71806697Y-91860324D01*
X71561186Y-92105407D01*
X71428152Y-92425788D01*
X71427849Y-92772690D01*
X70602000Y-92772690D01*
X70602000Y-90872690D01*
X74427849Y-90872690D01*
X74560324Y-91193303D01*
X74805407Y-91438814D01*
X75125788Y-91571848D01*
X75472690Y-91572151D01*
X75793303Y-91439676D01*
X76038814Y-91194593D01*
X76171848Y-90874212D01*
X76171849Y-90872690D01*
X77027849Y-90872690D01*
X77160324Y-91193303D01*
X77405407Y-91438814D01*
X77725788Y-91571848D01*
X78072690Y-91572151D01*
X78393303Y-91439676D01*
X78460405Y-91372690D01*
X82927849Y-91372690D01*
X83060324Y-91693303D01*
X83305407Y-91938814D01*
X83625788Y-92071848D01*
X83668836Y-92071886D01*
X83760324Y-92293303D01*
X84005407Y-92538814D01*
X84325788Y-92671848D01*
X84672690Y-92672151D01*
X84993303Y-92539676D01*
X85238814Y-92294593D01*
X85371848Y-91974212D01*
X85371987Y-91814725D01*
X86414699Y-90772013D01*
X86572690Y-90772151D01*
X86893303Y-90639676D01*
X87138814Y-90394593D01*
X87189432Y-90272690D01*
X110827849Y-90272690D01*
X110960324Y-90593303D01*
X111205407Y-90838814D01*
X111525788Y-90971848D01*
X111872690Y-90972151D01*
X112193303Y-90839676D01*
X112438814Y-90594593D01*
X112571848Y-90274212D01*
X112572151Y-89927310D01*
X112439676Y-89606697D01*
X112194593Y-89361186D01*
X111874212Y-89228152D01*
X111527310Y-89227849D01*
X111206697Y-89360324D01*
X110961186Y-89605407D01*
X110828152Y-89925788D01*
X110827849Y-90272690D01*
X87189432Y-90272690D01*
X87271848Y-90074212D01*
X87272151Y-89727310D01*
X87139676Y-89406697D01*
X86894593Y-89161186D01*
X86574212Y-89028152D01*
X86260839Y-89027878D01*
X86261092Y-88738369D01*
X86128617Y-88417756D01*
X85883534Y-88172245D01*
X85563153Y-88039211D01*
X85216251Y-88038908D01*
X84895638Y-88171383D01*
X84650127Y-88416466D01*
X84517093Y-88736847D01*
X84516954Y-88896334D01*
X83356644Y-90056644D01*
X83220728Y-90260057D01*
X83173000Y-90500000D01*
X83173000Y-90593788D01*
X83061186Y-90705407D01*
X82928152Y-91025788D01*
X82927849Y-91372690D01*
X78460405Y-91372690D01*
X78638814Y-91194593D01*
X78771848Y-90874212D01*
X78772151Y-90527310D01*
X78639676Y-90206697D01*
X78394593Y-89961186D01*
X78074212Y-89828152D01*
X77727310Y-89827849D01*
X77406697Y-89960324D01*
X77161186Y-90205407D01*
X77028152Y-90525788D01*
X77027849Y-90872690D01*
X76171849Y-90872690D01*
X76172151Y-90527310D01*
X76039676Y-90206697D01*
X75794593Y-89961186D01*
X75474212Y-89828152D01*
X75127310Y-89827849D01*
X74806697Y-89960324D01*
X74561186Y-90205407D01*
X74428152Y-90525788D01*
X74427849Y-90872690D01*
X70602000Y-90872690D01*
X70602000Y-88368634D01*
X71727849Y-88368634D01*
X71860324Y-88689247D01*
X72105407Y-88934758D01*
X72425788Y-89067792D01*
X72772690Y-89068095D01*
X73093303Y-88935620D01*
X73338814Y-88690537D01*
X73470795Y-88372690D01*
X77027849Y-88372690D01*
X77160324Y-88693303D01*
X77405407Y-88938814D01*
X77725788Y-89071848D01*
X78072690Y-89072151D01*
X78393303Y-88939676D01*
X78638814Y-88694593D01*
X78771848Y-88374212D01*
X78772151Y-88027310D01*
X78639676Y-87706697D01*
X78605729Y-87672690D01*
X92127849Y-87672690D01*
X92260324Y-87993303D01*
X92505407Y-88238814D01*
X92825788Y-88371848D01*
X93172690Y-88372151D01*
X93493303Y-88239676D01*
X93738814Y-87994593D01*
X93871848Y-87674212D01*
X93872151Y-87327310D01*
X93739676Y-87006697D01*
X93494593Y-86761186D01*
X93174212Y-86628152D01*
X92827310Y-86627849D01*
X92506697Y-86760324D01*
X92261186Y-87005407D01*
X92128152Y-87325788D01*
X92127849Y-87672690D01*
X78605729Y-87672690D01*
X78394593Y-87461186D01*
X78074212Y-87328152D01*
X77727310Y-87327849D01*
X77406697Y-87460324D01*
X77161186Y-87705407D01*
X77028152Y-88025788D01*
X77027849Y-88372690D01*
X73470795Y-88372690D01*
X73471848Y-88370156D01*
X73472151Y-88023254D01*
X73339676Y-87702641D01*
X73094593Y-87457130D01*
X72774212Y-87324096D01*
X72427310Y-87323793D01*
X72106697Y-87456268D01*
X71861186Y-87701351D01*
X71728152Y-88021732D01*
X71727849Y-88368634D01*
X70602000Y-88368634D01*
X70602000Y-85672690D01*
X119027849Y-85672690D01*
X119160324Y-85993303D01*
X119405407Y-86238814D01*
X119725788Y-86371848D01*
X120072690Y-86372151D01*
X120393303Y-86239676D01*
X120638814Y-85994593D01*
X120771848Y-85674212D01*
X120772151Y-85327310D01*
X120639676Y-85006697D01*
X120394593Y-84761186D01*
X120074212Y-84628152D01*
X119727310Y-84627849D01*
X119406697Y-84760324D01*
X119161186Y-85005407D01*
X119028152Y-85325788D01*
X119027849Y-85672690D01*
X70602000Y-85672690D01*
X70602000Y-84372690D01*
X71527849Y-84372690D01*
X71660324Y-84693303D01*
X71905407Y-84938814D01*
X72225788Y-85071848D01*
X72572690Y-85072151D01*
X72893303Y-84939676D01*
X73138814Y-84694593D01*
X73271848Y-84374212D01*
X73272151Y-84027310D01*
X73208264Y-83872690D01*
X85827849Y-83872690D01*
X85960324Y-84193303D01*
X86205407Y-84438814D01*
X86525788Y-84571848D01*
X86872690Y-84572151D01*
X87193303Y-84439676D01*
X87306176Y-84327000D01*
X87493788Y-84327000D01*
X87605407Y-84438814D01*
X87925788Y-84571848D01*
X88272690Y-84572151D01*
X88593303Y-84439676D01*
X88838814Y-84194593D01*
X88971848Y-83874212D01*
X88972151Y-83527310D01*
X88839676Y-83206697D01*
X88594593Y-82961186D01*
X88274212Y-82828152D01*
X87927310Y-82827849D01*
X87606697Y-82960324D01*
X87493824Y-83073000D01*
X87306212Y-83073000D01*
X87194593Y-82961186D01*
X86874212Y-82828152D01*
X86527310Y-82827849D01*
X86206697Y-82960324D01*
X85961186Y-83205407D01*
X85828152Y-83525788D01*
X85827849Y-83872690D01*
X73208264Y-83872690D01*
X73139676Y-83706697D01*
X72894593Y-83461186D01*
X72574212Y-83328152D01*
X72227310Y-83327849D01*
X71906697Y-83460324D01*
X71661186Y-83705407D01*
X71528152Y-84025788D01*
X71527849Y-84372690D01*
X70602000Y-84372690D01*
X70602000Y-82772690D01*
X73827849Y-82772690D01*
X73960324Y-83093303D01*
X74205407Y-83338814D01*
X74525788Y-83471848D01*
X74872690Y-83472151D01*
X75193303Y-83339676D01*
X75438814Y-83094593D01*
X75571848Y-82774212D01*
X75572151Y-82427310D01*
X75439676Y-82106697D01*
X75194593Y-81861186D01*
X74874212Y-81728152D01*
X74527310Y-81727849D01*
X74206697Y-81860324D01*
X73961186Y-82105407D01*
X73828152Y-82425788D01*
X73827849Y-82772690D01*
X70602000Y-82772690D01*
X70602000Y-81602000D01*
X81464774Y-81602000D01*
X81361186Y-81705407D01*
M02*
