M48
;DRILL file {KiCad 4.0.4-stable} date 12/08/16 20:33:31
;FORMAT={-:-/ absolute / inch / decimal}
FMAT,2
INCH,TZ
T1C0.013
%
G90
G05
M72
T1
X2.8228Y-3.815
X2.8386Y-4.1417
X2.8465Y-3.6457
X2.8504Y-3.315
X2.8583Y-3.4723
X2.8597Y-3.9724
X2.9409Y-3.252
X2.9409Y-4.2441
X2.9436Y-3.752
X2.9528Y-4.3858
X2.9528Y-4.4173
X2.9528Y-4.4488
X2.9606Y-4.0748
X2.9646Y-3.5709
X2.9961Y-4.3858
X2.9961Y-4.4173
X2.9961Y-4.4488
X3.063Y-3.9724
X3.0669Y-3.4724
X3.0669Y-3.5709
X3.1768Y-4.0745
X3.2087Y-3.3858
X3.2205Y-4.2559
X3.2323Y-3.2362
X3.2992Y-3.5906
X3.2992Y-4.0551
X3.2992Y-4.1535
X3.3268Y-3.6142
X3.3583Y-4.1575
X3.3618Y-3.5004
X3.3959Y-4.4112
X3.3981Y-4.0516
X3.3981Y-4.1575
X3.4016Y-3.5394
X3.4134Y-3.2953
X3.4488Y-3.9764
X3.4685Y-3.2953
X3.4921Y-3.9685
X3.4921Y-4.1575
X3.5433Y-4.4134
X3.5669Y-4.1614
X3.5906Y-3.8583
X3.6187Y-4.4173
X3.626Y-3.9921
X3.6378Y-3.6417
X3.6378Y-3.752
X3.6575Y-4.4173
X3.6614Y-3.4449
X3.689Y-3.6417
X3.689Y-3.8583
X3.6929Y-4.378
X3.7283Y-4.2283
X3.7362Y-4.0709
X3.7402Y-4.4094
X3.7672Y-3.6417
X3.7723Y-4.0703
X3.7874Y-4.1575
X3.8058Y-4.1912
X3.8071Y-3.3386
X3.8073Y-4.0726
X3.815Y-3.7717
X3.8165Y-3.7082
X3.8189Y-4.4094
X3.8382Y-4.1583
X3.858Y-4.0749
X3.8609Y-3.6921
X3.8622Y-3.7598
X3.8732Y-4.1587
X3.8886Y-3.6384
X3.8931Y-4.0746
X3.9081Y-4.1554
X3.9173Y-3.7638
X3.9173Y-4.4134
X3.9291Y-4.0512
X3.9353Y-4.1775
X3.9488Y-3.7323
X3.9567Y-4.1024
X3.9637Y-4.157
X3.9724Y-4.4134
X3.9917Y-4.1028
X3.9987Y-4.1568
X4.0276Y-4.3937
X4.0278Y-3.6614
X4.0787Y-4.4134
X4.3976Y-3.4213
X4.3976Y-3.5472
X4.5079Y-4.0197
X4.5118Y-3.9213
X4.5551Y-4.378
X4.5551Y-4.4094
X4.5551Y-4.437
X4.5984Y-4.378
X4.5984Y-4.4094
X4.5984Y-4.4409
X4.6142Y-3.4213
X4.6142Y-3.9134
X4.6299Y-3.2441
X4.6299Y-4.2598
X4.6575Y-3.7441
X4.7165Y-3.52
X4.7165Y-4.02
X4.718Y-4.1575
X4.7205Y-3.3661
X4.7205Y-3.8661
X4.7244Y-3.6693
T0
M30
