G04 #@! TF.FileFunction,Legend,Bot*
%FSLAX46Y46*%
G04 Gerber Fmt 4.6, Leading zero omitted, Abs format (unit mm)*
G04 Created by KiCad (PCBNEW 4.0.4-stable) date 12/08/16 20:58:41*
%MOMM*%
%LPD*%
G01*
G04 APERTURE LIST*
%ADD10C,0.100000*%
%ADD11C,0.200000*%
%ADD12C,0.300000*%
%ADD13C,0.150000*%
%ADD14C,0.010000*%
G04 APERTURE END LIST*
D10*
X118292857Y-93302381D02*
X118221428Y-93326190D01*
X118102381Y-93326190D01*
X118054762Y-93302381D01*
X118030952Y-93278571D01*
X118007143Y-93230952D01*
X118007143Y-93183333D01*
X118030952Y-93135714D01*
X118054762Y-93111905D01*
X118102381Y-93088095D01*
X118197619Y-93064286D01*
X118245238Y-93040476D01*
X118269047Y-93016667D01*
X118292857Y-92969048D01*
X118292857Y-92921429D01*
X118269047Y-92873810D01*
X118245238Y-92850000D01*
X118197619Y-92826190D01*
X118078571Y-92826190D01*
X118007143Y-92850000D01*
X117792857Y-93326190D02*
X117792857Y-92826190D01*
X117602381Y-92826190D01*
X117554762Y-92850000D01*
X117530953Y-92873810D01*
X117507143Y-92921429D01*
X117507143Y-92992857D01*
X117530953Y-93040476D01*
X117554762Y-93064286D01*
X117602381Y-93088095D01*
X117792857Y-93088095D01*
X117126191Y-93064286D02*
X117054762Y-93088095D01*
X117030953Y-93111905D01*
X117007143Y-93159524D01*
X117007143Y-93230952D01*
X117030953Y-93278571D01*
X117054762Y-93302381D01*
X117102381Y-93326190D01*
X117292857Y-93326190D01*
X117292857Y-92826190D01*
X117126191Y-92826190D01*
X117078572Y-92850000D01*
X117054762Y-92873810D01*
X117030953Y-92921429D01*
X117030953Y-92969048D01*
X117054762Y-93016667D01*
X117078572Y-93040476D01*
X117126191Y-93064286D01*
X117292857Y-93064286D01*
X116507143Y-93278571D02*
X116530953Y-93302381D01*
X116602381Y-93326190D01*
X116650000Y-93326190D01*
X116721429Y-93302381D01*
X116769048Y-93254762D01*
X116792857Y-93207143D01*
X116816667Y-93111905D01*
X116816667Y-93040476D01*
X116792857Y-92945238D01*
X116769048Y-92897619D01*
X116721429Y-92850000D01*
X116650000Y-92826190D01*
X116602381Y-92826190D01*
X116530953Y-92850000D01*
X116507143Y-92873810D01*
D11*
X117121426Y-96621429D02*
X117121426Y-97673810D01*
X117183331Y-97797619D01*
X117245236Y-97859524D01*
X117369045Y-97921429D01*
X117554760Y-97921429D01*
X117678569Y-97859524D01*
X117121426Y-97426190D02*
X117245236Y-97488095D01*
X117492855Y-97488095D01*
X117616664Y-97426190D01*
X117678569Y-97364286D01*
X117740474Y-97240476D01*
X117740474Y-96869048D01*
X117678569Y-96745238D01*
X117616664Y-96683333D01*
X117492855Y-96621429D01*
X117245236Y-96621429D01*
X117121426Y-96683333D01*
X116502379Y-97488095D02*
X116502379Y-96621429D01*
X116502379Y-96188095D02*
X116564284Y-96250000D01*
X116502379Y-96311905D01*
X116440474Y-96250000D01*
X116502379Y-96188095D01*
X116502379Y-96311905D01*
X116069045Y-96621429D02*
X115573807Y-96621429D01*
X115883331Y-96188095D02*
X115883331Y-97302381D01*
X115821426Y-97426190D01*
X115697617Y-97488095D01*
X115573807Y-97488095D01*
X115140474Y-97488095D02*
X115140474Y-96188095D01*
X114583331Y-97488095D02*
X114583331Y-96807143D01*
X114645236Y-96683333D01*
X114769046Y-96621429D01*
X114954760Y-96621429D01*
X115078569Y-96683333D01*
X115140474Y-96745238D01*
X113407141Y-96621429D02*
X113407141Y-97488095D01*
X113964284Y-96621429D02*
X113964284Y-97302381D01*
X113902379Y-97426190D01*
X113778570Y-97488095D01*
X113592856Y-97488095D01*
X113469046Y-97426190D01*
X113407141Y-97364286D01*
X112788094Y-97488095D02*
X112788094Y-96188095D01*
X112788094Y-96683333D02*
X112664285Y-96621429D01*
X112416666Y-96621429D01*
X112292856Y-96683333D01*
X112230951Y-96745238D01*
X112169047Y-96869048D01*
X112169047Y-97240476D01*
X112230951Y-97364286D01*
X112292856Y-97426190D01*
X112416666Y-97488095D01*
X112664285Y-97488095D01*
X112788094Y-97426190D01*
X111611904Y-97364286D02*
X111549999Y-97426190D01*
X111611904Y-97488095D01*
X111673809Y-97426190D01*
X111611904Y-97364286D01*
X111611904Y-97488095D01*
X110435713Y-97426190D02*
X110559523Y-97488095D01*
X110807142Y-97488095D01*
X110930951Y-97426190D01*
X110992856Y-97364286D01*
X111054761Y-97240476D01*
X111054761Y-96869048D01*
X110992856Y-96745238D01*
X110930951Y-96683333D01*
X110807142Y-96621429D01*
X110559523Y-96621429D01*
X110435713Y-96683333D01*
X109692856Y-97488095D02*
X109816665Y-97426190D01*
X109878570Y-97364286D01*
X109940475Y-97240476D01*
X109940475Y-96869048D01*
X109878570Y-96745238D01*
X109816665Y-96683333D01*
X109692856Y-96621429D01*
X109507142Y-96621429D01*
X109383332Y-96683333D01*
X109321427Y-96745238D01*
X109259523Y-96869048D01*
X109259523Y-97240476D01*
X109321427Y-97364286D01*
X109383332Y-97426190D01*
X109507142Y-97488095D01*
X109692856Y-97488095D01*
X108702380Y-97488095D02*
X108702380Y-96621429D01*
X108702380Y-96745238D02*
X108640475Y-96683333D01*
X108516666Y-96621429D01*
X108330952Y-96621429D01*
X108207142Y-96683333D01*
X108145237Y-96807143D01*
X108145237Y-97488095D01*
X108145237Y-96807143D02*
X108083333Y-96683333D01*
X107959523Y-96621429D01*
X107773809Y-96621429D01*
X107649999Y-96683333D01*
X107588094Y-96807143D01*
X107588094Y-97488095D01*
X106040476Y-96126190D02*
X107154761Y-97797619D01*
X104864285Y-97488095D02*
X105297618Y-96869048D01*
X105607142Y-97488095D02*
X105607142Y-96188095D01*
X105111904Y-96188095D01*
X104988095Y-96250000D01*
X104926190Y-96311905D01*
X104864285Y-96435714D01*
X104864285Y-96621429D01*
X104926190Y-96745238D01*
X104988095Y-96807143D01*
X105111904Y-96869048D01*
X105607142Y-96869048D01*
X104121428Y-97488095D02*
X104245237Y-97426190D01*
X104307142Y-97364286D01*
X104369047Y-97240476D01*
X104369047Y-96869048D01*
X104307142Y-96745238D01*
X104245237Y-96683333D01*
X104121428Y-96621429D01*
X103935714Y-96621429D01*
X103811904Y-96683333D01*
X103749999Y-96745238D01*
X103688095Y-96869048D01*
X103688095Y-97240476D01*
X103749999Y-97364286D01*
X103811904Y-97426190D01*
X103935714Y-97488095D01*
X104121428Y-97488095D01*
X103130952Y-97488095D02*
X103130952Y-96188095D01*
X103130952Y-96683333D02*
X103007143Y-96621429D01*
X102759524Y-96621429D01*
X102635714Y-96683333D01*
X102573809Y-96745238D01*
X102511905Y-96869048D01*
X102511905Y-97240476D01*
X102573809Y-97364286D01*
X102635714Y-97426190D01*
X102759524Y-97488095D01*
X103007143Y-97488095D01*
X103130952Y-97426190D01*
X101459524Y-97426190D02*
X101583334Y-97488095D01*
X101830953Y-97488095D01*
X101954762Y-97426190D01*
X102016667Y-97302381D01*
X102016667Y-96807143D01*
X101954762Y-96683333D01*
X101830953Y-96621429D01*
X101583334Y-96621429D01*
X101459524Y-96683333D01*
X101397619Y-96807143D01*
X101397619Y-96930952D01*
X102016667Y-97054762D01*
X100840476Y-97488095D02*
X100840476Y-96621429D01*
X100840476Y-96869048D02*
X100778571Y-96745238D01*
X100716667Y-96683333D01*
X100592857Y-96621429D01*
X100469048Y-96621429D01*
X100221428Y-96621429D02*
X99726190Y-96621429D01*
X100035714Y-96188095D02*
X100035714Y-97302381D01*
X99973809Y-97426190D01*
X99850000Y-97488095D01*
X99726190Y-97488095D01*
X98859524Y-96807143D02*
X98673810Y-96869048D01*
X98611905Y-96930952D01*
X98550000Y-97054762D01*
X98550000Y-97240476D01*
X98611905Y-97364286D01*
X98673810Y-97426190D01*
X98797619Y-97488095D01*
X99292857Y-97488095D01*
X99292857Y-96188095D01*
X98859524Y-96188095D01*
X98735714Y-96250000D01*
X98673810Y-96311905D01*
X98611905Y-96435714D01*
X98611905Y-96559524D01*
X98673810Y-96683333D01*
X98735714Y-96745238D01*
X98859524Y-96807143D01*
X99292857Y-96807143D01*
X97435714Y-97488095D02*
X97435714Y-96807143D01*
X97497619Y-96683333D01*
X97621429Y-96621429D01*
X97869048Y-96621429D01*
X97992857Y-96683333D01*
X97435714Y-97426190D02*
X97559524Y-97488095D01*
X97869048Y-97488095D01*
X97992857Y-97426190D01*
X98054762Y-97302381D01*
X98054762Y-97178571D01*
X97992857Y-97054762D01*
X97869048Y-96992857D01*
X97559524Y-96992857D01*
X97435714Y-96930952D01*
X96816667Y-97488095D02*
X96816667Y-96621429D01*
X96816667Y-96869048D02*
X96754762Y-96745238D01*
X96692858Y-96683333D01*
X96569048Y-96621429D01*
X96445239Y-96621429D01*
X95454762Y-96621429D02*
X95454762Y-97488095D01*
X96011905Y-96621429D02*
X96011905Y-97302381D01*
X95950000Y-97426190D01*
X95826191Y-97488095D01*
X95640477Y-97488095D01*
X95516667Y-97426190D01*
X95454762Y-97364286D01*
X94278572Y-97426190D02*
X94402382Y-97488095D01*
X94650001Y-97488095D01*
X94773810Y-97426190D01*
X94835715Y-97364286D01*
X94897620Y-97240476D01*
X94897620Y-96869048D01*
X94835715Y-96745238D01*
X94773810Y-96683333D01*
X94650001Y-96621429D01*
X94402382Y-96621429D01*
X94278572Y-96683333D01*
X93721429Y-97488095D02*
X93721429Y-96188095D01*
X93164286Y-97488095D02*
X93164286Y-96807143D01*
X93226191Y-96683333D01*
X93350001Y-96621429D01*
X93535715Y-96621429D01*
X93659524Y-96683333D01*
X93721429Y-96745238D01*
X91616668Y-96126190D02*
X92730953Y-97797619D01*
X90316668Y-97611905D02*
X90440477Y-97550000D01*
X90564287Y-97426190D01*
X90750001Y-97240476D01*
X90873810Y-97178571D01*
X90997620Y-97178571D01*
X90935715Y-97488095D02*
X91059525Y-97426190D01*
X91183334Y-97302381D01*
X91245239Y-97054762D01*
X91245239Y-96621429D01*
X91183334Y-96373810D01*
X91059525Y-96250000D01*
X90935715Y-96188095D01*
X90688096Y-96188095D01*
X90564287Y-96250000D01*
X90440477Y-96373810D01*
X90378572Y-96621429D01*
X90378572Y-97054762D01*
X90440477Y-97302381D01*
X90564287Y-97426190D01*
X90688096Y-97488095D01*
X90935715Y-97488095D01*
X89264286Y-96621429D02*
X89264286Y-97488095D01*
X89821429Y-96621429D02*
X89821429Y-97302381D01*
X89759524Y-97426190D01*
X89635715Y-97488095D01*
X89450001Y-97488095D01*
X89326191Y-97426190D01*
X89264286Y-97364286D01*
X88088096Y-97488095D02*
X88088096Y-96807143D01*
X88150001Y-96683333D01*
X88273811Y-96621429D01*
X88521430Y-96621429D01*
X88645239Y-96683333D01*
X88088096Y-97426190D02*
X88211906Y-97488095D01*
X88521430Y-97488095D01*
X88645239Y-97426190D01*
X88707144Y-97302381D01*
X88707144Y-97178571D01*
X88645239Y-97054762D01*
X88521430Y-96992857D01*
X88211906Y-96992857D01*
X88088096Y-96930952D01*
X86911906Y-97488095D02*
X86911906Y-96188095D01*
X86911906Y-97426190D02*
X87035716Y-97488095D01*
X87283335Y-97488095D01*
X87407144Y-97426190D01*
X87469049Y-97364286D01*
X87530954Y-97240476D01*
X87530954Y-96869048D01*
X87469049Y-96745238D01*
X87407144Y-96683333D01*
X87283335Y-96621429D01*
X87035716Y-96621429D01*
X86911906Y-96683333D01*
X85673812Y-97488095D02*
X86292859Y-97488095D01*
X86292859Y-96188095D01*
X84745240Y-97426190D02*
X84869050Y-97488095D01*
X85116669Y-97488095D01*
X85240478Y-97426190D01*
X85302383Y-97302381D01*
X85302383Y-96807143D01*
X85240478Y-96683333D01*
X85116669Y-96621429D01*
X84869050Y-96621429D01*
X84745240Y-96683333D01*
X84683335Y-96807143D01*
X84683335Y-96930952D01*
X85302383Y-97054762D01*
X84250002Y-96621429D02*
X83940478Y-97488095D01*
X83630954Y-96621429D01*
X82640478Y-97426190D02*
X82764288Y-97488095D01*
X83011907Y-97488095D01*
X83135716Y-97426190D01*
X83197621Y-97302381D01*
X83197621Y-96807143D01*
X83135716Y-96683333D01*
X83011907Y-96621429D01*
X82764288Y-96621429D01*
X82640478Y-96683333D01*
X82578573Y-96807143D01*
X82578573Y-96930952D01*
X83197621Y-97054762D01*
X81835716Y-97488095D02*
X81959525Y-97426190D01*
X82021430Y-97302381D01*
X82021430Y-96188095D01*
X81402383Y-97426190D02*
X81216669Y-97488095D01*
X80907145Y-97488095D01*
X80783335Y-97426190D01*
X80721431Y-97364286D01*
X80659526Y-97240476D01*
X80659526Y-97116667D01*
X80721431Y-96992857D01*
X80783335Y-96930952D01*
X80907145Y-96869048D01*
X81154764Y-96807143D01*
X81278573Y-96745238D01*
X81340478Y-96683333D01*
X81402383Y-96559524D01*
X81402383Y-96435714D01*
X81340478Y-96311905D01*
X81278573Y-96250000D01*
X81154764Y-96188095D01*
X80845240Y-96188095D01*
X80659526Y-96250000D01*
X80102383Y-97488095D02*
X80102383Y-96188095D01*
X79545240Y-97488095D02*
X79545240Y-96807143D01*
X79607145Y-96683333D01*
X79730955Y-96621429D01*
X79916669Y-96621429D01*
X80040478Y-96683333D01*
X80102383Y-96745238D01*
X78926193Y-97488095D02*
X78926193Y-96621429D01*
X78926193Y-96188095D02*
X78988098Y-96250000D01*
X78926193Y-96311905D01*
X78864288Y-96250000D01*
X78926193Y-96188095D01*
X78926193Y-96311905D01*
X78492859Y-96621429D02*
X77997621Y-96621429D01*
X78307145Y-97488095D02*
X78307145Y-96373810D01*
X78245240Y-96250000D01*
X78121431Y-96188095D01*
X77997621Y-96188095D01*
X77750002Y-96621429D02*
X77254764Y-96621429D01*
X77564288Y-96188095D02*
X77564288Y-97302381D01*
X77502383Y-97426190D01*
X77378574Y-97488095D01*
X77254764Y-97488095D01*
X76326193Y-97426190D02*
X76450003Y-97488095D01*
X76697622Y-97488095D01*
X76821431Y-97426190D01*
X76883336Y-97302381D01*
X76883336Y-96807143D01*
X76821431Y-96683333D01*
X76697622Y-96621429D01*
X76450003Y-96621429D01*
X76326193Y-96683333D01*
X76264288Y-96807143D01*
X76264288Y-96930952D01*
X76883336Y-97054762D01*
X75707145Y-97488095D02*
X75707145Y-96621429D01*
X75707145Y-96869048D02*
X75645240Y-96745238D01*
X75583336Y-96683333D01*
X75459526Y-96621429D01*
X75335717Y-96621429D01*
D10*
X86697619Y-112845238D02*
X86673810Y-112773809D01*
X86673810Y-112654762D01*
X86697619Y-112607143D01*
X86721429Y-112583333D01*
X86769048Y-112559524D01*
X86816667Y-112559524D01*
X86864286Y-112583333D01*
X86888095Y-112607143D01*
X86911905Y-112654762D01*
X86935714Y-112750000D01*
X86959524Y-112797619D01*
X86983333Y-112821428D01*
X87030952Y-112845238D01*
X87078571Y-112845238D01*
X87126190Y-112821428D01*
X87150000Y-112797619D01*
X87173810Y-112750000D01*
X87173810Y-112630952D01*
X87150000Y-112559524D01*
X86721429Y-112059524D02*
X86697619Y-112083334D01*
X86673810Y-112154762D01*
X86673810Y-112202381D01*
X86697619Y-112273810D01*
X86745238Y-112321429D01*
X86792857Y-112345238D01*
X86888095Y-112369048D01*
X86959524Y-112369048D01*
X87054762Y-112345238D01*
X87102381Y-112321429D01*
X87150000Y-112273810D01*
X87173810Y-112202381D01*
X87173810Y-112154762D01*
X87150000Y-112083334D01*
X87126190Y-112059524D01*
X86673810Y-111607143D02*
X86673810Y-111845238D01*
X87173810Y-111845238D01*
X86673810Y-111440476D02*
X87173810Y-111440476D01*
X86673810Y-111154762D02*
X86959524Y-111369048D01*
X87173810Y-111154762D02*
X86888095Y-111440476D01*
X89073810Y-112411904D02*
X89573810Y-112411904D01*
X89573810Y-112292857D01*
X89550000Y-112221428D01*
X89502381Y-112173809D01*
X89454762Y-112150000D01*
X89359524Y-112126190D01*
X89288095Y-112126190D01*
X89192857Y-112150000D01*
X89145238Y-112173809D01*
X89097619Y-112221428D01*
X89073810Y-112292857D01*
X89073810Y-112411904D01*
X89073810Y-111911904D02*
X89573810Y-111911904D01*
X89073810Y-111673809D02*
X89573810Y-111673809D01*
X89073810Y-111388095D01*
X89573810Y-111388095D01*
X90873810Y-112845238D02*
X91373810Y-112845238D01*
X91373810Y-112726191D01*
X91350000Y-112654762D01*
X91302381Y-112607143D01*
X91254762Y-112583334D01*
X91159524Y-112559524D01*
X91088095Y-112559524D01*
X90992857Y-112583334D01*
X90945238Y-112607143D01*
X90897619Y-112654762D01*
X90873810Y-112726191D01*
X90873810Y-112845238D01*
X91373810Y-112250000D02*
X91373810Y-112154762D01*
X91350000Y-112107143D01*
X91302381Y-112059524D01*
X91207143Y-112035715D01*
X91040476Y-112035715D01*
X90945238Y-112059524D01*
X90897619Y-112107143D01*
X90873810Y-112154762D01*
X90873810Y-112250000D01*
X90897619Y-112297619D01*
X90945238Y-112345238D01*
X91040476Y-112369048D01*
X91207143Y-112369048D01*
X91302381Y-112345238D01*
X91350000Y-112297619D01*
X91373810Y-112250000D01*
X91373810Y-111821428D02*
X90969048Y-111821428D01*
X90921429Y-111797619D01*
X90897619Y-111773809D01*
X90873810Y-111726190D01*
X90873810Y-111630952D01*
X90897619Y-111583333D01*
X90921429Y-111559524D01*
X90969048Y-111535714D01*
X91373810Y-111535714D01*
X91373810Y-111369047D02*
X91373810Y-111083333D01*
X90873810Y-111226190D02*
X91373810Y-111226190D01*
X94550000Y-112580953D02*
X94573810Y-112628572D01*
X94573810Y-112700000D01*
X94550000Y-112771429D01*
X94502381Y-112819048D01*
X94454762Y-112842857D01*
X94359524Y-112866667D01*
X94288095Y-112866667D01*
X94192857Y-112842857D01*
X94145238Y-112819048D01*
X94097619Y-112771429D01*
X94073810Y-112700000D01*
X94073810Y-112652381D01*
X94097619Y-112580953D01*
X94121429Y-112557143D01*
X94288095Y-112557143D01*
X94288095Y-112652381D01*
X94073810Y-112342857D02*
X94573810Y-112342857D01*
X94073810Y-112057143D01*
X94573810Y-112057143D01*
X94073810Y-111819047D02*
X94573810Y-111819047D01*
X94573810Y-111700000D01*
X94550000Y-111628571D01*
X94502381Y-111580952D01*
X94454762Y-111557143D01*
X94359524Y-111533333D01*
X94288095Y-111533333D01*
X94192857Y-111557143D01*
X94145238Y-111580952D01*
X94097619Y-111628571D01*
X94073810Y-111700000D01*
X94073810Y-111819047D01*
X96773810Y-111154762D02*
X97273810Y-111154762D01*
X96773810Y-110869048D01*
X97273810Y-110869048D01*
X97297619Y-110273810D02*
X96654762Y-110702381D01*
X96821429Y-109821428D02*
X96797619Y-109845238D01*
X96773810Y-109916666D01*
X96773810Y-109964285D01*
X96797619Y-110035714D01*
X96845238Y-110083333D01*
X96892857Y-110107142D01*
X96988095Y-110130952D01*
X97059524Y-110130952D01*
X97154762Y-110107142D01*
X97202381Y-110083333D01*
X97250000Y-110035714D01*
X97273810Y-109964285D01*
X97273810Y-109916666D01*
X97250000Y-109845238D01*
X97226190Y-109821428D01*
X99273810Y-111007142D02*
X99773810Y-111007142D01*
X99773810Y-110673809D02*
X99773810Y-110578571D01*
X99750000Y-110530952D01*
X99702381Y-110483333D01*
X99607143Y-110459524D01*
X99440476Y-110459524D01*
X99345238Y-110483333D01*
X99297619Y-110530952D01*
X99273810Y-110578571D01*
X99273810Y-110673809D01*
X99297619Y-110721428D01*
X99345238Y-110769047D01*
X99440476Y-110792857D01*
X99607143Y-110792857D01*
X99702381Y-110769047D01*
X99750000Y-110721428D01*
X99773810Y-110673809D01*
X99773810Y-110149999D02*
X99773810Y-110102380D01*
X99750000Y-110054761D01*
X99726190Y-110030952D01*
X99678571Y-110007142D01*
X99583333Y-109983333D01*
X99464286Y-109983333D01*
X99369048Y-110007142D01*
X99321429Y-110030952D01*
X99297619Y-110054761D01*
X99273810Y-110102380D01*
X99273810Y-110149999D01*
X99297619Y-110197618D01*
X99321429Y-110221428D01*
X99369048Y-110245237D01*
X99464286Y-110269047D01*
X99583333Y-110269047D01*
X99678571Y-110245237D01*
X99726190Y-110221428D01*
X99750000Y-110197618D01*
X99773810Y-110149999D01*
X99226190Y-109888095D02*
X99226190Y-109507143D01*
X99273810Y-109150000D02*
X99273810Y-109388095D01*
X99773810Y-109388095D01*
X99773810Y-109054762D02*
X99273810Y-108888095D01*
X99773810Y-108721429D01*
X101773810Y-111007142D02*
X102273810Y-111007142D01*
X102273810Y-110673809D02*
X102273810Y-110578571D01*
X102250000Y-110530952D01*
X102202381Y-110483333D01*
X102107143Y-110459524D01*
X101940476Y-110459524D01*
X101845238Y-110483333D01*
X101797619Y-110530952D01*
X101773810Y-110578571D01*
X101773810Y-110673809D01*
X101797619Y-110721428D01*
X101845238Y-110769047D01*
X101940476Y-110792857D01*
X102107143Y-110792857D01*
X102202381Y-110769047D01*
X102250000Y-110721428D01*
X102273810Y-110673809D01*
X101773810Y-109983333D02*
X101773810Y-110269047D01*
X101773810Y-110126190D02*
X102273810Y-110126190D01*
X102202381Y-110173809D01*
X102154762Y-110221428D01*
X102130952Y-110269047D01*
X101726190Y-109888095D02*
X101726190Y-109507143D01*
X101773810Y-109150000D02*
X101773810Y-109388095D01*
X102273810Y-109388095D01*
X102273810Y-109054762D02*
X101773810Y-108888095D01*
X102273810Y-108721429D01*
X104273810Y-111007142D02*
X104773810Y-111007142D01*
X104773810Y-110673809D02*
X104773810Y-110578571D01*
X104750000Y-110530952D01*
X104702381Y-110483333D01*
X104607143Y-110459524D01*
X104440476Y-110459524D01*
X104345238Y-110483333D01*
X104297619Y-110530952D01*
X104273810Y-110578571D01*
X104273810Y-110673809D01*
X104297619Y-110721428D01*
X104345238Y-110769047D01*
X104440476Y-110792857D01*
X104607143Y-110792857D01*
X104702381Y-110769047D01*
X104750000Y-110721428D01*
X104773810Y-110673809D01*
X104726190Y-110269047D02*
X104750000Y-110245237D01*
X104773810Y-110197618D01*
X104773810Y-110078571D01*
X104750000Y-110030952D01*
X104726190Y-110007142D01*
X104678571Y-109983333D01*
X104630952Y-109983333D01*
X104559524Y-110007142D01*
X104273810Y-110292856D01*
X104273810Y-109983333D01*
X104226190Y-109888095D02*
X104226190Y-109507143D01*
X104273810Y-109150000D02*
X104273810Y-109388095D01*
X104773810Y-109388095D01*
X104773810Y-109054762D02*
X104273810Y-108888095D01*
X104773810Y-108721429D01*
X106873810Y-111007142D02*
X107373810Y-111007142D01*
X107373810Y-110673809D02*
X107373810Y-110578571D01*
X107350000Y-110530952D01*
X107302381Y-110483333D01*
X107207143Y-110459524D01*
X107040476Y-110459524D01*
X106945238Y-110483333D01*
X106897619Y-110530952D01*
X106873810Y-110578571D01*
X106873810Y-110673809D01*
X106897619Y-110721428D01*
X106945238Y-110769047D01*
X107040476Y-110792857D01*
X107207143Y-110792857D01*
X107302381Y-110769047D01*
X107350000Y-110721428D01*
X107373810Y-110673809D01*
X107373810Y-110292856D02*
X107373810Y-109983333D01*
X107183333Y-110149999D01*
X107183333Y-110078571D01*
X107159524Y-110030952D01*
X107135714Y-110007142D01*
X107088095Y-109983333D01*
X106969048Y-109983333D01*
X106921429Y-110007142D01*
X106897619Y-110030952D01*
X106873810Y-110078571D01*
X106873810Y-110221428D01*
X106897619Y-110269047D01*
X106921429Y-110292856D01*
X106826190Y-109888095D02*
X106826190Y-109507143D01*
X106873810Y-109150000D02*
X106873810Y-109388095D01*
X107373810Y-109388095D01*
X107373810Y-109054762D02*
X106873810Y-108888095D01*
X107373810Y-108721429D01*
D12*
X119500000Y-84246429D02*
X119642857Y-84175000D01*
X119785714Y-84032143D01*
X120000000Y-83817857D01*
X120142857Y-83746429D01*
X120285714Y-83746429D01*
X120214286Y-84103571D02*
X120357143Y-84032143D01*
X120500000Y-83889286D01*
X120571429Y-83603571D01*
X120571429Y-83103571D01*
X120500000Y-82817857D01*
X120357143Y-82675000D01*
X120214286Y-82603571D01*
X119928572Y-82603571D01*
X119785714Y-82675000D01*
X119642857Y-82817857D01*
X119571429Y-83103571D01*
X119571429Y-83603571D01*
X119642857Y-83889286D01*
X119785714Y-84032143D01*
X119928572Y-84103571D01*
X120214286Y-84103571D01*
X118928571Y-82603571D02*
X118928571Y-83817857D01*
X118857143Y-83960714D01*
X118785714Y-84032143D01*
X118642857Y-84103571D01*
X118357143Y-84103571D01*
X118214285Y-84032143D01*
X118142857Y-83960714D01*
X118071428Y-83817857D01*
X118071428Y-82603571D01*
X117428571Y-83675000D02*
X116714285Y-83675000D01*
X117571428Y-84103571D02*
X117071428Y-82603571D01*
X116571428Y-84103571D01*
X116071428Y-84103571D02*
X116071428Y-82603571D01*
X115714285Y-82603571D01*
X115500000Y-82675000D01*
X115357142Y-82817857D01*
X115285714Y-82960714D01*
X115214285Y-83246429D01*
X115214285Y-83460714D01*
X115285714Y-83746429D01*
X115357142Y-83889286D01*
X115500000Y-84032143D01*
X115714285Y-84103571D01*
X116071428Y-84103571D01*
X112714285Y-84103571D02*
X113428571Y-84103571D01*
X113428571Y-82603571D01*
X112428571Y-82603571D02*
X111928571Y-84103571D01*
X111428571Y-82603571D01*
X109857143Y-82532143D02*
X111142857Y-84460714D01*
X109357142Y-84103571D02*
X109357142Y-82603571D01*
X109357142Y-83317857D02*
X108499999Y-83317857D01*
X108499999Y-84103571D02*
X108499999Y-82603571D01*
X107999999Y-82603571D02*
X107499999Y-84103571D01*
X106999999Y-82603571D01*
X104642856Y-84103571D02*
X105357142Y-84103571D01*
X105357142Y-82603571D01*
X104142856Y-83317857D02*
X103642856Y-83317857D01*
X103428570Y-84103571D02*
X104142856Y-84103571D01*
X104142856Y-82603571D01*
X103428570Y-82603571D01*
X102999999Y-82603571D02*
X102499999Y-84103571D01*
X101999999Y-82603571D01*
X101499999Y-83317857D02*
X100999999Y-83317857D01*
X100785713Y-84103571D02*
X101499999Y-84103571D01*
X101499999Y-82603571D01*
X100785713Y-82603571D01*
X99428570Y-84103571D02*
X100142856Y-84103571D01*
X100142856Y-82603571D01*
X97857142Y-84032143D02*
X97642856Y-84103571D01*
X97285713Y-84103571D01*
X97142856Y-84032143D01*
X97071427Y-83960714D01*
X96999999Y-83817857D01*
X96999999Y-83675000D01*
X97071427Y-83532143D01*
X97142856Y-83460714D01*
X97285713Y-83389286D01*
X97571427Y-83317857D01*
X97714285Y-83246429D01*
X97785713Y-83175000D01*
X97857142Y-83032143D01*
X97857142Y-82889286D01*
X97785713Y-82746429D01*
X97714285Y-82675000D01*
X97571427Y-82603571D01*
X97214285Y-82603571D01*
X96999999Y-82675000D01*
X96357142Y-84103571D02*
X96357142Y-82603571D01*
X96357142Y-83317857D02*
X95499999Y-83317857D01*
X95499999Y-84103571D02*
X95499999Y-82603571D01*
X94785713Y-84103571D02*
X94785713Y-82603571D01*
X93571427Y-83317857D02*
X94071427Y-83317857D01*
X94071427Y-84103571D02*
X94071427Y-82603571D01*
X93357141Y-82603571D01*
X92999999Y-82603571D02*
X92142856Y-82603571D01*
X92571427Y-84103571D02*
X92571427Y-82603571D01*
X91642856Y-83317857D02*
X91142856Y-83317857D01*
X90928570Y-84103571D02*
X91642856Y-84103571D01*
X91642856Y-82603571D01*
X90928570Y-82603571D01*
X89428570Y-84103571D02*
X89928570Y-83389286D01*
X90285713Y-84103571D02*
X90285713Y-82603571D01*
X89714285Y-82603571D01*
X89571427Y-82675000D01*
X89499999Y-82746429D01*
X89428570Y-82889286D01*
X89428570Y-83103571D01*
X89499999Y-83246429D01*
X89571427Y-83317857D01*
X89714285Y-83389286D01*
X90285713Y-83389286D01*
X114535712Y-86653571D02*
X115035712Y-85939286D01*
X115392855Y-86653571D02*
X115392855Y-85153571D01*
X114821427Y-85153571D01*
X114678569Y-85225000D01*
X114607141Y-85296429D01*
X114535712Y-85439286D01*
X114535712Y-85653571D01*
X114607141Y-85796429D01*
X114678569Y-85867857D01*
X114821427Y-85939286D01*
X115392855Y-85939286D01*
X113892855Y-85867857D02*
X113392855Y-85867857D01*
X113178569Y-86653571D02*
X113892855Y-86653571D01*
X113892855Y-85153571D01*
X113178569Y-85153571D01*
X112749998Y-85153571D02*
X112249998Y-86653571D01*
X111749998Y-85153571D01*
X110178570Y-86225000D02*
X109464284Y-86225000D01*
X110321427Y-86653571D02*
X109821427Y-85153571D01*
X109321427Y-86653571D01*
X107749999Y-85296429D02*
X107678570Y-85225000D01*
X107535713Y-85153571D01*
X107178570Y-85153571D01*
X107035713Y-85225000D01*
X106964284Y-85296429D01*
X106892856Y-85439286D01*
X106892856Y-85582143D01*
X106964284Y-85796429D01*
X107821427Y-86653571D01*
X106892856Y-86653571D01*
X105964285Y-85153571D02*
X105821428Y-85153571D01*
X105678571Y-85225000D01*
X105607142Y-85296429D01*
X105535713Y-85439286D01*
X105464285Y-85725000D01*
X105464285Y-86082143D01*
X105535713Y-86367857D01*
X105607142Y-86510714D01*
X105678571Y-86582143D01*
X105821428Y-86653571D01*
X105964285Y-86653571D01*
X106107142Y-86582143D01*
X106178571Y-86510714D01*
X106249999Y-86367857D01*
X106321428Y-86082143D01*
X106321428Y-85725000D01*
X106249999Y-85439286D01*
X106178571Y-85296429D01*
X106107142Y-85225000D01*
X105964285Y-85153571D01*
X104035714Y-86653571D02*
X104892857Y-86653571D01*
X104464285Y-86653571D02*
X104464285Y-85153571D01*
X104607142Y-85367857D01*
X104750000Y-85510714D01*
X104892857Y-85582143D01*
X102750000Y-85153571D02*
X103035714Y-85153571D01*
X103178571Y-85225000D01*
X103250000Y-85296429D01*
X103392857Y-85510714D01*
X103464286Y-85796429D01*
X103464286Y-86367857D01*
X103392857Y-86510714D01*
X103321429Y-86582143D01*
X103178571Y-86653571D01*
X102892857Y-86653571D01*
X102750000Y-86582143D01*
X102678571Y-86510714D01*
X102607143Y-86367857D01*
X102607143Y-86010714D01*
X102678571Y-85867857D01*
X102750000Y-85796429D01*
X102892857Y-85725000D01*
X103178571Y-85725000D01*
X103321429Y-85796429D01*
X103392857Y-85867857D01*
X103464286Y-86010714D01*
X100821429Y-86653571D02*
X100821429Y-85153571D01*
X100464286Y-85153571D01*
X100250001Y-85225000D01*
X100107143Y-85367857D01*
X100035715Y-85510714D01*
X99964286Y-85796429D01*
X99964286Y-86010714D01*
X100035715Y-86296429D01*
X100107143Y-86439286D01*
X100250001Y-86582143D01*
X100464286Y-86653571D01*
X100821429Y-86653571D01*
X99321429Y-85867857D02*
X98821429Y-85867857D01*
X98607143Y-86653571D02*
X99321429Y-86653571D01*
X99321429Y-85153571D01*
X98607143Y-85153571D01*
X97107143Y-86510714D02*
X97178572Y-86582143D01*
X97392858Y-86653571D01*
X97535715Y-86653571D01*
X97750000Y-86582143D01*
X97892858Y-86439286D01*
X97964286Y-86296429D01*
X98035715Y-86010714D01*
X98035715Y-85796429D01*
X97964286Y-85510714D01*
X97892858Y-85367857D01*
X97750000Y-85225000D01*
X97535715Y-85153571D01*
X97392858Y-85153571D01*
X97178572Y-85225000D01*
X97107143Y-85296429D01*
X95107143Y-85796429D02*
X95250001Y-85725000D01*
X95321429Y-85653571D01*
X95392858Y-85510714D01*
X95392858Y-85439286D01*
X95321429Y-85296429D01*
X95250001Y-85225000D01*
X95107143Y-85153571D01*
X94821429Y-85153571D01*
X94678572Y-85225000D01*
X94607143Y-85296429D01*
X94535715Y-85439286D01*
X94535715Y-85510714D01*
X94607143Y-85653571D01*
X94678572Y-85725000D01*
X94821429Y-85796429D01*
X95107143Y-85796429D01*
X95250001Y-85867857D01*
X95321429Y-85939286D01*
X95392858Y-86082143D01*
X95392858Y-86367857D01*
X95321429Y-86510714D01*
X95250001Y-86582143D01*
X95107143Y-86653571D01*
X94821429Y-86653571D01*
X94678572Y-86582143D01*
X94607143Y-86510714D01*
X94535715Y-86367857D01*
X94535715Y-86082143D01*
X94607143Y-85939286D01*
X94678572Y-85867857D01*
X94821429Y-85796429D01*
D13*
X111258000Y-90935999D02*
G75*
G02X107702000Y-90936000I-1778000J1015999D01*
G01*
X111258000Y-90936000D02*
X112020000Y-90936000D01*
D11*
X99447000Y-92460000D02*
X99447000Y-87761000D01*
X112020000Y-92460000D02*
X99447000Y-92460000D01*
X112020000Y-87761000D02*
X112020000Y-92460000D01*
X99447000Y-87761000D02*
X112020000Y-87761000D01*
D13*
X107702000Y-90936000D02*
X99447000Y-90936000D01*
D11*
X102530426Y-89420165D02*
G75*
G02X102495000Y-89031000I-670426J135165D01*
G01*
D13*
X102368000Y-89031000D02*
X102495000Y-89158000D01*
X102622000Y-89031000D02*
X102368000Y-89031000D01*
X102495000Y-89158000D02*
X102622000Y-89031000D01*
X104908000Y-89158000D02*
X105035000Y-89158000D01*
X104908000Y-89285000D02*
X104908000Y-89158000D01*
X105162000Y-89285000D02*
X104908000Y-89285000D01*
X105162000Y-89031000D02*
X105162000Y-89285000D01*
X104781000Y-89031000D02*
X105162000Y-89031000D01*
X104781000Y-89412000D02*
X104781000Y-88904000D01*
X105289000Y-89412000D02*
X104781000Y-89412000D01*
X105035000Y-88650000D02*
X105035000Y-88777000D01*
X105035000Y-89412000D02*
X105035000Y-90047000D01*
X104908000Y-90047000D02*
X104908000Y-89412000D01*
X105162000Y-90047000D02*
X104908000Y-90047000D01*
X105162000Y-89412000D02*
X105162000Y-90047000D01*
X105289000Y-88904000D02*
X105289000Y-89412000D01*
X105289000Y-88904000D02*
X104781000Y-88904000D01*
D11*
X105162000Y-88650000D02*
G75*
G03X105162000Y-88650000I-127000J0D01*
G01*
D13*
X106205882Y-89285000D02*
G75*
G03X106205882Y-89285000I-1170882J0D01*
G01*
D12*
X111009283Y-89920000D02*
G75*
G03X111009283Y-89920000I-1529283J0D01*
G01*
D13*
X103030882Y-89285000D02*
G75*
G03X103030882Y-89285000I-1170882J0D01*
G01*
D14*
G36*
X116844186Y-87268931D02*
X116760365Y-87713555D01*
X116451080Y-87841053D01*
X116141794Y-87968551D01*
X115770754Y-87716246D01*
X115666843Y-87645996D01*
X115572913Y-87583272D01*
X115493348Y-87530938D01*
X115432530Y-87491857D01*
X115394843Y-87468893D01*
X115384579Y-87463942D01*
X115366090Y-87476676D01*
X115326580Y-87511882D01*
X115270478Y-87565062D01*
X115202213Y-87631718D01*
X115126214Y-87707354D01*
X115046908Y-87787472D01*
X114968725Y-87867574D01*
X114896093Y-87943164D01*
X114833441Y-88009745D01*
X114785197Y-88062818D01*
X114755790Y-88097887D01*
X114748759Y-88109623D01*
X114758877Y-88131260D01*
X114787241Y-88178662D01*
X114830871Y-88247193D01*
X114886782Y-88332215D01*
X114951994Y-88429093D01*
X114989781Y-88484350D01*
X115058657Y-88585248D01*
X115119860Y-88676299D01*
X115170422Y-88752970D01*
X115207372Y-88810728D01*
X115227742Y-88845043D01*
X115230803Y-88852254D01*
X115223864Y-88872748D01*
X115204949Y-88920513D01*
X115176913Y-88988832D01*
X115142609Y-89070989D01*
X115104891Y-89160270D01*
X115066613Y-89249958D01*
X115030630Y-89333338D01*
X114999794Y-89403694D01*
X114976961Y-89454310D01*
X114964983Y-89478471D01*
X114964276Y-89479422D01*
X114945469Y-89484036D01*
X114895382Y-89494328D01*
X114819207Y-89509287D01*
X114722135Y-89527901D01*
X114609357Y-89549159D01*
X114543558Y-89561418D01*
X114423050Y-89584362D01*
X114314203Y-89606195D01*
X114222524Y-89625722D01*
X114153519Y-89641748D01*
X114112696Y-89653079D01*
X114104489Y-89656674D01*
X114096452Y-89681006D01*
X114089967Y-89735959D01*
X114085030Y-89815108D01*
X114081636Y-89912026D01*
X114079782Y-90020287D01*
X114079462Y-90133465D01*
X114080673Y-90245135D01*
X114083410Y-90348868D01*
X114087669Y-90438241D01*
X114093445Y-90506826D01*
X114100733Y-90548197D01*
X114105105Y-90556810D01*
X114131236Y-90567133D01*
X114186607Y-90581892D01*
X114263893Y-90599352D01*
X114355770Y-90617780D01*
X114387842Y-90623741D01*
X114542476Y-90652066D01*
X114664625Y-90674876D01*
X114758327Y-90693080D01*
X114827616Y-90707583D01*
X114876529Y-90719292D01*
X114909103Y-90729115D01*
X114929372Y-90737956D01*
X114941374Y-90746724D01*
X114943053Y-90748457D01*
X114959816Y-90776371D01*
X114985386Y-90830695D01*
X115017212Y-90904777D01*
X115052740Y-90991965D01*
X115089417Y-91085608D01*
X115124689Y-91179052D01*
X115156004Y-91265647D01*
X115180807Y-91338740D01*
X115196546Y-91391678D01*
X115200668Y-91417811D01*
X115200324Y-91418726D01*
X115186359Y-91440086D01*
X115154678Y-91487084D01*
X115108609Y-91554827D01*
X115051482Y-91638423D01*
X114986627Y-91732982D01*
X114968157Y-91759854D01*
X114902301Y-91857275D01*
X114844350Y-91946163D01*
X114797462Y-92021412D01*
X114764793Y-92077920D01*
X114749500Y-92110581D01*
X114748759Y-92114593D01*
X114761608Y-92135684D01*
X114797112Y-92177464D01*
X114850707Y-92235445D01*
X114917829Y-92305135D01*
X114993913Y-92382045D01*
X115074396Y-92461683D01*
X115154713Y-92539561D01*
X115230301Y-92611186D01*
X115296595Y-92672070D01*
X115349031Y-92717721D01*
X115383045Y-92743650D01*
X115392455Y-92747883D01*
X115414357Y-92737912D01*
X115459200Y-92711020D01*
X115519679Y-92671736D01*
X115566211Y-92640117D01*
X115650525Y-92582098D01*
X115750374Y-92513784D01*
X115850527Y-92445579D01*
X115904373Y-92409075D01*
X116086629Y-92285800D01*
X116239619Y-92368520D01*
X116309318Y-92404759D01*
X116368586Y-92432926D01*
X116408689Y-92448991D01*
X116418897Y-92451226D01*
X116431171Y-92434722D01*
X116455387Y-92388082D01*
X116489737Y-92315609D01*
X116532412Y-92221606D01*
X116581606Y-92110374D01*
X116635510Y-91986215D01*
X116692316Y-91853432D01*
X116750218Y-91716327D01*
X116807407Y-91579202D01*
X116862076Y-91446358D01*
X116912416Y-91322098D01*
X116956620Y-91210725D01*
X116992881Y-91116539D01*
X117019391Y-91043844D01*
X117034342Y-90996941D01*
X117036746Y-90980833D01*
X117017689Y-90960286D01*
X116975964Y-90926933D01*
X116920294Y-90887702D01*
X116915622Y-90884599D01*
X116771736Y-90769423D01*
X116655717Y-90635053D01*
X116568570Y-90485784D01*
X116511301Y-90325913D01*
X116484914Y-90159737D01*
X116490415Y-89991552D01*
X116528810Y-89825655D01*
X116601105Y-89666342D01*
X116622374Y-89631487D01*
X116733004Y-89490737D01*
X116863698Y-89377714D01*
X117009936Y-89293003D01*
X117167192Y-89237194D01*
X117330943Y-89210874D01*
X117496667Y-89214630D01*
X117659838Y-89249050D01*
X117815935Y-89314723D01*
X117960433Y-89412235D01*
X118005131Y-89451813D01*
X118118888Y-89575703D01*
X118201782Y-89706124D01*
X118258644Y-89852315D01*
X118290313Y-89997088D01*
X118298131Y-90159860D01*
X118272062Y-90323440D01*
X118214755Y-90482298D01*
X118128856Y-90630906D01*
X118017014Y-90763735D01*
X117881877Y-90875256D01*
X117864117Y-90887011D01*
X117807850Y-90925508D01*
X117765077Y-90958863D01*
X117744628Y-90980160D01*
X117744331Y-90980833D01*
X117748721Y-91003871D01*
X117766124Y-91056157D01*
X117794732Y-91133390D01*
X117832735Y-91231268D01*
X117878326Y-91345491D01*
X117929697Y-91471758D01*
X117985038Y-91605767D01*
X118042542Y-91743218D01*
X118100399Y-91879808D01*
X118156802Y-92011237D01*
X118209942Y-92133205D01*
X118258010Y-92241409D01*
X118299199Y-92331549D01*
X118331699Y-92399323D01*
X118353703Y-92440430D01*
X118362564Y-92451226D01*
X118389640Y-92442819D01*
X118440303Y-92420272D01*
X118505817Y-92387613D01*
X118541841Y-92368520D01*
X118694832Y-92285800D01*
X118877088Y-92409075D01*
X118970125Y-92472228D01*
X119071985Y-92541727D01*
X119167438Y-92607165D01*
X119215250Y-92640117D01*
X119282495Y-92685273D01*
X119339436Y-92721057D01*
X119378646Y-92742938D01*
X119391381Y-92747563D01*
X119409917Y-92735085D01*
X119450941Y-92700252D01*
X119510475Y-92646678D01*
X119584542Y-92577983D01*
X119669165Y-92497781D01*
X119722685Y-92446286D01*
X119816319Y-92354286D01*
X119897241Y-92271999D01*
X119962177Y-92202945D01*
X120007858Y-92150644D01*
X120031011Y-92118616D01*
X120033232Y-92112116D01*
X120022924Y-92087394D01*
X119994439Y-92037405D01*
X119950937Y-91967212D01*
X119895577Y-91881875D01*
X119831520Y-91786456D01*
X119813303Y-91759854D01*
X119746927Y-91663167D01*
X119687378Y-91576117D01*
X119637984Y-91503595D01*
X119602075Y-91450493D01*
X119582981Y-91421703D01*
X119581136Y-91418726D01*
X119583895Y-91395782D01*
X119598538Y-91345336D01*
X119622513Y-91274041D01*
X119653266Y-91188547D01*
X119688244Y-91095507D01*
X119724893Y-91001574D01*
X119760661Y-90913399D01*
X119792994Y-90837634D01*
X119819338Y-90780931D01*
X119837142Y-90749943D01*
X119838407Y-90748457D01*
X119849294Y-90739601D01*
X119867682Y-90730843D01*
X119897606Y-90721277D01*
X119943103Y-90709996D01*
X120008209Y-90696093D01*
X120096961Y-90678663D01*
X120213393Y-90656798D01*
X120361542Y-90629591D01*
X120393618Y-90623741D01*
X120488686Y-90605374D01*
X120571565Y-90587405D01*
X120634930Y-90571569D01*
X120671458Y-90559600D01*
X120676356Y-90556810D01*
X120684427Y-90532072D01*
X120690987Y-90476790D01*
X120696033Y-90397389D01*
X120699559Y-90300296D01*
X120701561Y-90191938D01*
X120702036Y-90078740D01*
X120700977Y-89967128D01*
X120698382Y-89863529D01*
X120694246Y-89774368D01*
X120688563Y-89706072D01*
X120681331Y-89665066D01*
X120676971Y-89656674D01*
X120652698Y-89648208D01*
X120597426Y-89634435D01*
X120516662Y-89616550D01*
X120415912Y-89595748D01*
X120300683Y-89573223D01*
X120237902Y-89561418D01*
X120118787Y-89539151D01*
X120012565Y-89518979D01*
X119924427Y-89501915D01*
X119859566Y-89488969D01*
X119823174Y-89481155D01*
X119817184Y-89479422D01*
X119807061Y-89459890D01*
X119785662Y-89412843D01*
X119755839Y-89345003D01*
X119720445Y-89263091D01*
X119682332Y-89173828D01*
X119644353Y-89083935D01*
X119609360Y-89000135D01*
X119580206Y-88929147D01*
X119559743Y-88877694D01*
X119550823Y-88852497D01*
X119550657Y-88851396D01*
X119560769Y-88831519D01*
X119589117Y-88785777D01*
X119632723Y-88718717D01*
X119688606Y-88634884D01*
X119753787Y-88538826D01*
X119791679Y-88483650D01*
X119860725Y-88382481D01*
X119922050Y-88290630D01*
X119972663Y-88212744D01*
X120009571Y-88153469D01*
X120029782Y-88117451D01*
X120032701Y-88109377D01*
X120020153Y-88090584D01*
X119985463Y-88050457D01*
X119933063Y-87993493D01*
X119867384Y-87924185D01*
X119792856Y-87847031D01*
X119713913Y-87766525D01*
X119634983Y-87687163D01*
X119560500Y-87613440D01*
X119494894Y-87549852D01*
X119442596Y-87500894D01*
X119408039Y-87471061D01*
X119396478Y-87463942D01*
X119377654Y-87473953D01*
X119332631Y-87502078D01*
X119265787Y-87545454D01*
X119181499Y-87601218D01*
X119084144Y-87666506D01*
X119010707Y-87716246D01*
X118639667Y-87968551D01*
X118021095Y-87713555D01*
X117937275Y-87268931D01*
X117853454Y-86824307D01*
X116928006Y-86824307D01*
X116844186Y-87268931D01*
X116844186Y-87268931D01*
G37*
X116844186Y-87268931D02*
X116760365Y-87713555D01*
X116451080Y-87841053D01*
X116141794Y-87968551D01*
X115770754Y-87716246D01*
X115666843Y-87645996D01*
X115572913Y-87583272D01*
X115493348Y-87530938D01*
X115432530Y-87491857D01*
X115394843Y-87468893D01*
X115384579Y-87463942D01*
X115366090Y-87476676D01*
X115326580Y-87511882D01*
X115270478Y-87565062D01*
X115202213Y-87631718D01*
X115126214Y-87707354D01*
X115046908Y-87787472D01*
X114968725Y-87867574D01*
X114896093Y-87943164D01*
X114833441Y-88009745D01*
X114785197Y-88062818D01*
X114755790Y-88097887D01*
X114748759Y-88109623D01*
X114758877Y-88131260D01*
X114787241Y-88178662D01*
X114830871Y-88247193D01*
X114886782Y-88332215D01*
X114951994Y-88429093D01*
X114989781Y-88484350D01*
X115058657Y-88585248D01*
X115119860Y-88676299D01*
X115170422Y-88752970D01*
X115207372Y-88810728D01*
X115227742Y-88845043D01*
X115230803Y-88852254D01*
X115223864Y-88872748D01*
X115204949Y-88920513D01*
X115176913Y-88988832D01*
X115142609Y-89070989D01*
X115104891Y-89160270D01*
X115066613Y-89249958D01*
X115030630Y-89333338D01*
X114999794Y-89403694D01*
X114976961Y-89454310D01*
X114964983Y-89478471D01*
X114964276Y-89479422D01*
X114945469Y-89484036D01*
X114895382Y-89494328D01*
X114819207Y-89509287D01*
X114722135Y-89527901D01*
X114609357Y-89549159D01*
X114543558Y-89561418D01*
X114423050Y-89584362D01*
X114314203Y-89606195D01*
X114222524Y-89625722D01*
X114153519Y-89641748D01*
X114112696Y-89653079D01*
X114104489Y-89656674D01*
X114096452Y-89681006D01*
X114089967Y-89735959D01*
X114085030Y-89815108D01*
X114081636Y-89912026D01*
X114079782Y-90020287D01*
X114079462Y-90133465D01*
X114080673Y-90245135D01*
X114083410Y-90348868D01*
X114087669Y-90438241D01*
X114093445Y-90506826D01*
X114100733Y-90548197D01*
X114105105Y-90556810D01*
X114131236Y-90567133D01*
X114186607Y-90581892D01*
X114263893Y-90599352D01*
X114355770Y-90617780D01*
X114387842Y-90623741D01*
X114542476Y-90652066D01*
X114664625Y-90674876D01*
X114758327Y-90693080D01*
X114827616Y-90707583D01*
X114876529Y-90719292D01*
X114909103Y-90729115D01*
X114929372Y-90737956D01*
X114941374Y-90746724D01*
X114943053Y-90748457D01*
X114959816Y-90776371D01*
X114985386Y-90830695D01*
X115017212Y-90904777D01*
X115052740Y-90991965D01*
X115089417Y-91085608D01*
X115124689Y-91179052D01*
X115156004Y-91265647D01*
X115180807Y-91338740D01*
X115196546Y-91391678D01*
X115200668Y-91417811D01*
X115200324Y-91418726D01*
X115186359Y-91440086D01*
X115154678Y-91487084D01*
X115108609Y-91554827D01*
X115051482Y-91638423D01*
X114986627Y-91732982D01*
X114968157Y-91759854D01*
X114902301Y-91857275D01*
X114844350Y-91946163D01*
X114797462Y-92021412D01*
X114764793Y-92077920D01*
X114749500Y-92110581D01*
X114748759Y-92114593D01*
X114761608Y-92135684D01*
X114797112Y-92177464D01*
X114850707Y-92235445D01*
X114917829Y-92305135D01*
X114993913Y-92382045D01*
X115074396Y-92461683D01*
X115154713Y-92539561D01*
X115230301Y-92611186D01*
X115296595Y-92672070D01*
X115349031Y-92717721D01*
X115383045Y-92743650D01*
X115392455Y-92747883D01*
X115414357Y-92737912D01*
X115459200Y-92711020D01*
X115519679Y-92671736D01*
X115566211Y-92640117D01*
X115650525Y-92582098D01*
X115750374Y-92513784D01*
X115850527Y-92445579D01*
X115904373Y-92409075D01*
X116086629Y-92285800D01*
X116239619Y-92368520D01*
X116309318Y-92404759D01*
X116368586Y-92432926D01*
X116408689Y-92448991D01*
X116418897Y-92451226D01*
X116431171Y-92434722D01*
X116455387Y-92388082D01*
X116489737Y-92315609D01*
X116532412Y-92221606D01*
X116581606Y-92110374D01*
X116635510Y-91986215D01*
X116692316Y-91853432D01*
X116750218Y-91716327D01*
X116807407Y-91579202D01*
X116862076Y-91446358D01*
X116912416Y-91322098D01*
X116956620Y-91210725D01*
X116992881Y-91116539D01*
X117019391Y-91043844D01*
X117034342Y-90996941D01*
X117036746Y-90980833D01*
X117017689Y-90960286D01*
X116975964Y-90926933D01*
X116920294Y-90887702D01*
X116915622Y-90884599D01*
X116771736Y-90769423D01*
X116655717Y-90635053D01*
X116568570Y-90485784D01*
X116511301Y-90325913D01*
X116484914Y-90159737D01*
X116490415Y-89991552D01*
X116528810Y-89825655D01*
X116601105Y-89666342D01*
X116622374Y-89631487D01*
X116733004Y-89490737D01*
X116863698Y-89377714D01*
X117009936Y-89293003D01*
X117167192Y-89237194D01*
X117330943Y-89210874D01*
X117496667Y-89214630D01*
X117659838Y-89249050D01*
X117815935Y-89314723D01*
X117960433Y-89412235D01*
X118005131Y-89451813D01*
X118118888Y-89575703D01*
X118201782Y-89706124D01*
X118258644Y-89852315D01*
X118290313Y-89997088D01*
X118298131Y-90159860D01*
X118272062Y-90323440D01*
X118214755Y-90482298D01*
X118128856Y-90630906D01*
X118017014Y-90763735D01*
X117881877Y-90875256D01*
X117864117Y-90887011D01*
X117807850Y-90925508D01*
X117765077Y-90958863D01*
X117744628Y-90980160D01*
X117744331Y-90980833D01*
X117748721Y-91003871D01*
X117766124Y-91056157D01*
X117794732Y-91133390D01*
X117832735Y-91231268D01*
X117878326Y-91345491D01*
X117929697Y-91471758D01*
X117985038Y-91605767D01*
X118042542Y-91743218D01*
X118100399Y-91879808D01*
X118156802Y-92011237D01*
X118209942Y-92133205D01*
X118258010Y-92241409D01*
X118299199Y-92331549D01*
X118331699Y-92399323D01*
X118353703Y-92440430D01*
X118362564Y-92451226D01*
X118389640Y-92442819D01*
X118440303Y-92420272D01*
X118505817Y-92387613D01*
X118541841Y-92368520D01*
X118694832Y-92285800D01*
X118877088Y-92409075D01*
X118970125Y-92472228D01*
X119071985Y-92541727D01*
X119167438Y-92607165D01*
X119215250Y-92640117D01*
X119282495Y-92685273D01*
X119339436Y-92721057D01*
X119378646Y-92742938D01*
X119391381Y-92747563D01*
X119409917Y-92735085D01*
X119450941Y-92700252D01*
X119510475Y-92646678D01*
X119584542Y-92577983D01*
X119669165Y-92497781D01*
X119722685Y-92446286D01*
X119816319Y-92354286D01*
X119897241Y-92271999D01*
X119962177Y-92202945D01*
X120007858Y-92150644D01*
X120031011Y-92118616D01*
X120033232Y-92112116D01*
X120022924Y-92087394D01*
X119994439Y-92037405D01*
X119950937Y-91967212D01*
X119895577Y-91881875D01*
X119831520Y-91786456D01*
X119813303Y-91759854D01*
X119746927Y-91663167D01*
X119687378Y-91576117D01*
X119637984Y-91503595D01*
X119602075Y-91450493D01*
X119582981Y-91421703D01*
X119581136Y-91418726D01*
X119583895Y-91395782D01*
X119598538Y-91345336D01*
X119622513Y-91274041D01*
X119653266Y-91188547D01*
X119688244Y-91095507D01*
X119724893Y-91001574D01*
X119760661Y-90913399D01*
X119792994Y-90837634D01*
X119819338Y-90780931D01*
X119837142Y-90749943D01*
X119838407Y-90748457D01*
X119849294Y-90739601D01*
X119867682Y-90730843D01*
X119897606Y-90721277D01*
X119943103Y-90709996D01*
X120008209Y-90696093D01*
X120096961Y-90678663D01*
X120213393Y-90656798D01*
X120361542Y-90629591D01*
X120393618Y-90623741D01*
X120488686Y-90605374D01*
X120571565Y-90587405D01*
X120634930Y-90571569D01*
X120671458Y-90559600D01*
X120676356Y-90556810D01*
X120684427Y-90532072D01*
X120690987Y-90476790D01*
X120696033Y-90397389D01*
X120699559Y-90300296D01*
X120701561Y-90191938D01*
X120702036Y-90078740D01*
X120700977Y-89967128D01*
X120698382Y-89863529D01*
X120694246Y-89774368D01*
X120688563Y-89706072D01*
X120681331Y-89665066D01*
X120676971Y-89656674D01*
X120652698Y-89648208D01*
X120597426Y-89634435D01*
X120516662Y-89616550D01*
X120415912Y-89595748D01*
X120300683Y-89573223D01*
X120237902Y-89561418D01*
X120118787Y-89539151D01*
X120012565Y-89518979D01*
X119924427Y-89501915D01*
X119859566Y-89488969D01*
X119823174Y-89481155D01*
X119817184Y-89479422D01*
X119807061Y-89459890D01*
X119785662Y-89412843D01*
X119755839Y-89345003D01*
X119720445Y-89263091D01*
X119682332Y-89173828D01*
X119644353Y-89083935D01*
X119609360Y-89000135D01*
X119580206Y-88929147D01*
X119559743Y-88877694D01*
X119550823Y-88852497D01*
X119550657Y-88851396D01*
X119560769Y-88831519D01*
X119589117Y-88785777D01*
X119632723Y-88718717D01*
X119688606Y-88634884D01*
X119753787Y-88538826D01*
X119791679Y-88483650D01*
X119860725Y-88382481D01*
X119922050Y-88290630D01*
X119972663Y-88212744D01*
X120009571Y-88153469D01*
X120029782Y-88117451D01*
X120032701Y-88109377D01*
X120020153Y-88090584D01*
X119985463Y-88050457D01*
X119933063Y-87993493D01*
X119867384Y-87924185D01*
X119792856Y-87847031D01*
X119713913Y-87766525D01*
X119634983Y-87687163D01*
X119560500Y-87613440D01*
X119494894Y-87549852D01*
X119442596Y-87500894D01*
X119408039Y-87471061D01*
X119396478Y-87463942D01*
X119377654Y-87473953D01*
X119332631Y-87502078D01*
X119265787Y-87545454D01*
X119181499Y-87601218D01*
X119084144Y-87666506D01*
X119010707Y-87716246D01*
X118639667Y-87968551D01*
X118021095Y-87713555D01*
X117937275Y-87268931D01*
X117853454Y-86824307D01*
X116928006Y-86824307D01*
X116844186Y-87268931D01*
D13*
X102360000Y-91981333D02*
X102260000Y-92014667D01*
X102093333Y-92014667D01*
X102026666Y-91981333D01*
X101993333Y-91948000D01*
X101960000Y-91881333D01*
X101960000Y-91814667D01*
X101993333Y-91748000D01*
X102026666Y-91714667D01*
X102093333Y-91681333D01*
X102226666Y-91648000D01*
X102293333Y-91614667D01*
X102326666Y-91581333D01*
X102360000Y-91514667D01*
X102360000Y-91448000D01*
X102326666Y-91381333D01*
X102293333Y-91348000D01*
X102226666Y-91314667D01*
X102060000Y-91314667D01*
X101960000Y-91348000D01*
X101693333Y-91814667D02*
X101359999Y-91814667D01*
X101759999Y-92014667D02*
X101526666Y-91314667D01*
X101293333Y-92014667D01*
X105285000Y-91648000D02*
X105185000Y-91681333D01*
X105151667Y-91714667D01*
X105118333Y-91781333D01*
X105118333Y-91881333D01*
X105151667Y-91948000D01*
X105185000Y-91981333D01*
X105251667Y-92014667D01*
X105518333Y-92014667D01*
X105518333Y-91314667D01*
X105285000Y-91314667D01*
X105218333Y-91348000D01*
X105185000Y-91381333D01*
X105151667Y-91448000D01*
X105151667Y-91514667D01*
X105185000Y-91581333D01*
X105218333Y-91614667D01*
X105285000Y-91648000D01*
X105518333Y-91648000D01*
X104685000Y-91681333D02*
X104685000Y-92014667D01*
X104918333Y-91314667D02*
X104685000Y-91681333D01*
X104451667Y-91314667D01*
D11*
X109670476Y-90277143D02*
X109718095Y-90324762D01*
X109860952Y-90372381D01*
X109956190Y-90372381D01*
X110099048Y-90324762D01*
X110194286Y-90229524D01*
X110241905Y-90134286D01*
X110289524Y-89943810D01*
X110289524Y-89800952D01*
X110241905Y-89610476D01*
X110194286Y-89515238D01*
X110099048Y-89420000D01*
X109956190Y-89372381D01*
X109860952Y-89372381D01*
X109718095Y-89420000D01*
X109670476Y-89467619D01*
X108670476Y-90277143D02*
X108718095Y-90324762D01*
X108860952Y-90372381D01*
X108956190Y-90372381D01*
X109099048Y-90324762D01*
X109194286Y-90229524D01*
X109241905Y-90134286D01*
X109289524Y-89943810D01*
X109289524Y-89800952D01*
X109241905Y-89610476D01*
X109194286Y-89515238D01*
X109099048Y-89420000D01*
X108956190Y-89372381D01*
X108860952Y-89372381D01*
X108718095Y-89420000D01*
X108670476Y-89467619D01*
M02*
