G04 #@! TF.FileFunction,Copper,L2,Inr,Plane*
%FSLAX46Y46*%
G04 Gerber Fmt 4.6, Leading zero omitted, Abs format (unit mm)*
G04 Created by KiCad (PCBNEW 4.0.4-stable) date 12/08/16 20:58:41*
%MOMM*%
%LPD*%
G01*
G04 APERTURE LIST*
%ADD10C,0.100000*%
%ADD11C,0.690000*%
%ADD12C,0.254000*%
G04 APERTURE END LIST*
D10*
D11*
X76100000Y-112200000D03*
X76100000Y-113000000D03*
X76100000Y-111400000D03*
X93800000Y-111200000D03*
X85300000Y-105600000D03*
X91200000Y-98000000D03*
X93000000Y-87500000D03*
X82100000Y-82200000D03*
X77900000Y-90700000D03*
X74700000Y-82600000D03*
X74766434Y-95300000D03*
X74700000Y-107800000D03*
X72600000Y-88195944D03*
X75300000Y-90700000D03*
X80691844Y-103491844D03*
X75200000Y-103500000D03*
X72636424Y-100900000D03*
X97000000Y-112000000D03*
X115700000Y-112000000D03*
X115700000Y-112700000D03*
X115700000Y-111200000D03*
X111700000Y-86900000D03*
X117200000Y-86900000D03*
X117600000Y-82400000D03*
X119800000Y-89408000D03*
X118300000Y-95100000D03*
X114600000Y-99600000D03*
X117200000Y-99400000D03*
X119800000Y-102108000D03*
X117600000Y-108200000D03*
X94700000Y-107400000D03*
X81800000Y-108100000D03*
X96700000Y-84800000D03*
X81500000Y-86000000D03*
X92900000Y-112200000D03*
X88700000Y-105600000D03*
X88700000Y-100800000D03*
X90600000Y-105700000D03*
X92100000Y-101400000D03*
X116800000Y-112800000D03*
X116800000Y-111200000D03*
X116800000Y-112000000D03*
X75000000Y-113000000D03*
X75000000Y-111400000D03*
X75000000Y-112200000D03*
X111700000Y-90100000D03*
X119900000Y-85500000D03*
X120000000Y-93200000D03*
X114500000Y-102100000D03*
X119900000Y-98200000D03*
X119836000Y-105600000D03*
X87600000Y-101000000D03*
X93700000Y-98000000D03*
X93700000Y-92500000D03*
X77900000Y-88200000D03*
X72400000Y-84200000D03*
X72300000Y-92600000D03*
X71700000Y-96900000D03*
X72100000Y-105200000D03*
X77800000Y-100900000D03*
X95000000Y-112000000D03*
X83800000Y-91200000D03*
X83800000Y-103000000D03*
X83800000Y-105500000D03*
X85388941Y-88911059D03*
X88100000Y-83700000D03*
X86700000Y-83700000D03*
X86400000Y-89900000D03*
X84500000Y-91800000D03*
X86311468Y-102911468D03*
X86311468Y-105600000D03*
X96668361Y-106456809D03*
X95816130Y-103385256D03*
X99265969Y-105546923D03*
X98884213Y-103495954D03*
X101567913Y-105582652D03*
X101389950Y-104210472D03*
X99955864Y-106109210D03*
X102300000Y-111600000D03*
X99800000Y-102900000D03*
X99500000Y-95600000D03*
X95686000Y-92500000D03*
X100677923Y-105588873D03*
X98770332Y-92414373D03*
X100300000Y-94800000D03*
X100500000Y-104200000D03*
X103600000Y-112100000D03*
X98379952Y-105631158D03*
X97994216Y-103501216D03*
X98066414Y-93778596D03*
X98100000Y-95500000D03*
X100900000Y-112100000D03*
X97490012Y-105619856D03*
X96704205Y-103443935D03*
X99500000Y-112100000D03*
X96900000Y-95800000D03*
X96938795Y-94189290D03*
X102306000Y-93000000D03*
X91915679Y-112199509D03*
X96200000Y-105600000D03*
X94900000Y-103400000D03*
X92400000Y-95300000D03*
X92400000Y-92500000D03*
X90000000Y-112100000D03*
X86256091Y-112043909D03*
D12*
G36*
X81361186Y-81705407D02*
X81228152Y-82025788D01*
X81227849Y-82372690D01*
X81360324Y-82693303D01*
X81605407Y-82938814D01*
X81925788Y-83071848D01*
X82272690Y-83072151D01*
X82593303Y-82939676D01*
X82838814Y-82694593D01*
X82971848Y-82374212D01*
X82972151Y-82027310D01*
X82839676Y-81706697D01*
X82735162Y-81602000D01*
X117247851Y-81602000D01*
X117106697Y-81660324D01*
X116861186Y-81905407D01*
X116728152Y-82225788D01*
X116727849Y-82572690D01*
X116860324Y-82893303D01*
X117105407Y-83138814D01*
X117425788Y-83271848D01*
X117772690Y-83272151D01*
X118093303Y-83139676D01*
X118338814Y-82894593D01*
X118471848Y-82574212D01*
X118472151Y-82227310D01*
X118339676Y-81906697D01*
X118094593Y-81661186D01*
X117952057Y-81602000D01*
X121398000Y-81602000D01*
X121398000Y-116298000D01*
X70602000Y-116298000D01*
X70602000Y-111572690D01*
X75227849Y-111572690D01*
X75321840Y-111800164D01*
X75228152Y-112025788D01*
X75227849Y-112372690D01*
X75321840Y-112600164D01*
X75228152Y-112825788D01*
X75227849Y-113172690D01*
X75360324Y-113493303D01*
X75605407Y-113738814D01*
X75925788Y-113871848D01*
X76272690Y-113872151D01*
X76593303Y-113739676D01*
X76838814Y-113494593D01*
X76971848Y-113174212D01*
X76972151Y-112827310D01*
X76878160Y-112599836D01*
X76971848Y-112374212D01*
X76971985Y-112216599D01*
X85383940Y-112216599D01*
X85516415Y-112537212D01*
X85761498Y-112782723D01*
X86081879Y-112915757D01*
X86428781Y-112916060D01*
X86749394Y-112783585D01*
X86994905Y-112538502D01*
X87105279Y-112272690D01*
X89127849Y-112272690D01*
X89260324Y-112593303D01*
X89505407Y-112838814D01*
X89825788Y-112971848D01*
X90172690Y-112972151D01*
X90493303Y-112839676D01*
X90738814Y-112594593D01*
X90831160Y-112372199D01*
X91043528Y-112372199D01*
X91176003Y-112692812D01*
X91421086Y-112938323D01*
X91741467Y-113071357D01*
X92088369Y-113071660D01*
X92407638Y-112939740D01*
X92725788Y-113071848D01*
X93072690Y-113072151D01*
X93393303Y-112939676D01*
X93638814Y-112694593D01*
X93771848Y-112374212D01*
X93772024Y-112172690D01*
X96127849Y-112172690D01*
X96260324Y-112493303D01*
X96505407Y-112738814D01*
X96825788Y-112871848D01*
X97172690Y-112872151D01*
X97493303Y-112739676D01*
X97738814Y-112494593D01*
X97830956Y-112272690D01*
X98627849Y-112272690D01*
X98760324Y-112593303D01*
X99005407Y-112838814D01*
X99325788Y-112971848D01*
X99672690Y-112972151D01*
X99993303Y-112839676D01*
X100200146Y-112633194D01*
X100405407Y-112838814D01*
X100725788Y-112971848D01*
X101072690Y-112972151D01*
X101393303Y-112839676D01*
X101638814Y-112594593D01*
X101762762Y-112296094D01*
X101805407Y-112338814D01*
X102125788Y-112471848D01*
X102472690Y-112472151D01*
X102761036Y-112353008D01*
X102860324Y-112593303D01*
X103105407Y-112838814D01*
X103425788Y-112971848D01*
X103772690Y-112972151D01*
X104093303Y-112839676D01*
X104338814Y-112594593D01*
X104471848Y-112274212D01*
X104472151Y-111927310D01*
X104339676Y-111606697D01*
X104106077Y-111372690D01*
X114827849Y-111372690D01*
X114921840Y-111600164D01*
X114828152Y-111825788D01*
X114827849Y-112172690D01*
X114901129Y-112350040D01*
X114828152Y-112525788D01*
X114827849Y-112872690D01*
X114960324Y-113193303D01*
X115205407Y-113438814D01*
X115525788Y-113571848D01*
X115872690Y-113572151D01*
X116193303Y-113439676D01*
X116438814Y-113194593D01*
X116571848Y-112874212D01*
X116572151Y-112527310D01*
X116498871Y-112349960D01*
X116571848Y-112174212D01*
X116572151Y-111827310D01*
X116478160Y-111599836D01*
X116571848Y-111374212D01*
X116572151Y-111027310D01*
X116439676Y-110706697D01*
X116194593Y-110461186D01*
X115874212Y-110328152D01*
X115527310Y-110327849D01*
X115206697Y-110460324D01*
X114961186Y-110705407D01*
X114828152Y-111025788D01*
X114827849Y-111372690D01*
X104106077Y-111372690D01*
X104094593Y-111361186D01*
X103774212Y-111228152D01*
X103427310Y-111227849D01*
X103138964Y-111346992D01*
X103039676Y-111106697D01*
X102794593Y-110861186D01*
X102474212Y-110728152D01*
X102127310Y-110727849D01*
X101806697Y-110860324D01*
X101561186Y-111105407D01*
X101437238Y-111403906D01*
X101394593Y-111361186D01*
X101074212Y-111228152D01*
X100727310Y-111227849D01*
X100406697Y-111360324D01*
X100199854Y-111566806D01*
X99994593Y-111361186D01*
X99674212Y-111228152D01*
X99327310Y-111227849D01*
X99006697Y-111360324D01*
X98761186Y-111605407D01*
X98628152Y-111925788D01*
X98627849Y-112272690D01*
X97830956Y-112272690D01*
X97871848Y-112174212D01*
X97872151Y-111827310D01*
X97739676Y-111506697D01*
X97494593Y-111261186D01*
X97174212Y-111128152D01*
X96827310Y-111127849D01*
X96506697Y-111260324D01*
X96261186Y-111505407D01*
X96128152Y-111825788D01*
X96127849Y-112172690D01*
X93772024Y-112172690D01*
X93772112Y-112071976D01*
X93972690Y-112072151D01*
X94293303Y-111939676D01*
X94538814Y-111694593D01*
X94671848Y-111374212D01*
X94672151Y-111027310D01*
X94539676Y-110706697D01*
X94294593Y-110461186D01*
X93974212Y-110328152D01*
X93627310Y-110327849D01*
X93306697Y-110460324D01*
X93061186Y-110705407D01*
X92928152Y-111025788D01*
X92927888Y-111328024D01*
X92727310Y-111327849D01*
X92408041Y-111459769D01*
X92089891Y-111327661D01*
X91742989Y-111327358D01*
X91422376Y-111459833D01*
X91176865Y-111704916D01*
X91043831Y-112025297D01*
X91043528Y-112372199D01*
X90831160Y-112372199D01*
X90871848Y-112274212D01*
X90872151Y-111927310D01*
X90739676Y-111606697D01*
X90494593Y-111361186D01*
X90174212Y-111228152D01*
X89827310Y-111227849D01*
X89506697Y-111360324D01*
X89261186Y-111605407D01*
X89128152Y-111925788D01*
X89127849Y-112272690D01*
X87105279Y-112272690D01*
X87127939Y-112218121D01*
X87128242Y-111871219D01*
X86995767Y-111550606D01*
X86750684Y-111305095D01*
X86430303Y-111172061D01*
X86083401Y-111171758D01*
X85762788Y-111304233D01*
X85517277Y-111549316D01*
X85384243Y-111869697D01*
X85383940Y-112216599D01*
X76971985Y-112216599D01*
X76972151Y-112027310D01*
X76878160Y-111799836D01*
X76971848Y-111574212D01*
X76972151Y-111227310D01*
X76839676Y-110906697D01*
X76594593Y-110661186D01*
X76274212Y-110528152D01*
X75927310Y-110527849D01*
X75606697Y-110660324D01*
X75361186Y-110905407D01*
X75228152Y-111225788D01*
X75227849Y-111572690D01*
X70602000Y-111572690D01*
X70602000Y-107972690D01*
X73827849Y-107972690D01*
X73960324Y-108293303D01*
X74205407Y-108538814D01*
X74525788Y-108671848D01*
X74872690Y-108672151D01*
X75193303Y-108539676D01*
X75438814Y-108294593D01*
X75447908Y-108272690D01*
X80927849Y-108272690D01*
X81060324Y-108593303D01*
X81305407Y-108838814D01*
X81625788Y-108971848D01*
X81972690Y-108972151D01*
X82293303Y-108839676D01*
X82538814Y-108594593D01*
X82630956Y-108372690D01*
X116727849Y-108372690D01*
X116860324Y-108693303D01*
X117105407Y-108938814D01*
X117425788Y-109071848D01*
X117772690Y-109072151D01*
X118093303Y-108939676D01*
X118338814Y-108694593D01*
X118471848Y-108374212D01*
X118472151Y-108027310D01*
X118339676Y-107706697D01*
X118094593Y-107461186D01*
X117774212Y-107328152D01*
X117427310Y-107327849D01*
X117106697Y-107460324D01*
X116861186Y-107705407D01*
X116728152Y-108025788D01*
X116727849Y-108372690D01*
X82630956Y-108372690D01*
X82671848Y-108274212D01*
X82672151Y-107927310D01*
X82539676Y-107606697D01*
X82505729Y-107572690D01*
X93827849Y-107572690D01*
X93960324Y-107893303D01*
X94205407Y-108138814D01*
X94525788Y-108271848D01*
X94872690Y-108272151D01*
X95193303Y-108139676D01*
X95438814Y-107894593D01*
X95571848Y-107574212D01*
X95572151Y-107227310D01*
X95439676Y-106906697D01*
X95194593Y-106661186D01*
X94874212Y-106528152D01*
X94527310Y-106527849D01*
X94206697Y-106660324D01*
X93961186Y-106905407D01*
X93828152Y-107225788D01*
X93827849Y-107572690D01*
X82505729Y-107572690D01*
X82294593Y-107361186D01*
X81974212Y-107228152D01*
X81627310Y-107227849D01*
X81306697Y-107360324D01*
X81061186Y-107605407D01*
X80928152Y-107925788D01*
X80927849Y-108272690D01*
X75447908Y-108272690D01*
X75571848Y-107974212D01*
X75572151Y-107627310D01*
X75439676Y-107306697D01*
X75194593Y-107061186D01*
X74874212Y-106928152D01*
X74527310Y-106927849D01*
X74206697Y-107060324D01*
X73961186Y-107305407D01*
X73828152Y-107625788D01*
X73827849Y-107972690D01*
X70602000Y-107972690D01*
X70602000Y-105672690D01*
X82927849Y-105672690D01*
X83060324Y-105993303D01*
X83305407Y-106238814D01*
X83625788Y-106371848D01*
X83972690Y-106372151D01*
X84293303Y-106239676D01*
X84525167Y-106008216D01*
X84560324Y-106093303D01*
X84805407Y-106338814D01*
X85125788Y-106471848D01*
X85472690Y-106472151D01*
X85793303Y-106339676D01*
X85805541Y-106327460D01*
X85816875Y-106338814D01*
X86137256Y-106471848D01*
X86484158Y-106472151D01*
X86804771Y-106339676D01*
X87050282Y-106094593D01*
X87183316Y-105774212D01*
X87183317Y-105772690D01*
X87827849Y-105772690D01*
X87960324Y-106093303D01*
X88205407Y-106338814D01*
X88525788Y-106471848D01*
X88872690Y-106472151D01*
X89193303Y-106339676D01*
X89438814Y-106094593D01*
X89530956Y-105872690D01*
X89727849Y-105872690D01*
X89860324Y-106193303D01*
X90105407Y-106438814D01*
X90425788Y-106571848D01*
X90772690Y-106572151D01*
X91093303Y-106439676D01*
X91338814Y-106194593D01*
X91471848Y-105874212D01*
X91472151Y-105527310D01*
X91339676Y-105206697D01*
X91094593Y-104961186D01*
X90774212Y-104828152D01*
X90427310Y-104827849D01*
X90106697Y-104960324D01*
X89861186Y-105205407D01*
X89728152Y-105525788D01*
X89727849Y-105872690D01*
X89530956Y-105872690D01*
X89571848Y-105774212D01*
X89572151Y-105427310D01*
X89439676Y-105106697D01*
X89194593Y-104861186D01*
X88874212Y-104728152D01*
X88527310Y-104727849D01*
X88206697Y-104860324D01*
X87961186Y-105105407D01*
X87828152Y-105425788D01*
X87827849Y-105772690D01*
X87183317Y-105772690D01*
X87183619Y-105427310D01*
X87051144Y-105106697D01*
X86806061Y-104861186D01*
X86485680Y-104728152D01*
X86138778Y-104727849D01*
X85818165Y-104860324D01*
X85805927Y-104872540D01*
X85794593Y-104861186D01*
X85474212Y-104728152D01*
X85127310Y-104727849D01*
X84806697Y-104860324D01*
X84574833Y-105091784D01*
X84539676Y-105006697D01*
X84294593Y-104761186D01*
X83974212Y-104628152D01*
X83627310Y-104627849D01*
X83306697Y-104760324D01*
X83061186Y-105005407D01*
X82928152Y-105325788D01*
X82927849Y-105672690D01*
X70602000Y-105672690D01*
X70602000Y-103672690D01*
X74327849Y-103672690D01*
X74460324Y-103993303D01*
X74705407Y-104238814D01*
X75025788Y-104371848D01*
X75372690Y-104372151D01*
X75693303Y-104239676D01*
X75938814Y-103994593D01*
X76071848Y-103674212D01*
X76071856Y-103664534D01*
X79819693Y-103664534D01*
X79952168Y-103985147D01*
X80197251Y-104230658D01*
X80517632Y-104363692D01*
X80864534Y-104363995D01*
X81185147Y-104231520D01*
X81430658Y-103986437D01*
X81563692Y-103666056D01*
X81563995Y-103319154D01*
X81503478Y-103172690D01*
X82927849Y-103172690D01*
X83060324Y-103493303D01*
X83305407Y-103738814D01*
X83625788Y-103871848D01*
X83972690Y-103872151D01*
X84293303Y-103739676D01*
X84538814Y-103494593D01*
X84671848Y-103174212D01*
X84671926Y-103084158D01*
X85439317Y-103084158D01*
X85571792Y-103404771D01*
X85816875Y-103650282D01*
X86137256Y-103783316D01*
X86484158Y-103783619D01*
X86804771Y-103651144D01*
X86883362Y-103572690D01*
X94027849Y-103572690D01*
X94160324Y-103893303D01*
X94405407Y-104138814D01*
X94725788Y-104271848D01*
X95072690Y-104272151D01*
X95376170Y-104146755D01*
X95641918Y-104257104D01*
X95988820Y-104257407D01*
X96197900Y-104171017D01*
X96209612Y-104182749D01*
X96529993Y-104315783D01*
X96876895Y-104316086D01*
X97197508Y-104183611D01*
X97320620Y-104060714D01*
X97499623Y-104240030D01*
X97820004Y-104373064D01*
X98166906Y-104373367D01*
X98445841Y-104258113D01*
X98710001Y-104367802D01*
X99056903Y-104368105D01*
X99377516Y-104235630D01*
X99623027Y-103990547D01*
X99713807Y-103771925D01*
X99733558Y-103771942D01*
X99628152Y-104025788D01*
X99627849Y-104372690D01*
X99760324Y-104693303D01*
X100005407Y-104938814D01*
X100068572Y-104965043D01*
X99992765Y-105040718D01*
X99760562Y-104808109D01*
X99440181Y-104675075D01*
X99093279Y-104674772D01*
X98772666Y-104807247D01*
X98742391Y-104837469D01*
X98554164Y-104759310D01*
X98207262Y-104759007D01*
X97948350Y-104865988D01*
X97664224Y-104748008D01*
X97317322Y-104747705D01*
X96996709Y-104880180D01*
X96854884Y-105021757D01*
X96694593Y-104861186D01*
X96374212Y-104728152D01*
X96027310Y-104727849D01*
X95706697Y-104860324D01*
X95461186Y-105105407D01*
X95328152Y-105425788D01*
X95327849Y-105772690D01*
X95460324Y-106093303D01*
X95705407Y-106338814D01*
X95796431Y-106376610D01*
X95796210Y-106629499D01*
X95928685Y-106950112D01*
X96173768Y-107195623D01*
X96494149Y-107328657D01*
X96841051Y-107328960D01*
X97161664Y-107196485D01*
X97407175Y-106951402D01*
X97540209Y-106631021D01*
X97540331Y-106491900D01*
X97662702Y-106492007D01*
X97921614Y-106385026D01*
X98205740Y-106503006D01*
X98552642Y-106503309D01*
X98873255Y-106370834D01*
X98903530Y-106340612D01*
X99091757Y-106418771D01*
X99140285Y-106418813D01*
X99216188Y-106602513D01*
X99461271Y-106848024D01*
X99781652Y-106981058D01*
X100128554Y-106981361D01*
X100449167Y-106848886D01*
X100694678Y-106603803D01*
X100754000Y-106460940D01*
X100850613Y-106461024D01*
X101130702Y-106345293D01*
X101393701Y-106454500D01*
X101740603Y-106454803D01*
X102061216Y-106322328D01*
X102306727Y-106077245D01*
X102439761Y-105756864D01*
X102440064Y-105409962D01*
X102307589Y-105089349D01*
X102062506Y-104843838D01*
X102011122Y-104822502D01*
X102128764Y-104705065D01*
X102261798Y-104384684D01*
X102262101Y-104037782D01*
X102129626Y-103717169D01*
X101884543Y-103471658D01*
X101564162Y-103338624D01*
X101217260Y-103338321D01*
X100957341Y-103445718D01*
X100674212Y-103328152D01*
X100566442Y-103328058D01*
X100671848Y-103074212D01*
X100672151Y-102727310D01*
X100539676Y-102406697D01*
X100413889Y-102280690D01*
X118927849Y-102280690D01*
X119060324Y-102601303D01*
X119305407Y-102846814D01*
X119625788Y-102979848D01*
X119972690Y-102980151D01*
X120293303Y-102847676D01*
X120538814Y-102602593D01*
X120671848Y-102282212D01*
X120672151Y-101935310D01*
X120539676Y-101614697D01*
X120294593Y-101369186D01*
X119974212Y-101236152D01*
X119627310Y-101235849D01*
X119306697Y-101368324D01*
X119061186Y-101613407D01*
X118928152Y-101933788D01*
X118927849Y-102280690D01*
X100413889Y-102280690D01*
X100294593Y-102161186D01*
X99974212Y-102028152D01*
X99627310Y-102027849D01*
X99306697Y-102160324D01*
X99061186Y-102405407D01*
X98970406Y-102624029D01*
X98711523Y-102623803D01*
X98432588Y-102739057D01*
X98168428Y-102629368D01*
X97821526Y-102629065D01*
X97500913Y-102761540D01*
X97377801Y-102884437D01*
X97198798Y-102705121D01*
X96878417Y-102572087D01*
X96531515Y-102571784D01*
X96322435Y-102658174D01*
X96310723Y-102646442D01*
X95990342Y-102513408D01*
X95643440Y-102513105D01*
X95339960Y-102638501D01*
X95074212Y-102528152D01*
X94727310Y-102527849D01*
X94406697Y-102660324D01*
X94161186Y-102905407D01*
X94028152Y-103225788D01*
X94027849Y-103572690D01*
X86883362Y-103572690D01*
X87050282Y-103406061D01*
X87183316Y-103085680D01*
X87183619Y-102738778D01*
X87051144Y-102418165D01*
X86806061Y-102172654D01*
X86485680Y-102039620D01*
X86138778Y-102039317D01*
X85818165Y-102171792D01*
X85572654Y-102416875D01*
X85439620Y-102737256D01*
X85439317Y-103084158D01*
X84671926Y-103084158D01*
X84672151Y-102827310D01*
X84539676Y-102506697D01*
X84294593Y-102261186D01*
X83974212Y-102128152D01*
X83627310Y-102127849D01*
X83306697Y-102260324D01*
X83061186Y-102505407D01*
X82928152Y-102825788D01*
X82927849Y-103172690D01*
X81503478Y-103172690D01*
X81431520Y-102998541D01*
X81186437Y-102753030D01*
X80866056Y-102619996D01*
X80519154Y-102619693D01*
X80198541Y-102752168D01*
X79953030Y-102997251D01*
X79819996Y-103317632D01*
X79819693Y-103664534D01*
X76071856Y-103664534D01*
X76072151Y-103327310D01*
X75939676Y-103006697D01*
X75694593Y-102761186D01*
X75374212Y-102628152D01*
X75027310Y-102627849D01*
X74706697Y-102760324D01*
X74461186Y-103005407D01*
X74328152Y-103325788D01*
X74327849Y-103672690D01*
X70602000Y-103672690D01*
X70602000Y-101072690D01*
X71764273Y-101072690D01*
X71896748Y-101393303D01*
X72141831Y-101638814D01*
X72462212Y-101771848D01*
X72809114Y-101772151D01*
X73129727Y-101639676D01*
X73375238Y-101394593D01*
X73508272Y-101074212D01*
X73508360Y-100972690D01*
X87827849Y-100972690D01*
X87960324Y-101293303D01*
X88205407Y-101538814D01*
X88525788Y-101671848D01*
X88872690Y-101672151D01*
X89113403Y-101572690D01*
X91227849Y-101572690D01*
X91360324Y-101893303D01*
X91605407Y-102138814D01*
X91925788Y-102271848D01*
X92272690Y-102272151D01*
X92593303Y-102139676D01*
X92838814Y-101894593D01*
X92971848Y-101574212D01*
X92972151Y-101227310D01*
X92839676Y-100906697D01*
X92594593Y-100661186D01*
X92274212Y-100528152D01*
X91927310Y-100527849D01*
X91606697Y-100660324D01*
X91361186Y-100905407D01*
X91228152Y-101225788D01*
X91227849Y-101572690D01*
X89113403Y-101572690D01*
X89193303Y-101539676D01*
X89438814Y-101294593D01*
X89571848Y-100974212D01*
X89572151Y-100627310D01*
X89439676Y-100306697D01*
X89194593Y-100061186D01*
X88874212Y-99928152D01*
X88527310Y-99927849D01*
X88206697Y-100060324D01*
X87961186Y-100305407D01*
X87828152Y-100625788D01*
X87827849Y-100972690D01*
X73508360Y-100972690D01*
X73508575Y-100727310D01*
X73376100Y-100406697D01*
X73131017Y-100161186D01*
X72810636Y-100028152D01*
X72463734Y-100027849D01*
X72143121Y-100160324D01*
X71897610Y-100405407D01*
X71764576Y-100725788D01*
X71764273Y-101072690D01*
X70602000Y-101072690D01*
X70602000Y-99772690D01*
X113727849Y-99772690D01*
X113860324Y-100093303D01*
X114105407Y-100338814D01*
X114425788Y-100471848D01*
X114772690Y-100472151D01*
X115093303Y-100339676D01*
X115338814Y-100094593D01*
X115471848Y-99774212D01*
X115472024Y-99572690D01*
X116327849Y-99572690D01*
X116460324Y-99893303D01*
X116705407Y-100138814D01*
X117025788Y-100271848D01*
X117372690Y-100272151D01*
X117693303Y-100139676D01*
X117938814Y-99894593D01*
X118071848Y-99574212D01*
X118072151Y-99227310D01*
X117939676Y-98906697D01*
X117694593Y-98661186D01*
X117374212Y-98528152D01*
X117027310Y-98527849D01*
X116706697Y-98660324D01*
X116461186Y-98905407D01*
X116328152Y-99225788D01*
X116327849Y-99572690D01*
X115472024Y-99572690D01*
X115472151Y-99427310D01*
X115339676Y-99106697D01*
X115094593Y-98861186D01*
X114774212Y-98728152D01*
X114427310Y-98727849D01*
X114106697Y-98860324D01*
X113861186Y-99105407D01*
X113728152Y-99425788D01*
X113727849Y-99772690D01*
X70602000Y-99772690D01*
X70602000Y-98172690D01*
X90327849Y-98172690D01*
X90460324Y-98493303D01*
X90705407Y-98738814D01*
X91025788Y-98871848D01*
X91372690Y-98872151D01*
X91693303Y-98739676D01*
X91938814Y-98494593D01*
X92071848Y-98174212D01*
X92072151Y-97827310D01*
X91939676Y-97506697D01*
X91694593Y-97261186D01*
X91374212Y-97128152D01*
X91027310Y-97127849D01*
X90706697Y-97260324D01*
X90461186Y-97505407D01*
X90328152Y-97825788D01*
X90327849Y-98172690D01*
X70602000Y-98172690D01*
X70602000Y-95472690D01*
X73894283Y-95472690D01*
X74026758Y-95793303D01*
X74271841Y-96038814D01*
X74592222Y-96171848D01*
X74939124Y-96172151D01*
X75259737Y-96039676D01*
X75505248Y-95794593D01*
X75638282Y-95474212D01*
X75638283Y-95472690D01*
X91527849Y-95472690D01*
X91660324Y-95793303D01*
X91905407Y-96038814D01*
X92225788Y-96171848D01*
X92572690Y-96172151D01*
X92893303Y-96039676D01*
X92960405Y-95972690D01*
X96027849Y-95972690D01*
X96160324Y-96293303D01*
X96405407Y-96538814D01*
X96725788Y-96671848D01*
X97072690Y-96672151D01*
X97393303Y-96539676D01*
X97638814Y-96294593D01*
X97653656Y-96258849D01*
X97925788Y-96371848D01*
X98272690Y-96372151D01*
X98593303Y-96239676D01*
X98754369Y-96078891D01*
X98760324Y-96093303D01*
X99005407Y-96338814D01*
X99325788Y-96471848D01*
X99672690Y-96472151D01*
X99993303Y-96339676D01*
X100238814Y-96094593D01*
X100371848Y-95774212D01*
X100371937Y-95672063D01*
X100472690Y-95672151D01*
X100793303Y-95539676D01*
X101038814Y-95294593D01*
X101047908Y-95272690D01*
X117427849Y-95272690D01*
X117560324Y-95593303D01*
X117805407Y-95838814D01*
X118125788Y-95971848D01*
X118472690Y-95972151D01*
X118793303Y-95839676D01*
X119038814Y-95594593D01*
X119171848Y-95274212D01*
X119172151Y-94927310D01*
X119039676Y-94606697D01*
X118794593Y-94361186D01*
X118474212Y-94228152D01*
X118127310Y-94227849D01*
X117806697Y-94360324D01*
X117561186Y-94605407D01*
X117428152Y-94925788D01*
X117427849Y-95272690D01*
X101047908Y-95272690D01*
X101171848Y-94974212D01*
X101172151Y-94627310D01*
X101039676Y-94306697D01*
X100794593Y-94061186D01*
X100474212Y-93928152D01*
X100127310Y-93927849D01*
X99806697Y-94060324D01*
X99561186Y-94305407D01*
X99428152Y-94625788D01*
X99428063Y-94727937D01*
X99327310Y-94727849D01*
X99006697Y-94860324D01*
X98845631Y-95021109D01*
X98839676Y-95006697D01*
X98594593Y-94761186D01*
X98283976Y-94632206D01*
X98559717Y-94518272D01*
X98805228Y-94273189D01*
X98938262Y-93952808D01*
X98938565Y-93605906D01*
X98806549Y-93286405D01*
X98943022Y-93286524D01*
X99218520Y-93172690D01*
X101433849Y-93172690D01*
X101566324Y-93493303D01*
X101811407Y-93738814D01*
X102131788Y-93871848D01*
X102478690Y-93872151D01*
X102799303Y-93739676D01*
X103044814Y-93494593D01*
X103177848Y-93174212D01*
X103178151Y-92827310D01*
X103045676Y-92506697D01*
X102800593Y-92261186D01*
X102480212Y-92128152D01*
X102133310Y-92127849D01*
X101812697Y-92260324D01*
X101567186Y-92505407D01*
X101434152Y-92825788D01*
X101433849Y-93172690D01*
X99218520Y-93172690D01*
X99263635Y-93154049D01*
X99509146Y-92908966D01*
X99642180Y-92588585D01*
X99642483Y-92241683D01*
X99510008Y-91921070D01*
X99264925Y-91675559D01*
X98944544Y-91542525D01*
X98597642Y-91542222D01*
X98277029Y-91674697D01*
X98031518Y-91919780D01*
X97898484Y-92240161D01*
X97898181Y-92587063D01*
X98030197Y-92906564D01*
X97893724Y-92906445D01*
X97573111Y-93038920D01*
X97327600Y-93284003D01*
X97284198Y-93388527D01*
X97113007Y-93317442D01*
X96766105Y-93317139D01*
X96445492Y-93449614D01*
X96199981Y-93694697D01*
X96066947Y-94015078D01*
X96066644Y-94361980D01*
X96199119Y-94682593D01*
X96444202Y-94928104D01*
X96585099Y-94986610D01*
X96406697Y-95060324D01*
X96161186Y-95305407D01*
X96028152Y-95625788D01*
X96027849Y-95972690D01*
X92960405Y-95972690D01*
X93138814Y-95794593D01*
X93271848Y-95474212D01*
X93272151Y-95127310D01*
X93139676Y-94806697D01*
X92894593Y-94561186D01*
X92574212Y-94428152D01*
X92227310Y-94427849D01*
X91906697Y-94560324D01*
X91661186Y-94805407D01*
X91528152Y-95125788D01*
X91527849Y-95472690D01*
X75638283Y-95472690D01*
X75638585Y-95127310D01*
X75506110Y-94806697D01*
X75261027Y-94561186D01*
X74940646Y-94428152D01*
X74593744Y-94427849D01*
X74273131Y-94560324D01*
X74027620Y-94805407D01*
X73894586Y-95125788D01*
X73894283Y-95472690D01*
X70602000Y-95472690D01*
X70602000Y-92672690D01*
X91527849Y-92672690D01*
X91660324Y-92993303D01*
X91905407Y-93238814D01*
X92225788Y-93371848D01*
X92572690Y-93372151D01*
X92893303Y-93239676D01*
X93138814Y-92994593D01*
X93271848Y-92674212D01*
X93271849Y-92672690D01*
X94813849Y-92672690D01*
X94946324Y-92993303D01*
X95191407Y-93238814D01*
X95511788Y-93371848D01*
X95858690Y-93372151D01*
X96179303Y-93239676D01*
X96424814Y-92994593D01*
X96557848Y-92674212D01*
X96558151Y-92327310D01*
X96425676Y-92006697D01*
X96180593Y-91761186D01*
X95860212Y-91628152D01*
X95513310Y-91627849D01*
X95192697Y-91760324D01*
X94947186Y-92005407D01*
X94814152Y-92325788D01*
X94813849Y-92672690D01*
X93271849Y-92672690D01*
X93272151Y-92327310D01*
X93139676Y-92006697D01*
X92894593Y-91761186D01*
X92574212Y-91628152D01*
X92227310Y-91627849D01*
X91906697Y-91760324D01*
X91661186Y-92005407D01*
X91528152Y-92325788D01*
X91527849Y-92672690D01*
X70602000Y-92672690D01*
X70602000Y-90872690D01*
X74427849Y-90872690D01*
X74560324Y-91193303D01*
X74805407Y-91438814D01*
X75125788Y-91571848D01*
X75472690Y-91572151D01*
X75793303Y-91439676D01*
X76038814Y-91194593D01*
X76171848Y-90874212D01*
X76171849Y-90872690D01*
X77027849Y-90872690D01*
X77160324Y-91193303D01*
X77405407Y-91438814D01*
X77725788Y-91571848D01*
X78072690Y-91572151D01*
X78393303Y-91439676D01*
X78460405Y-91372690D01*
X82927849Y-91372690D01*
X83060324Y-91693303D01*
X83305407Y-91938814D01*
X83625788Y-92071848D01*
X83668836Y-92071886D01*
X83760324Y-92293303D01*
X84005407Y-92538814D01*
X84325788Y-92671848D01*
X84672690Y-92672151D01*
X84993303Y-92539676D01*
X85238814Y-92294593D01*
X85371848Y-91974212D01*
X85372151Y-91627310D01*
X85239676Y-91306697D01*
X84994593Y-91061186D01*
X84674212Y-90928152D01*
X84631164Y-90928114D01*
X84539676Y-90706697D01*
X84294593Y-90461186D01*
X83974212Y-90328152D01*
X83627310Y-90327849D01*
X83306697Y-90460324D01*
X83061186Y-90705407D01*
X82928152Y-91025788D01*
X82927849Y-91372690D01*
X78460405Y-91372690D01*
X78638814Y-91194593D01*
X78771848Y-90874212D01*
X78772151Y-90527310D01*
X78639676Y-90206697D01*
X78394593Y-89961186D01*
X78074212Y-89828152D01*
X77727310Y-89827849D01*
X77406697Y-89960324D01*
X77161186Y-90205407D01*
X77028152Y-90525788D01*
X77027849Y-90872690D01*
X76171849Y-90872690D01*
X76172151Y-90527310D01*
X76039676Y-90206697D01*
X75794593Y-89961186D01*
X75474212Y-89828152D01*
X75127310Y-89827849D01*
X74806697Y-89960324D01*
X74561186Y-90205407D01*
X74428152Y-90525788D01*
X74427849Y-90872690D01*
X70602000Y-90872690D01*
X70602000Y-89083749D01*
X84516790Y-89083749D01*
X84649265Y-89404362D01*
X84894348Y-89649873D01*
X85214729Y-89782907D01*
X85528102Y-89783181D01*
X85527849Y-90072690D01*
X85660324Y-90393303D01*
X85905407Y-90638814D01*
X86225788Y-90771848D01*
X86572690Y-90772151D01*
X86893303Y-90639676D01*
X87138814Y-90394593D01*
X87271848Y-90074212D01*
X87272151Y-89727310D01*
X87211569Y-89580690D01*
X118927849Y-89580690D01*
X119060324Y-89901303D01*
X119305407Y-90146814D01*
X119625788Y-90279848D01*
X119972690Y-90280151D01*
X120293303Y-90147676D01*
X120538814Y-89902593D01*
X120671848Y-89582212D01*
X120672151Y-89235310D01*
X120539676Y-88914697D01*
X120294593Y-88669186D01*
X119974212Y-88536152D01*
X119627310Y-88535849D01*
X119306697Y-88668324D01*
X119061186Y-88913407D01*
X118928152Y-89233788D01*
X118927849Y-89580690D01*
X87211569Y-89580690D01*
X87139676Y-89406697D01*
X86894593Y-89161186D01*
X86574212Y-89028152D01*
X86260839Y-89027878D01*
X86261092Y-88738369D01*
X86128617Y-88417756D01*
X85883534Y-88172245D01*
X85563153Y-88039211D01*
X85216251Y-88038908D01*
X84895638Y-88171383D01*
X84650127Y-88416466D01*
X84517093Y-88736847D01*
X84516790Y-89083749D01*
X70602000Y-89083749D01*
X70602000Y-88368634D01*
X71727849Y-88368634D01*
X71860324Y-88689247D01*
X72105407Y-88934758D01*
X72425788Y-89067792D01*
X72772690Y-89068095D01*
X73093303Y-88935620D01*
X73338814Y-88690537D01*
X73471848Y-88370156D01*
X73472151Y-88023254D01*
X73339676Y-87702641D01*
X73309778Y-87672690D01*
X92127849Y-87672690D01*
X92260324Y-87993303D01*
X92505407Y-88238814D01*
X92825788Y-88371848D01*
X93172690Y-88372151D01*
X93493303Y-88239676D01*
X93738814Y-87994593D01*
X93871848Y-87674212D01*
X93872151Y-87327310D01*
X93766944Y-87072690D01*
X110827849Y-87072690D01*
X110960324Y-87393303D01*
X111205407Y-87638814D01*
X111525788Y-87771848D01*
X111872690Y-87772151D01*
X112193303Y-87639676D01*
X112438814Y-87394593D01*
X112571848Y-87074212D01*
X112571849Y-87072690D01*
X116327849Y-87072690D01*
X116460324Y-87393303D01*
X116705407Y-87638814D01*
X117025788Y-87771848D01*
X117372690Y-87772151D01*
X117693303Y-87639676D01*
X117938814Y-87394593D01*
X118071848Y-87074212D01*
X118072151Y-86727310D01*
X117939676Y-86406697D01*
X117694593Y-86161186D01*
X117374212Y-86028152D01*
X117027310Y-86027849D01*
X116706697Y-86160324D01*
X116461186Y-86405407D01*
X116328152Y-86725788D01*
X116327849Y-87072690D01*
X112571849Y-87072690D01*
X112572151Y-86727310D01*
X112439676Y-86406697D01*
X112194593Y-86161186D01*
X111874212Y-86028152D01*
X111527310Y-86027849D01*
X111206697Y-86160324D01*
X110961186Y-86405407D01*
X110828152Y-86725788D01*
X110827849Y-87072690D01*
X93766944Y-87072690D01*
X93739676Y-87006697D01*
X93494593Y-86761186D01*
X93174212Y-86628152D01*
X92827310Y-86627849D01*
X92506697Y-86760324D01*
X92261186Y-87005407D01*
X92128152Y-87325788D01*
X92127849Y-87672690D01*
X73309778Y-87672690D01*
X73094593Y-87457130D01*
X72774212Y-87324096D01*
X72427310Y-87323793D01*
X72106697Y-87456268D01*
X71861186Y-87701351D01*
X71728152Y-88021732D01*
X71727849Y-88368634D01*
X70602000Y-88368634D01*
X70602000Y-86172690D01*
X80627849Y-86172690D01*
X80760324Y-86493303D01*
X81005407Y-86738814D01*
X81325788Y-86871848D01*
X81672690Y-86872151D01*
X81993303Y-86739676D01*
X82238814Y-86494593D01*
X82371848Y-86174212D01*
X82372151Y-85827310D01*
X82239676Y-85506697D01*
X81994593Y-85261186D01*
X81674212Y-85128152D01*
X81327310Y-85127849D01*
X81006697Y-85260324D01*
X80761186Y-85505407D01*
X80628152Y-85825788D01*
X80627849Y-86172690D01*
X70602000Y-86172690D01*
X70602000Y-84972690D01*
X95827849Y-84972690D01*
X95960324Y-85293303D01*
X96205407Y-85538814D01*
X96525788Y-85671848D01*
X96872690Y-85672151D01*
X97193303Y-85539676D01*
X97438814Y-85294593D01*
X97571848Y-84974212D01*
X97572151Y-84627310D01*
X97439676Y-84306697D01*
X97194593Y-84061186D01*
X96874212Y-83928152D01*
X96527310Y-83927849D01*
X96206697Y-84060324D01*
X95961186Y-84305407D01*
X95828152Y-84625788D01*
X95827849Y-84972690D01*
X70602000Y-84972690D01*
X70602000Y-83872690D01*
X85827849Y-83872690D01*
X85960324Y-84193303D01*
X86205407Y-84438814D01*
X86525788Y-84571848D01*
X86872690Y-84572151D01*
X87193303Y-84439676D01*
X87400146Y-84233194D01*
X87605407Y-84438814D01*
X87925788Y-84571848D01*
X88272690Y-84572151D01*
X88593303Y-84439676D01*
X88838814Y-84194593D01*
X88971848Y-83874212D01*
X88972151Y-83527310D01*
X88839676Y-83206697D01*
X88594593Y-82961186D01*
X88274212Y-82828152D01*
X87927310Y-82827849D01*
X87606697Y-82960324D01*
X87399854Y-83166806D01*
X87194593Y-82961186D01*
X86874212Y-82828152D01*
X86527310Y-82827849D01*
X86206697Y-82960324D01*
X85961186Y-83205407D01*
X85828152Y-83525788D01*
X85827849Y-83872690D01*
X70602000Y-83872690D01*
X70602000Y-82772690D01*
X73827849Y-82772690D01*
X73960324Y-83093303D01*
X74205407Y-83338814D01*
X74525788Y-83471848D01*
X74872690Y-83472151D01*
X75193303Y-83339676D01*
X75438814Y-83094593D01*
X75571848Y-82774212D01*
X75572151Y-82427310D01*
X75439676Y-82106697D01*
X75194593Y-81861186D01*
X74874212Y-81728152D01*
X74527310Y-81727849D01*
X74206697Y-81860324D01*
X73961186Y-82105407D01*
X73828152Y-82425788D01*
X73827849Y-82772690D01*
X70602000Y-82772690D01*
X70602000Y-81602000D01*
X81464774Y-81602000D01*
X81361186Y-81705407D01*
X81361186Y-81705407D01*
G37*
X81361186Y-81705407D02*
X81228152Y-82025788D01*
X81227849Y-82372690D01*
X81360324Y-82693303D01*
X81605407Y-82938814D01*
X81925788Y-83071848D01*
X82272690Y-83072151D01*
X82593303Y-82939676D01*
X82838814Y-82694593D01*
X82971848Y-82374212D01*
X82972151Y-82027310D01*
X82839676Y-81706697D01*
X82735162Y-81602000D01*
X117247851Y-81602000D01*
X117106697Y-81660324D01*
X116861186Y-81905407D01*
X116728152Y-82225788D01*
X116727849Y-82572690D01*
X116860324Y-82893303D01*
X117105407Y-83138814D01*
X117425788Y-83271848D01*
X117772690Y-83272151D01*
X118093303Y-83139676D01*
X118338814Y-82894593D01*
X118471848Y-82574212D01*
X118472151Y-82227310D01*
X118339676Y-81906697D01*
X118094593Y-81661186D01*
X117952057Y-81602000D01*
X121398000Y-81602000D01*
X121398000Y-116298000D01*
X70602000Y-116298000D01*
X70602000Y-111572690D01*
X75227849Y-111572690D01*
X75321840Y-111800164D01*
X75228152Y-112025788D01*
X75227849Y-112372690D01*
X75321840Y-112600164D01*
X75228152Y-112825788D01*
X75227849Y-113172690D01*
X75360324Y-113493303D01*
X75605407Y-113738814D01*
X75925788Y-113871848D01*
X76272690Y-113872151D01*
X76593303Y-113739676D01*
X76838814Y-113494593D01*
X76971848Y-113174212D01*
X76972151Y-112827310D01*
X76878160Y-112599836D01*
X76971848Y-112374212D01*
X76971985Y-112216599D01*
X85383940Y-112216599D01*
X85516415Y-112537212D01*
X85761498Y-112782723D01*
X86081879Y-112915757D01*
X86428781Y-112916060D01*
X86749394Y-112783585D01*
X86994905Y-112538502D01*
X87105279Y-112272690D01*
X89127849Y-112272690D01*
X89260324Y-112593303D01*
X89505407Y-112838814D01*
X89825788Y-112971848D01*
X90172690Y-112972151D01*
X90493303Y-112839676D01*
X90738814Y-112594593D01*
X90831160Y-112372199D01*
X91043528Y-112372199D01*
X91176003Y-112692812D01*
X91421086Y-112938323D01*
X91741467Y-113071357D01*
X92088369Y-113071660D01*
X92407638Y-112939740D01*
X92725788Y-113071848D01*
X93072690Y-113072151D01*
X93393303Y-112939676D01*
X93638814Y-112694593D01*
X93771848Y-112374212D01*
X93772024Y-112172690D01*
X96127849Y-112172690D01*
X96260324Y-112493303D01*
X96505407Y-112738814D01*
X96825788Y-112871848D01*
X97172690Y-112872151D01*
X97493303Y-112739676D01*
X97738814Y-112494593D01*
X97830956Y-112272690D01*
X98627849Y-112272690D01*
X98760324Y-112593303D01*
X99005407Y-112838814D01*
X99325788Y-112971848D01*
X99672690Y-112972151D01*
X99993303Y-112839676D01*
X100200146Y-112633194D01*
X100405407Y-112838814D01*
X100725788Y-112971848D01*
X101072690Y-112972151D01*
X101393303Y-112839676D01*
X101638814Y-112594593D01*
X101762762Y-112296094D01*
X101805407Y-112338814D01*
X102125788Y-112471848D01*
X102472690Y-112472151D01*
X102761036Y-112353008D01*
X102860324Y-112593303D01*
X103105407Y-112838814D01*
X103425788Y-112971848D01*
X103772690Y-112972151D01*
X104093303Y-112839676D01*
X104338814Y-112594593D01*
X104471848Y-112274212D01*
X104472151Y-111927310D01*
X104339676Y-111606697D01*
X104106077Y-111372690D01*
X114827849Y-111372690D01*
X114921840Y-111600164D01*
X114828152Y-111825788D01*
X114827849Y-112172690D01*
X114901129Y-112350040D01*
X114828152Y-112525788D01*
X114827849Y-112872690D01*
X114960324Y-113193303D01*
X115205407Y-113438814D01*
X115525788Y-113571848D01*
X115872690Y-113572151D01*
X116193303Y-113439676D01*
X116438814Y-113194593D01*
X116571848Y-112874212D01*
X116572151Y-112527310D01*
X116498871Y-112349960D01*
X116571848Y-112174212D01*
X116572151Y-111827310D01*
X116478160Y-111599836D01*
X116571848Y-111374212D01*
X116572151Y-111027310D01*
X116439676Y-110706697D01*
X116194593Y-110461186D01*
X115874212Y-110328152D01*
X115527310Y-110327849D01*
X115206697Y-110460324D01*
X114961186Y-110705407D01*
X114828152Y-111025788D01*
X114827849Y-111372690D01*
X104106077Y-111372690D01*
X104094593Y-111361186D01*
X103774212Y-111228152D01*
X103427310Y-111227849D01*
X103138964Y-111346992D01*
X103039676Y-111106697D01*
X102794593Y-110861186D01*
X102474212Y-110728152D01*
X102127310Y-110727849D01*
X101806697Y-110860324D01*
X101561186Y-111105407D01*
X101437238Y-111403906D01*
X101394593Y-111361186D01*
X101074212Y-111228152D01*
X100727310Y-111227849D01*
X100406697Y-111360324D01*
X100199854Y-111566806D01*
X99994593Y-111361186D01*
X99674212Y-111228152D01*
X99327310Y-111227849D01*
X99006697Y-111360324D01*
X98761186Y-111605407D01*
X98628152Y-111925788D01*
X98627849Y-112272690D01*
X97830956Y-112272690D01*
X97871848Y-112174212D01*
X97872151Y-111827310D01*
X97739676Y-111506697D01*
X97494593Y-111261186D01*
X97174212Y-111128152D01*
X96827310Y-111127849D01*
X96506697Y-111260324D01*
X96261186Y-111505407D01*
X96128152Y-111825788D01*
X96127849Y-112172690D01*
X93772024Y-112172690D01*
X93772112Y-112071976D01*
X93972690Y-112072151D01*
X94293303Y-111939676D01*
X94538814Y-111694593D01*
X94671848Y-111374212D01*
X94672151Y-111027310D01*
X94539676Y-110706697D01*
X94294593Y-110461186D01*
X93974212Y-110328152D01*
X93627310Y-110327849D01*
X93306697Y-110460324D01*
X93061186Y-110705407D01*
X92928152Y-111025788D01*
X92927888Y-111328024D01*
X92727310Y-111327849D01*
X92408041Y-111459769D01*
X92089891Y-111327661D01*
X91742989Y-111327358D01*
X91422376Y-111459833D01*
X91176865Y-111704916D01*
X91043831Y-112025297D01*
X91043528Y-112372199D01*
X90831160Y-112372199D01*
X90871848Y-112274212D01*
X90872151Y-111927310D01*
X90739676Y-111606697D01*
X90494593Y-111361186D01*
X90174212Y-111228152D01*
X89827310Y-111227849D01*
X89506697Y-111360324D01*
X89261186Y-111605407D01*
X89128152Y-111925788D01*
X89127849Y-112272690D01*
X87105279Y-112272690D01*
X87127939Y-112218121D01*
X87128242Y-111871219D01*
X86995767Y-111550606D01*
X86750684Y-111305095D01*
X86430303Y-111172061D01*
X86083401Y-111171758D01*
X85762788Y-111304233D01*
X85517277Y-111549316D01*
X85384243Y-111869697D01*
X85383940Y-112216599D01*
X76971985Y-112216599D01*
X76972151Y-112027310D01*
X76878160Y-111799836D01*
X76971848Y-111574212D01*
X76972151Y-111227310D01*
X76839676Y-110906697D01*
X76594593Y-110661186D01*
X76274212Y-110528152D01*
X75927310Y-110527849D01*
X75606697Y-110660324D01*
X75361186Y-110905407D01*
X75228152Y-111225788D01*
X75227849Y-111572690D01*
X70602000Y-111572690D01*
X70602000Y-107972690D01*
X73827849Y-107972690D01*
X73960324Y-108293303D01*
X74205407Y-108538814D01*
X74525788Y-108671848D01*
X74872690Y-108672151D01*
X75193303Y-108539676D01*
X75438814Y-108294593D01*
X75447908Y-108272690D01*
X80927849Y-108272690D01*
X81060324Y-108593303D01*
X81305407Y-108838814D01*
X81625788Y-108971848D01*
X81972690Y-108972151D01*
X82293303Y-108839676D01*
X82538814Y-108594593D01*
X82630956Y-108372690D01*
X116727849Y-108372690D01*
X116860324Y-108693303D01*
X117105407Y-108938814D01*
X117425788Y-109071848D01*
X117772690Y-109072151D01*
X118093303Y-108939676D01*
X118338814Y-108694593D01*
X118471848Y-108374212D01*
X118472151Y-108027310D01*
X118339676Y-107706697D01*
X118094593Y-107461186D01*
X117774212Y-107328152D01*
X117427310Y-107327849D01*
X117106697Y-107460324D01*
X116861186Y-107705407D01*
X116728152Y-108025788D01*
X116727849Y-108372690D01*
X82630956Y-108372690D01*
X82671848Y-108274212D01*
X82672151Y-107927310D01*
X82539676Y-107606697D01*
X82505729Y-107572690D01*
X93827849Y-107572690D01*
X93960324Y-107893303D01*
X94205407Y-108138814D01*
X94525788Y-108271848D01*
X94872690Y-108272151D01*
X95193303Y-108139676D01*
X95438814Y-107894593D01*
X95571848Y-107574212D01*
X95572151Y-107227310D01*
X95439676Y-106906697D01*
X95194593Y-106661186D01*
X94874212Y-106528152D01*
X94527310Y-106527849D01*
X94206697Y-106660324D01*
X93961186Y-106905407D01*
X93828152Y-107225788D01*
X93827849Y-107572690D01*
X82505729Y-107572690D01*
X82294593Y-107361186D01*
X81974212Y-107228152D01*
X81627310Y-107227849D01*
X81306697Y-107360324D01*
X81061186Y-107605407D01*
X80928152Y-107925788D01*
X80927849Y-108272690D01*
X75447908Y-108272690D01*
X75571848Y-107974212D01*
X75572151Y-107627310D01*
X75439676Y-107306697D01*
X75194593Y-107061186D01*
X74874212Y-106928152D01*
X74527310Y-106927849D01*
X74206697Y-107060324D01*
X73961186Y-107305407D01*
X73828152Y-107625788D01*
X73827849Y-107972690D01*
X70602000Y-107972690D01*
X70602000Y-105672690D01*
X82927849Y-105672690D01*
X83060324Y-105993303D01*
X83305407Y-106238814D01*
X83625788Y-106371848D01*
X83972690Y-106372151D01*
X84293303Y-106239676D01*
X84525167Y-106008216D01*
X84560324Y-106093303D01*
X84805407Y-106338814D01*
X85125788Y-106471848D01*
X85472690Y-106472151D01*
X85793303Y-106339676D01*
X85805541Y-106327460D01*
X85816875Y-106338814D01*
X86137256Y-106471848D01*
X86484158Y-106472151D01*
X86804771Y-106339676D01*
X87050282Y-106094593D01*
X87183316Y-105774212D01*
X87183317Y-105772690D01*
X87827849Y-105772690D01*
X87960324Y-106093303D01*
X88205407Y-106338814D01*
X88525788Y-106471848D01*
X88872690Y-106472151D01*
X89193303Y-106339676D01*
X89438814Y-106094593D01*
X89530956Y-105872690D01*
X89727849Y-105872690D01*
X89860324Y-106193303D01*
X90105407Y-106438814D01*
X90425788Y-106571848D01*
X90772690Y-106572151D01*
X91093303Y-106439676D01*
X91338814Y-106194593D01*
X91471848Y-105874212D01*
X91472151Y-105527310D01*
X91339676Y-105206697D01*
X91094593Y-104961186D01*
X90774212Y-104828152D01*
X90427310Y-104827849D01*
X90106697Y-104960324D01*
X89861186Y-105205407D01*
X89728152Y-105525788D01*
X89727849Y-105872690D01*
X89530956Y-105872690D01*
X89571848Y-105774212D01*
X89572151Y-105427310D01*
X89439676Y-105106697D01*
X89194593Y-104861186D01*
X88874212Y-104728152D01*
X88527310Y-104727849D01*
X88206697Y-104860324D01*
X87961186Y-105105407D01*
X87828152Y-105425788D01*
X87827849Y-105772690D01*
X87183317Y-105772690D01*
X87183619Y-105427310D01*
X87051144Y-105106697D01*
X86806061Y-104861186D01*
X86485680Y-104728152D01*
X86138778Y-104727849D01*
X85818165Y-104860324D01*
X85805927Y-104872540D01*
X85794593Y-104861186D01*
X85474212Y-104728152D01*
X85127310Y-104727849D01*
X84806697Y-104860324D01*
X84574833Y-105091784D01*
X84539676Y-105006697D01*
X84294593Y-104761186D01*
X83974212Y-104628152D01*
X83627310Y-104627849D01*
X83306697Y-104760324D01*
X83061186Y-105005407D01*
X82928152Y-105325788D01*
X82927849Y-105672690D01*
X70602000Y-105672690D01*
X70602000Y-103672690D01*
X74327849Y-103672690D01*
X74460324Y-103993303D01*
X74705407Y-104238814D01*
X75025788Y-104371848D01*
X75372690Y-104372151D01*
X75693303Y-104239676D01*
X75938814Y-103994593D01*
X76071848Y-103674212D01*
X76071856Y-103664534D01*
X79819693Y-103664534D01*
X79952168Y-103985147D01*
X80197251Y-104230658D01*
X80517632Y-104363692D01*
X80864534Y-104363995D01*
X81185147Y-104231520D01*
X81430658Y-103986437D01*
X81563692Y-103666056D01*
X81563995Y-103319154D01*
X81503478Y-103172690D01*
X82927849Y-103172690D01*
X83060324Y-103493303D01*
X83305407Y-103738814D01*
X83625788Y-103871848D01*
X83972690Y-103872151D01*
X84293303Y-103739676D01*
X84538814Y-103494593D01*
X84671848Y-103174212D01*
X84671926Y-103084158D01*
X85439317Y-103084158D01*
X85571792Y-103404771D01*
X85816875Y-103650282D01*
X86137256Y-103783316D01*
X86484158Y-103783619D01*
X86804771Y-103651144D01*
X86883362Y-103572690D01*
X94027849Y-103572690D01*
X94160324Y-103893303D01*
X94405407Y-104138814D01*
X94725788Y-104271848D01*
X95072690Y-104272151D01*
X95376170Y-104146755D01*
X95641918Y-104257104D01*
X95988820Y-104257407D01*
X96197900Y-104171017D01*
X96209612Y-104182749D01*
X96529993Y-104315783D01*
X96876895Y-104316086D01*
X97197508Y-104183611D01*
X97320620Y-104060714D01*
X97499623Y-104240030D01*
X97820004Y-104373064D01*
X98166906Y-104373367D01*
X98445841Y-104258113D01*
X98710001Y-104367802D01*
X99056903Y-104368105D01*
X99377516Y-104235630D01*
X99623027Y-103990547D01*
X99713807Y-103771925D01*
X99733558Y-103771942D01*
X99628152Y-104025788D01*
X99627849Y-104372690D01*
X99760324Y-104693303D01*
X100005407Y-104938814D01*
X100068572Y-104965043D01*
X99992765Y-105040718D01*
X99760562Y-104808109D01*
X99440181Y-104675075D01*
X99093279Y-104674772D01*
X98772666Y-104807247D01*
X98742391Y-104837469D01*
X98554164Y-104759310D01*
X98207262Y-104759007D01*
X97948350Y-104865988D01*
X97664224Y-104748008D01*
X97317322Y-104747705D01*
X96996709Y-104880180D01*
X96854884Y-105021757D01*
X96694593Y-104861186D01*
X96374212Y-104728152D01*
X96027310Y-104727849D01*
X95706697Y-104860324D01*
X95461186Y-105105407D01*
X95328152Y-105425788D01*
X95327849Y-105772690D01*
X95460324Y-106093303D01*
X95705407Y-106338814D01*
X95796431Y-106376610D01*
X95796210Y-106629499D01*
X95928685Y-106950112D01*
X96173768Y-107195623D01*
X96494149Y-107328657D01*
X96841051Y-107328960D01*
X97161664Y-107196485D01*
X97407175Y-106951402D01*
X97540209Y-106631021D01*
X97540331Y-106491900D01*
X97662702Y-106492007D01*
X97921614Y-106385026D01*
X98205740Y-106503006D01*
X98552642Y-106503309D01*
X98873255Y-106370834D01*
X98903530Y-106340612D01*
X99091757Y-106418771D01*
X99140285Y-106418813D01*
X99216188Y-106602513D01*
X99461271Y-106848024D01*
X99781652Y-106981058D01*
X100128554Y-106981361D01*
X100449167Y-106848886D01*
X100694678Y-106603803D01*
X100754000Y-106460940D01*
X100850613Y-106461024D01*
X101130702Y-106345293D01*
X101393701Y-106454500D01*
X101740603Y-106454803D01*
X102061216Y-106322328D01*
X102306727Y-106077245D01*
X102439761Y-105756864D01*
X102440064Y-105409962D01*
X102307589Y-105089349D01*
X102062506Y-104843838D01*
X102011122Y-104822502D01*
X102128764Y-104705065D01*
X102261798Y-104384684D01*
X102262101Y-104037782D01*
X102129626Y-103717169D01*
X101884543Y-103471658D01*
X101564162Y-103338624D01*
X101217260Y-103338321D01*
X100957341Y-103445718D01*
X100674212Y-103328152D01*
X100566442Y-103328058D01*
X100671848Y-103074212D01*
X100672151Y-102727310D01*
X100539676Y-102406697D01*
X100413889Y-102280690D01*
X118927849Y-102280690D01*
X119060324Y-102601303D01*
X119305407Y-102846814D01*
X119625788Y-102979848D01*
X119972690Y-102980151D01*
X120293303Y-102847676D01*
X120538814Y-102602593D01*
X120671848Y-102282212D01*
X120672151Y-101935310D01*
X120539676Y-101614697D01*
X120294593Y-101369186D01*
X119974212Y-101236152D01*
X119627310Y-101235849D01*
X119306697Y-101368324D01*
X119061186Y-101613407D01*
X118928152Y-101933788D01*
X118927849Y-102280690D01*
X100413889Y-102280690D01*
X100294593Y-102161186D01*
X99974212Y-102028152D01*
X99627310Y-102027849D01*
X99306697Y-102160324D01*
X99061186Y-102405407D01*
X98970406Y-102624029D01*
X98711523Y-102623803D01*
X98432588Y-102739057D01*
X98168428Y-102629368D01*
X97821526Y-102629065D01*
X97500913Y-102761540D01*
X97377801Y-102884437D01*
X97198798Y-102705121D01*
X96878417Y-102572087D01*
X96531515Y-102571784D01*
X96322435Y-102658174D01*
X96310723Y-102646442D01*
X95990342Y-102513408D01*
X95643440Y-102513105D01*
X95339960Y-102638501D01*
X95074212Y-102528152D01*
X94727310Y-102527849D01*
X94406697Y-102660324D01*
X94161186Y-102905407D01*
X94028152Y-103225788D01*
X94027849Y-103572690D01*
X86883362Y-103572690D01*
X87050282Y-103406061D01*
X87183316Y-103085680D01*
X87183619Y-102738778D01*
X87051144Y-102418165D01*
X86806061Y-102172654D01*
X86485680Y-102039620D01*
X86138778Y-102039317D01*
X85818165Y-102171792D01*
X85572654Y-102416875D01*
X85439620Y-102737256D01*
X85439317Y-103084158D01*
X84671926Y-103084158D01*
X84672151Y-102827310D01*
X84539676Y-102506697D01*
X84294593Y-102261186D01*
X83974212Y-102128152D01*
X83627310Y-102127849D01*
X83306697Y-102260324D01*
X83061186Y-102505407D01*
X82928152Y-102825788D01*
X82927849Y-103172690D01*
X81503478Y-103172690D01*
X81431520Y-102998541D01*
X81186437Y-102753030D01*
X80866056Y-102619996D01*
X80519154Y-102619693D01*
X80198541Y-102752168D01*
X79953030Y-102997251D01*
X79819996Y-103317632D01*
X79819693Y-103664534D01*
X76071856Y-103664534D01*
X76072151Y-103327310D01*
X75939676Y-103006697D01*
X75694593Y-102761186D01*
X75374212Y-102628152D01*
X75027310Y-102627849D01*
X74706697Y-102760324D01*
X74461186Y-103005407D01*
X74328152Y-103325788D01*
X74327849Y-103672690D01*
X70602000Y-103672690D01*
X70602000Y-101072690D01*
X71764273Y-101072690D01*
X71896748Y-101393303D01*
X72141831Y-101638814D01*
X72462212Y-101771848D01*
X72809114Y-101772151D01*
X73129727Y-101639676D01*
X73375238Y-101394593D01*
X73508272Y-101074212D01*
X73508360Y-100972690D01*
X87827849Y-100972690D01*
X87960324Y-101293303D01*
X88205407Y-101538814D01*
X88525788Y-101671848D01*
X88872690Y-101672151D01*
X89113403Y-101572690D01*
X91227849Y-101572690D01*
X91360324Y-101893303D01*
X91605407Y-102138814D01*
X91925788Y-102271848D01*
X92272690Y-102272151D01*
X92593303Y-102139676D01*
X92838814Y-101894593D01*
X92971848Y-101574212D01*
X92972151Y-101227310D01*
X92839676Y-100906697D01*
X92594593Y-100661186D01*
X92274212Y-100528152D01*
X91927310Y-100527849D01*
X91606697Y-100660324D01*
X91361186Y-100905407D01*
X91228152Y-101225788D01*
X91227849Y-101572690D01*
X89113403Y-101572690D01*
X89193303Y-101539676D01*
X89438814Y-101294593D01*
X89571848Y-100974212D01*
X89572151Y-100627310D01*
X89439676Y-100306697D01*
X89194593Y-100061186D01*
X88874212Y-99928152D01*
X88527310Y-99927849D01*
X88206697Y-100060324D01*
X87961186Y-100305407D01*
X87828152Y-100625788D01*
X87827849Y-100972690D01*
X73508360Y-100972690D01*
X73508575Y-100727310D01*
X73376100Y-100406697D01*
X73131017Y-100161186D01*
X72810636Y-100028152D01*
X72463734Y-100027849D01*
X72143121Y-100160324D01*
X71897610Y-100405407D01*
X71764576Y-100725788D01*
X71764273Y-101072690D01*
X70602000Y-101072690D01*
X70602000Y-99772690D01*
X113727849Y-99772690D01*
X113860324Y-100093303D01*
X114105407Y-100338814D01*
X114425788Y-100471848D01*
X114772690Y-100472151D01*
X115093303Y-100339676D01*
X115338814Y-100094593D01*
X115471848Y-99774212D01*
X115472024Y-99572690D01*
X116327849Y-99572690D01*
X116460324Y-99893303D01*
X116705407Y-100138814D01*
X117025788Y-100271848D01*
X117372690Y-100272151D01*
X117693303Y-100139676D01*
X117938814Y-99894593D01*
X118071848Y-99574212D01*
X118072151Y-99227310D01*
X117939676Y-98906697D01*
X117694593Y-98661186D01*
X117374212Y-98528152D01*
X117027310Y-98527849D01*
X116706697Y-98660324D01*
X116461186Y-98905407D01*
X116328152Y-99225788D01*
X116327849Y-99572690D01*
X115472024Y-99572690D01*
X115472151Y-99427310D01*
X115339676Y-99106697D01*
X115094593Y-98861186D01*
X114774212Y-98728152D01*
X114427310Y-98727849D01*
X114106697Y-98860324D01*
X113861186Y-99105407D01*
X113728152Y-99425788D01*
X113727849Y-99772690D01*
X70602000Y-99772690D01*
X70602000Y-98172690D01*
X90327849Y-98172690D01*
X90460324Y-98493303D01*
X90705407Y-98738814D01*
X91025788Y-98871848D01*
X91372690Y-98872151D01*
X91693303Y-98739676D01*
X91938814Y-98494593D01*
X92071848Y-98174212D01*
X92072151Y-97827310D01*
X91939676Y-97506697D01*
X91694593Y-97261186D01*
X91374212Y-97128152D01*
X91027310Y-97127849D01*
X90706697Y-97260324D01*
X90461186Y-97505407D01*
X90328152Y-97825788D01*
X90327849Y-98172690D01*
X70602000Y-98172690D01*
X70602000Y-95472690D01*
X73894283Y-95472690D01*
X74026758Y-95793303D01*
X74271841Y-96038814D01*
X74592222Y-96171848D01*
X74939124Y-96172151D01*
X75259737Y-96039676D01*
X75505248Y-95794593D01*
X75638282Y-95474212D01*
X75638283Y-95472690D01*
X91527849Y-95472690D01*
X91660324Y-95793303D01*
X91905407Y-96038814D01*
X92225788Y-96171848D01*
X92572690Y-96172151D01*
X92893303Y-96039676D01*
X92960405Y-95972690D01*
X96027849Y-95972690D01*
X96160324Y-96293303D01*
X96405407Y-96538814D01*
X96725788Y-96671848D01*
X97072690Y-96672151D01*
X97393303Y-96539676D01*
X97638814Y-96294593D01*
X97653656Y-96258849D01*
X97925788Y-96371848D01*
X98272690Y-96372151D01*
X98593303Y-96239676D01*
X98754369Y-96078891D01*
X98760324Y-96093303D01*
X99005407Y-96338814D01*
X99325788Y-96471848D01*
X99672690Y-96472151D01*
X99993303Y-96339676D01*
X100238814Y-96094593D01*
X100371848Y-95774212D01*
X100371937Y-95672063D01*
X100472690Y-95672151D01*
X100793303Y-95539676D01*
X101038814Y-95294593D01*
X101047908Y-95272690D01*
X117427849Y-95272690D01*
X117560324Y-95593303D01*
X117805407Y-95838814D01*
X118125788Y-95971848D01*
X118472690Y-95972151D01*
X118793303Y-95839676D01*
X119038814Y-95594593D01*
X119171848Y-95274212D01*
X119172151Y-94927310D01*
X119039676Y-94606697D01*
X118794593Y-94361186D01*
X118474212Y-94228152D01*
X118127310Y-94227849D01*
X117806697Y-94360324D01*
X117561186Y-94605407D01*
X117428152Y-94925788D01*
X117427849Y-95272690D01*
X101047908Y-95272690D01*
X101171848Y-94974212D01*
X101172151Y-94627310D01*
X101039676Y-94306697D01*
X100794593Y-94061186D01*
X100474212Y-93928152D01*
X100127310Y-93927849D01*
X99806697Y-94060324D01*
X99561186Y-94305407D01*
X99428152Y-94625788D01*
X99428063Y-94727937D01*
X99327310Y-94727849D01*
X99006697Y-94860324D01*
X98845631Y-95021109D01*
X98839676Y-95006697D01*
X98594593Y-94761186D01*
X98283976Y-94632206D01*
X98559717Y-94518272D01*
X98805228Y-94273189D01*
X98938262Y-93952808D01*
X98938565Y-93605906D01*
X98806549Y-93286405D01*
X98943022Y-93286524D01*
X99218520Y-93172690D01*
X101433849Y-93172690D01*
X101566324Y-93493303D01*
X101811407Y-93738814D01*
X102131788Y-93871848D01*
X102478690Y-93872151D01*
X102799303Y-93739676D01*
X103044814Y-93494593D01*
X103177848Y-93174212D01*
X103178151Y-92827310D01*
X103045676Y-92506697D01*
X102800593Y-92261186D01*
X102480212Y-92128152D01*
X102133310Y-92127849D01*
X101812697Y-92260324D01*
X101567186Y-92505407D01*
X101434152Y-92825788D01*
X101433849Y-93172690D01*
X99218520Y-93172690D01*
X99263635Y-93154049D01*
X99509146Y-92908966D01*
X99642180Y-92588585D01*
X99642483Y-92241683D01*
X99510008Y-91921070D01*
X99264925Y-91675559D01*
X98944544Y-91542525D01*
X98597642Y-91542222D01*
X98277029Y-91674697D01*
X98031518Y-91919780D01*
X97898484Y-92240161D01*
X97898181Y-92587063D01*
X98030197Y-92906564D01*
X97893724Y-92906445D01*
X97573111Y-93038920D01*
X97327600Y-93284003D01*
X97284198Y-93388527D01*
X97113007Y-93317442D01*
X96766105Y-93317139D01*
X96445492Y-93449614D01*
X96199981Y-93694697D01*
X96066947Y-94015078D01*
X96066644Y-94361980D01*
X96199119Y-94682593D01*
X96444202Y-94928104D01*
X96585099Y-94986610D01*
X96406697Y-95060324D01*
X96161186Y-95305407D01*
X96028152Y-95625788D01*
X96027849Y-95972690D01*
X92960405Y-95972690D01*
X93138814Y-95794593D01*
X93271848Y-95474212D01*
X93272151Y-95127310D01*
X93139676Y-94806697D01*
X92894593Y-94561186D01*
X92574212Y-94428152D01*
X92227310Y-94427849D01*
X91906697Y-94560324D01*
X91661186Y-94805407D01*
X91528152Y-95125788D01*
X91527849Y-95472690D01*
X75638283Y-95472690D01*
X75638585Y-95127310D01*
X75506110Y-94806697D01*
X75261027Y-94561186D01*
X74940646Y-94428152D01*
X74593744Y-94427849D01*
X74273131Y-94560324D01*
X74027620Y-94805407D01*
X73894586Y-95125788D01*
X73894283Y-95472690D01*
X70602000Y-95472690D01*
X70602000Y-92672690D01*
X91527849Y-92672690D01*
X91660324Y-92993303D01*
X91905407Y-93238814D01*
X92225788Y-93371848D01*
X92572690Y-93372151D01*
X92893303Y-93239676D01*
X93138814Y-92994593D01*
X93271848Y-92674212D01*
X93271849Y-92672690D01*
X94813849Y-92672690D01*
X94946324Y-92993303D01*
X95191407Y-93238814D01*
X95511788Y-93371848D01*
X95858690Y-93372151D01*
X96179303Y-93239676D01*
X96424814Y-92994593D01*
X96557848Y-92674212D01*
X96558151Y-92327310D01*
X96425676Y-92006697D01*
X96180593Y-91761186D01*
X95860212Y-91628152D01*
X95513310Y-91627849D01*
X95192697Y-91760324D01*
X94947186Y-92005407D01*
X94814152Y-92325788D01*
X94813849Y-92672690D01*
X93271849Y-92672690D01*
X93272151Y-92327310D01*
X93139676Y-92006697D01*
X92894593Y-91761186D01*
X92574212Y-91628152D01*
X92227310Y-91627849D01*
X91906697Y-91760324D01*
X91661186Y-92005407D01*
X91528152Y-92325788D01*
X91527849Y-92672690D01*
X70602000Y-92672690D01*
X70602000Y-90872690D01*
X74427849Y-90872690D01*
X74560324Y-91193303D01*
X74805407Y-91438814D01*
X75125788Y-91571848D01*
X75472690Y-91572151D01*
X75793303Y-91439676D01*
X76038814Y-91194593D01*
X76171848Y-90874212D01*
X76171849Y-90872690D01*
X77027849Y-90872690D01*
X77160324Y-91193303D01*
X77405407Y-91438814D01*
X77725788Y-91571848D01*
X78072690Y-91572151D01*
X78393303Y-91439676D01*
X78460405Y-91372690D01*
X82927849Y-91372690D01*
X83060324Y-91693303D01*
X83305407Y-91938814D01*
X83625788Y-92071848D01*
X83668836Y-92071886D01*
X83760324Y-92293303D01*
X84005407Y-92538814D01*
X84325788Y-92671848D01*
X84672690Y-92672151D01*
X84993303Y-92539676D01*
X85238814Y-92294593D01*
X85371848Y-91974212D01*
X85372151Y-91627310D01*
X85239676Y-91306697D01*
X84994593Y-91061186D01*
X84674212Y-90928152D01*
X84631164Y-90928114D01*
X84539676Y-90706697D01*
X84294593Y-90461186D01*
X83974212Y-90328152D01*
X83627310Y-90327849D01*
X83306697Y-90460324D01*
X83061186Y-90705407D01*
X82928152Y-91025788D01*
X82927849Y-91372690D01*
X78460405Y-91372690D01*
X78638814Y-91194593D01*
X78771848Y-90874212D01*
X78772151Y-90527310D01*
X78639676Y-90206697D01*
X78394593Y-89961186D01*
X78074212Y-89828152D01*
X77727310Y-89827849D01*
X77406697Y-89960324D01*
X77161186Y-90205407D01*
X77028152Y-90525788D01*
X77027849Y-90872690D01*
X76171849Y-90872690D01*
X76172151Y-90527310D01*
X76039676Y-90206697D01*
X75794593Y-89961186D01*
X75474212Y-89828152D01*
X75127310Y-89827849D01*
X74806697Y-89960324D01*
X74561186Y-90205407D01*
X74428152Y-90525788D01*
X74427849Y-90872690D01*
X70602000Y-90872690D01*
X70602000Y-89083749D01*
X84516790Y-89083749D01*
X84649265Y-89404362D01*
X84894348Y-89649873D01*
X85214729Y-89782907D01*
X85528102Y-89783181D01*
X85527849Y-90072690D01*
X85660324Y-90393303D01*
X85905407Y-90638814D01*
X86225788Y-90771848D01*
X86572690Y-90772151D01*
X86893303Y-90639676D01*
X87138814Y-90394593D01*
X87271848Y-90074212D01*
X87272151Y-89727310D01*
X87211569Y-89580690D01*
X118927849Y-89580690D01*
X119060324Y-89901303D01*
X119305407Y-90146814D01*
X119625788Y-90279848D01*
X119972690Y-90280151D01*
X120293303Y-90147676D01*
X120538814Y-89902593D01*
X120671848Y-89582212D01*
X120672151Y-89235310D01*
X120539676Y-88914697D01*
X120294593Y-88669186D01*
X119974212Y-88536152D01*
X119627310Y-88535849D01*
X119306697Y-88668324D01*
X119061186Y-88913407D01*
X118928152Y-89233788D01*
X118927849Y-89580690D01*
X87211569Y-89580690D01*
X87139676Y-89406697D01*
X86894593Y-89161186D01*
X86574212Y-89028152D01*
X86260839Y-89027878D01*
X86261092Y-88738369D01*
X86128617Y-88417756D01*
X85883534Y-88172245D01*
X85563153Y-88039211D01*
X85216251Y-88038908D01*
X84895638Y-88171383D01*
X84650127Y-88416466D01*
X84517093Y-88736847D01*
X84516790Y-89083749D01*
X70602000Y-89083749D01*
X70602000Y-88368634D01*
X71727849Y-88368634D01*
X71860324Y-88689247D01*
X72105407Y-88934758D01*
X72425788Y-89067792D01*
X72772690Y-89068095D01*
X73093303Y-88935620D01*
X73338814Y-88690537D01*
X73471848Y-88370156D01*
X73472151Y-88023254D01*
X73339676Y-87702641D01*
X73309778Y-87672690D01*
X92127849Y-87672690D01*
X92260324Y-87993303D01*
X92505407Y-88238814D01*
X92825788Y-88371848D01*
X93172690Y-88372151D01*
X93493303Y-88239676D01*
X93738814Y-87994593D01*
X93871848Y-87674212D01*
X93872151Y-87327310D01*
X93766944Y-87072690D01*
X110827849Y-87072690D01*
X110960324Y-87393303D01*
X111205407Y-87638814D01*
X111525788Y-87771848D01*
X111872690Y-87772151D01*
X112193303Y-87639676D01*
X112438814Y-87394593D01*
X112571848Y-87074212D01*
X112571849Y-87072690D01*
X116327849Y-87072690D01*
X116460324Y-87393303D01*
X116705407Y-87638814D01*
X117025788Y-87771848D01*
X117372690Y-87772151D01*
X117693303Y-87639676D01*
X117938814Y-87394593D01*
X118071848Y-87074212D01*
X118072151Y-86727310D01*
X117939676Y-86406697D01*
X117694593Y-86161186D01*
X117374212Y-86028152D01*
X117027310Y-86027849D01*
X116706697Y-86160324D01*
X116461186Y-86405407D01*
X116328152Y-86725788D01*
X116327849Y-87072690D01*
X112571849Y-87072690D01*
X112572151Y-86727310D01*
X112439676Y-86406697D01*
X112194593Y-86161186D01*
X111874212Y-86028152D01*
X111527310Y-86027849D01*
X111206697Y-86160324D01*
X110961186Y-86405407D01*
X110828152Y-86725788D01*
X110827849Y-87072690D01*
X93766944Y-87072690D01*
X93739676Y-87006697D01*
X93494593Y-86761186D01*
X93174212Y-86628152D01*
X92827310Y-86627849D01*
X92506697Y-86760324D01*
X92261186Y-87005407D01*
X92128152Y-87325788D01*
X92127849Y-87672690D01*
X73309778Y-87672690D01*
X73094593Y-87457130D01*
X72774212Y-87324096D01*
X72427310Y-87323793D01*
X72106697Y-87456268D01*
X71861186Y-87701351D01*
X71728152Y-88021732D01*
X71727849Y-88368634D01*
X70602000Y-88368634D01*
X70602000Y-86172690D01*
X80627849Y-86172690D01*
X80760324Y-86493303D01*
X81005407Y-86738814D01*
X81325788Y-86871848D01*
X81672690Y-86872151D01*
X81993303Y-86739676D01*
X82238814Y-86494593D01*
X82371848Y-86174212D01*
X82372151Y-85827310D01*
X82239676Y-85506697D01*
X81994593Y-85261186D01*
X81674212Y-85128152D01*
X81327310Y-85127849D01*
X81006697Y-85260324D01*
X80761186Y-85505407D01*
X80628152Y-85825788D01*
X80627849Y-86172690D01*
X70602000Y-86172690D01*
X70602000Y-84972690D01*
X95827849Y-84972690D01*
X95960324Y-85293303D01*
X96205407Y-85538814D01*
X96525788Y-85671848D01*
X96872690Y-85672151D01*
X97193303Y-85539676D01*
X97438814Y-85294593D01*
X97571848Y-84974212D01*
X97572151Y-84627310D01*
X97439676Y-84306697D01*
X97194593Y-84061186D01*
X96874212Y-83928152D01*
X96527310Y-83927849D01*
X96206697Y-84060324D01*
X95961186Y-84305407D01*
X95828152Y-84625788D01*
X95827849Y-84972690D01*
X70602000Y-84972690D01*
X70602000Y-83872690D01*
X85827849Y-83872690D01*
X85960324Y-84193303D01*
X86205407Y-84438814D01*
X86525788Y-84571848D01*
X86872690Y-84572151D01*
X87193303Y-84439676D01*
X87400146Y-84233194D01*
X87605407Y-84438814D01*
X87925788Y-84571848D01*
X88272690Y-84572151D01*
X88593303Y-84439676D01*
X88838814Y-84194593D01*
X88971848Y-83874212D01*
X88972151Y-83527310D01*
X88839676Y-83206697D01*
X88594593Y-82961186D01*
X88274212Y-82828152D01*
X87927310Y-82827849D01*
X87606697Y-82960324D01*
X87399854Y-83166806D01*
X87194593Y-82961186D01*
X86874212Y-82828152D01*
X86527310Y-82827849D01*
X86206697Y-82960324D01*
X85961186Y-83205407D01*
X85828152Y-83525788D01*
X85827849Y-83872690D01*
X70602000Y-83872690D01*
X70602000Y-82772690D01*
X73827849Y-82772690D01*
X73960324Y-83093303D01*
X74205407Y-83338814D01*
X74525788Y-83471848D01*
X74872690Y-83472151D01*
X75193303Y-83339676D01*
X75438814Y-83094593D01*
X75571848Y-82774212D01*
X75572151Y-82427310D01*
X75439676Y-82106697D01*
X75194593Y-81861186D01*
X74874212Y-81728152D01*
X74527310Y-81727849D01*
X74206697Y-81860324D01*
X73961186Y-82105407D01*
X73828152Y-82425788D01*
X73827849Y-82772690D01*
X70602000Y-82772690D01*
X70602000Y-81602000D01*
X81464774Y-81602000D01*
X81361186Y-81705407D01*
M02*
